<svg width="24" height="14" viewBox="0 0 24 14" fill="none" xmlns="http://www.w3.org/2000/svg">
<path d="M23.6517 0.399854C23.3127 0.196699 22.8747 0.308308 22.6728 0.646462C21.5755 2.48273 20.467 4.10164 19.3547 5.49527C15.9493 1.66805 12.5104 -0.176142 9.10327 0.0132315C5.80737 0.196324 2.70079 2.33939 0.120058 6.21133C-0.0400193 6.45128 -0.0400193 6.76352 0.120058 7.00342C2.83204 11.0714 6.09494 13.2149 9.56976 13.2145C9.63956 13.2145 9.70978 13.2136 9.77962 13.2119C14.5281 13.0945 19.2782 9.11302 23.8984 1.37879C24.1006 1.04026 23.9903 0.602165 23.6517 0.399854ZM9.74404 11.7845C6.09827 11.8865 3.32943 9.10805 1.57842 6.60714C3.84022 3.37434 6.46192 1.59033 9.18267 1.43902C12.1676 1.2714 15.2805 3.00946 18.4288 6.60297C15.4941 9.94575 12.5501 11.7151 9.74404 11.7845Z" fill="white"/>
<path d="M23.899 11.8364C22.9744 10.2885 22.0318 8.87442 21.0967 7.63172C20.8597 7.31696 20.412 7.25429 20.0969 7.49086C19.7821 7.72786 19.719 8.17556 19.956 8.4907C20.8601 9.69243 21.7747 11.0643 22.6734 12.5687C22.8072 12.7923 23.0438 12.9165 23.2871 12.9165C23.4116 12.9165 23.5378 12.8839 23.6524 12.8153C23.9909 12.613 24.1013 12.175 23.899 11.8364Z" fill="white"/>
</svg>
