<svg width="20" height="12" viewBox="0 0 20 12" fill="none" xmlns="http://www.w3.org/2000/svg">
<path d="M19.7098 0.333212C19.4273 0.163916 19.0622 0.256923 18.894 0.538718C17.9796 2.06894 17.0558 3.41804 16.1289 4.5794C13.2911 1.39004 10.4253 -0.146785 7.58606 0.0110263C4.83947 0.163603 2.25066 1.94949 0.100048 5.17611C-0.0333494 5.37607 -0.0333494 5.63626 0.100048 5.83619C2.36003 9.22616 5.07912 11.0124 7.9748 11.0121C8.03297 11.0121 8.09148 11.0113 8.14968 11.0099C12.1067 10.9121 16.0652 7.59418 19.9153 1.14899C20.0839 0.86688 19.9919 0.501805 19.7098 0.333212ZM8.12004 9.82042C5.08189 9.90542 2.77452 7.59004 1.31535 5.50595C3.20018 2.81195 5.38494 1.32528 7.65223 1.19918C10.1397 1.0595 12.7337 2.50789 15.3573 5.50248C12.9117 8.28812 10.4584 9.76261 8.12004 9.82042Z" fill="black"/>
<path d="M19.9152 9.86363C19.1447 8.57376 18.3592 7.39533 17.5799 6.35975C17.3824 6.09745 17.0094 6.04522 16.7467 6.24237C16.4844 6.43987 16.4319 6.81295 16.6294 7.07557C17.3828 8.077 18.1449 9.22024 18.8939 10.4739C19.0054 10.6603 19.2025 10.7637 19.4052 10.7637C19.509 10.7637 19.6142 10.7366 19.7097 10.6794C19.9918 10.5108 20.0838 10.1458 19.9152 9.86363Z" fill="black"/>
</svg>
