<svg width="22" height="18" viewBox="0 0 22 18" fill="none" xmlns="http://www.w3.org/2000/svg">
<path fill-rule="evenodd" clip-rule="evenodd" d="M4.63661 1.08317C4.37414 1.24133 4.35385 1.32094 4.35369 2.19254L4.35353 2.9733L2.89729 2.9847C1.50954 2.99559 1.4346 2.99988 1.30426 3.07558C0.908909 3.30511 0.896712 3.83126 1.28014 4.11435C1.38347 4.19067 1.4504 4.19484 2.86101 4.21335L4.33399 4.23267L4.35353 5.04415C4.37116 5.7768 4.38066 5.8659 4.45127 5.96131C4.549 6.09343 4.80722 6.22272 4.9734 6.22272C5.15875 6.22272 5.38838 6.09092 5.49308 5.92445L5.58498 5.77834V3.6144C5.58498 1.50108 5.58311 1.4473 5.50469 1.31533C5.32767 1.01748 4.9245 0.909634 4.63661 1.08317ZM7.39272 3.0318C7.19963 3.10024 7.13955 3.15302 7.04384 3.33846C6.89822 3.62055 6.99294 3.92984 7.28517 4.12641L7.41441 4.21335H13.9901H20.5658L20.6951 4.12641C20.8888 3.99611 20.9775 3.85414 20.995 3.64624C21.0144 3.41578 20.8973 3.19325 20.6947 3.07558C20.5583 2.99637 20.5388 2.9961 14.0488 2.98794C8.673 2.98118 7.51406 2.98879 7.39272 3.0318ZM8.2871 6.3383C8.22518 6.35754 8.13116 6.41334 8.07815 6.46222C7.88639 6.63928 7.87201 6.71054 7.87138 7.48631C7.87103 7.88586 7.85699 8.23422 7.84014 8.26042C7.81638 8.2974 7.09146 8.31035 4.59885 8.31838C1.42522 8.32858 1.38687 8.32963 1.28018 8.40838C1.07502 8.55978 1.01102 8.68328 1.01102 8.92765C1.01102 9.17202 1.07502 9.29552 1.28018 9.44691C1.38691 9.52571 1.42491 9.52671 4.63004 9.53691L7.87197 9.54723V10.3213C7.87197 11.1666 7.88541 11.2302 8.10235 11.4106C8.43234 11.6851 8.96217 11.5018 9.08008 11.0723C9.13278 10.8803 9.1377 7.04695 9.08555 6.82465C8.99826 6.45268 8.63359 6.23057 8.2871 6.3383ZM10.8607 8.36348C10.602 8.47538 10.4529 8.77169 10.5084 9.0637C10.5427 9.24439 10.7378 9.45785 10.9151 9.50859C11.0132 9.53664 12.5574 9.54588 15.8345 9.53803C20.5886 9.52663 20.6113 9.52621 20.7187 9.44691C20.9239 9.29552 20.9879 9.17202 20.9879 8.92765C20.9879 8.68328 20.9239 8.55978 20.7187 8.40838C20.6112 8.32901 20.5913 8.32866 15.7954 8.32031C11.8517 8.31344 10.9583 8.32124 10.8607 8.36348ZM13.015 11.7179C12.7267 11.8835 12.7018 11.9705 12.6874 12.8594L12.6747 13.6419H7.05389H1.43308L1.30383 13.7289C1.11012 13.8592 1.02146 14.0012 1.00395 14.2091C0.984477 14.4395 1.1016 14.662 1.30426 14.7797C1.44035 14.8587 1.46998 14.8592 7.06077 14.8693L12.6805 14.8795V15.605C12.6805 16.2806 12.6866 16.3423 12.7685 16.5026C12.8882 16.7368 13.0677 16.8492 13.3215 16.8491C13.5581 16.8489 13.7402 16.7532 13.8535 16.5694C13.9286 16.4477 13.9312 16.3706 13.9313 14.2563L13.9315 12.0691L13.8435 11.9413C13.6392 11.6446 13.3012 11.5535 13.015 11.7179ZM15.6601 13.7062C15.4679 13.7998 15.3649 13.9688 15.3471 14.2191C15.3281 14.4882 15.4332 14.6634 15.691 14.7925L15.8666 14.8804L18.2122 14.8698L20.5579 14.8592L20.7057 14.7683C20.906 14.6452 21.022 14.4149 20.9965 14.191C20.9743 13.9959 20.8822 13.8547 20.6951 13.7289L20.5658 13.6419L18.1771 13.6428C16.0568 13.6436 15.774 13.6507 15.6601 13.7062Z" fill="white" stroke="white" stroke-width="0.5"/>
</svg>
