<svg width="22" height="32" viewBox="0 0 22 32" fill="none" xmlns="http://www.w3.org/2000/svg">
<g filter="url(#filter0_d_1109_12176)">
<path fill-rule="evenodd" clip-rule="evenodd" d="M17.5095 0.103968C17.3637 0.156744 13.6922 3.20634 9.3506 6.88084C0.774263 14.1392 1.00058 13.9204 1.00058 14.9533C1.00058 15.9797 0.777913 15.7637 9.03418 22.7452C13.2223 26.2866 16.8337 29.3298 17.0596 29.5077C17.5848 29.9214 18.3274 30.0982 18.8995 29.946C19.8564 29.6914 20.4546 28.969 20.541 27.9635C20.6322 26.9022 20.8311 27.1012 13.4265 20.8473C9.74172 17.7352 6.6678 15.1345 6.59554 15.068C6.49034 14.9713 7.8142 13.8063 13.2101 9.24715C19.0684 4.29741 19.9894 3.48204 20.2083 3.05192C20.76 1.96725 20.3427 0.752403 19.2227 0.183182C18.8158 -0.0236163 17.9693 -0.0627727 17.5095 0.103968Z" fill="white"/>
</g>
<defs>
<filter id="filter0_d_1109_12176" x="0" y="0" width="21.5652" height="32" filterUnits="userSpaceOnUse" color-interpolation-filters="sRGB">
<feFlood flood-opacity="0" result="BackgroundImageFix"/>
<feColorMatrix in="SourceAlpha" type="matrix" values="0 0 0 0 0 0 0 0 0 0 0 0 0 0 0 0 0 0 127 0" result="hardAlpha"/>
<feOffset dy="1"/>
<feGaussianBlur stdDeviation="0.5"/>
<feComposite in2="hardAlpha" operator="out"/>
<feColorMatrix type="matrix" values="0 0 0 0 0 0 0 0 0 0 0 0 0 0 0 0 0 0 0.45 0"/>
<feBlend mode="normal" in2="BackgroundImageFix" result="effect1_dropShadow_1109_12176"/>
<feBlend mode="normal" in="SourceGraphic" in2="effect1_dropShadow_1109_12176" result="shape"/>
</filter>
</defs>
</svg>
