<svg width="18" height="22" viewBox="0 0 18 22" fill="none" xmlns="http://www.w3.org/2000/svg">
<path d="M11.9415 4.63953C11.6815 4.63953 11.4707 4.8492 11.4707 5.10791V13.9604C11.4707 14.2189 11.6815 14.4288 11.9415 14.4288C12.2016 14.4288 12.4124 14.2189 12.4124 13.9604V5.10791C12.4124 4.8492 12.2016 4.63953 11.9415 4.63953Z" fill="white" stroke="white" stroke-width="0.331664"/>
<path d="M6.38586 4.63953C6.12581 4.63953 5.91504 4.8492 5.91504 5.10791V13.9604C5.91504 14.2189 6.12581 14.4288 6.38586 14.4288C6.64592 14.4288 6.85669 14.2189 6.85669 13.9604V5.10791C6.85669 4.8492 6.64592 4.63953 6.38586 4.63953Z" fill="white" stroke="white" stroke-width="0.331664"/>
<path d="M2.33719 6.95419V18.4942C2.33719 19.1762 2.5886 19.8168 3.02779 20.2764C3.46495 20.7373 4.07333 20.9989 4.71003 21H13.618C14.2549 20.9989 14.8633 20.7373 15.3003 20.2764C15.7394 19.8168 15.9909 19.1762 15.9909 18.4942V6.95419C16.8639 6.72366 17.4296 5.8846 17.3128 4.99339C17.1959 4.10236 16.4328 3.43583 15.5294 3.43565H13.1189V2.85017C13.1216 2.35782 12.926 1.88505 12.5756 1.53724C12.2252 1.18961 11.7493 0.996036 11.2544 1.00006H7.07368C6.57877 0.996036 6.1028 1.18961 5.75245 1.53724C5.4021 1.88505 5.20641 2.35782 5.20917 2.85017V3.43565H2.79863C1.89525 3.43583 1.1322 4.10236 1.01523 4.99339C0.898447 5.8846 1.46416 6.72366 2.33719 6.95419ZM13.618 20.0632H4.71003C3.90505 20.0632 3.27883 19.3753 3.27883 18.4942V6.99536H15.0492V18.4942C15.0492 19.3753 14.423 20.0632 13.618 20.0632ZM6.1508 2.85017C6.14768 2.60628 6.24405 2.37154 6.41803 2.19938C6.59183 2.02721 6.82834 1.93262 7.07368 1.93683H11.2544C11.4997 1.93262 11.7362 2.02721 11.91 2.19938C12.084 2.37136 12.1804 2.60628 12.1772 2.85017V3.43565H6.1508V2.85017ZM2.79863 4.37242H15.5294C15.9975 4.37242 16.3769 4.74987 16.3769 5.21551C16.3769 5.68114 15.9975 6.05859 15.5294 6.05859H2.79863C2.33057 6.05859 1.95116 5.68114 1.95116 5.21551C1.95116 4.74987 2.33057 4.37242 2.79863 4.37242Z" fill="white" stroke="white" stroke-width="0.331664"/>
<path d="M9.16417 4.63953C8.90412 4.63953 8.69336 4.8492 8.69336 5.10791V13.9604C8.69336 14.2189 8.90412 14.4288 9.16417 14.4288C9.42422 14.4288 9.63498 14.2189 9.63498 13.9604V5.10791C9.63498 4.8492 9.42422 4.63953 9.16417 4.63953Z" fill="white" stroke="white" stroke-width="0.331664"/>
</svg>
