<svg width="24" height="24" viewBox="0 0 24 24" fill="none" xmlns="http://www.w3.org/2000/svg">
<path d="M12.25 3.75001C12.25 3.88844 12.1384 4.00003 12 4.00003C11.8616 4.00003 11.75 3.88844 11.75 3.75001V0.750012C11.75 0.611585 11.8616 0.5 12 0.5C12.1384 0.5 12.25 0.611585 12.25 0.750012V3.75001Z" fill="white" stroke="white"/>
<path d="M11.75 20.25C11.75 20.1116 11.8616 20 12 20C12.1384 20 12.25 20.1116 12.25 20.25V23.25C12.25 23.3884 12.1384 23.5 12 23.5C11.8616 23.5 11.75 23.3884 11.75 23.25V20.25Z" fill="white" stroke="white"/>
<path d="M20.25 11.75H23.25C23.3884 11.75 23.5 11.8616 23.5 12C23.5 12.1384 23.3884 12.25 23.25 12.25H20.25C20.1116 12.25 20 12.1384 20 12C20 11.8616 20.1116 11.75 20.25 11.75Z" fill="white" stroke="white"/>
<path d="M3.75001 11.75C3.88844 11.75 4.00003 11.8616 4.00003 12C4.00003 12.1384 3.88844 12.25 3.75001 12.25H0.750012C0.611583 12.25 0.5 12.1384 0.5 12C0.5 11.8616 0.611583 11.75 0.750012 11.75H3.75001Z" fill="white" stroke="white"/>
<path d="M17.6568 6.3428L17.6568 6.34274C17.5591 6.24502 17.5591 6.08703 17.6568 5.98931L19.7779 3.86821C19.8756 3.77049 20.0336 3.77049 20.1313 3.86821L20.4849 3.51466L20.1313 3.86821C20.229 3.96594 20.229 4.12393 20.1313 4.22165L18.0102 6.34274C17.9612 6.39179 17.8981 6.41604 17.8335 6.41604C17.7689 6.41604 17.7058 6.39176 17.6568 6.3428Z" fill="white" stroke="white"/>
<path d="M3.86821 19.7784L5.98935 17.6572C6.08701 17.5596 6.245 17.5595 6.34274 17.6573C6.44047 17.755 6.44047 17.913 6.34274 18.0107L4.22165 20.1318C4.17261 20.1809 4.10953 20.2051 4.04493 20.2051C3.98033 20.2051 3.91726 20.1809 3.86821 20.1318L3.51466 20.4854L3.86821 20.1318C3.77049 20.0341 3.77049 19.8761 3.86821 19.7784Z" fill="white" stroke="white"/>
<path d="M18.3638 17.3037L18.0102 17.6573L18.0103 17.6574L18.0106 17.6577L18.0118 17.6588L18.0163 17.6634L18.034 17.6811L18.1014 17.7484L18.3416 17.9887L19.0708 18.7178L19.7999 19.447L20.0402 19.6872L20.1075 19.7546L20.1253 19.7723L20.1299 19.7769L20.1312 19.7782L20.1313 19.7784C20.1314 19.7784 20.1314 19.7785 20.1315 19.7785C20.229 19.8763 20.229 20.0341 20.1313 20.1318C20.0823 20.1809 20.0192 20.2051 19.9546 20.2051C19.89 20.2051 19.8269 20.1809 19.7779 20.1318L17.6568 18.0107C17.5591 17.913 17.5591 17.755 17.6568 17.6573C17.7545 17.5596 17.9125 17.5596 18.0102 17.6573L18.3638 17.3037Z" fill="white" stroke="white"/>
<path d="M6.16603 6.41604C6.10143 6.41604 6.03835 6.39179 5.98931 6.34275L3.86821 4.22165C3.77049 4.12393 3.77049 3.96594 3.86821 3.86821C3.96594 3.77049 4.12393 3.77049 4.22165 3.86821L6.34274 5.98931C6.44047 6.08703 6.44047 6.24502 6.34274 6.34275C6.2937 6.39179 6.23062 6.41604 6.16603 6.41604Z" fill="white" stroke="white"/>
<path d="M6.5 12C6.5 8.96779 8.96783 6.5 12.0001 6.5C15.0323 6.5 17.5001 8.96779 17.5001 12C17.5001 15.0323 15.0323 17.5001 12.0001 17.5001C8.96779 17.5001 6.5 15.0323 6.5 12ZM7.00002 12C7.00002 14.7576 9.24246 17 12.0001 17C14.7576 17 17.0001 14.7576 17.0001 12C17.0001 9.24238 14.7577 6.99998 12.0001 6.99998C9.24242 6.99998 7.00002 9.24242 7.00002 12Z" fill="white" stroke="white"/>
</svg>
