<svg width="24" height="24" viewBox="0 0 24 24" fill="none" xmlns="http://www.w3.org/2000/svg">
<path d="M12 4.50001C12.4146 4.50001 12.75 4.16456 12.75 3.75V0.750008C12.75 0.335442 12.4146 0 12 0C11.5854 0 11.25 0.335442 11.25 0.750008V3.75C11.25 4.16456 11.5854 4.50001 12 4.50001Z" fill="black"/>
<path d="M12 19.5C11.5854 19.5 11.25 19.8354 11.25 20.25V23.25C11.25 23.6646 11.5854 24 12 24C12.4146 24 12.75 23.6646 12.75 23.25V20.25C12.75 19.8354 12.4146 19.5 12 19.5Z" fill="black"/>
<path d="M23.25 11.25H20.25C19.8354 11.25 19.5 11.5854 19.5 12C19.5 12.4146 19.8354 12.75 20.25 12.75H23.25C23.6646 12.75 24 12.4146 24 12C24 11.5854 23.6646 11.25 23.25 11.25Z" fill="black"/>
<path d="M4.50001 12C4.50001 11.5854 4.16456 11.25 3.75 11.25H0.750008C0.335442 11.25 0 11.5854 0 12C0 12.4146 0.335442 12.75 0.750008 12.75H3.75C4.16456 12.75 4.50001 12.4146 4.50001 12Z" fill="black"/>
<path d="M17.8335 6.91602C18.0254 6.91602 18.2173 6.84277 18.3638 6.69628L20.4849 4.5752C20.7778 4.28222 20.7778 3.80764 20.4849 3.51466C20.1919 3.22168 19.7173 3.22168 19.4243 3.51466L17.3032 5.63574C17.0103 5.92873 17.0103 6.4033 17.3032 6.69628C17.4497 6.84277 17.6416 6.91602 17.8335 6.91602Z" fill="black"/>
<path d="M5.63578 17.3037L3.51466 19.4248C3.22168 19.7178 3.22168 20.1924 3.51466 20.4854C3.66115 20.6318 3.85302 20.7051 4.04493 20.7051C4.23684 20.7051 4.42871 20.6318 4.5752 20.4854L6.69628 18.3643C6.98926 18.0713 6.98926 17.5967 6.69628 17.3037C6.4033 17.0107 5.92872 17.0107 5.63578 17.3037Z" fill="black"/>
<path d="M18.3638 17.3037C18.0708 17.0107 17.5962 17.0107 17.3032 17.3037C17.0103 17.5967 17.0103 18.0713 17.3032 18.3643L19.4243 20.4853C19.5708 20.6318 19.7627 20.7051 19.9546 20.7051C20.1465 20.7051 20.3384 20.6318 20.4849 20.4853C20.7778 20.1924 20.7778 19.7178 20.4849 19.4248C20.4849 19.4248 18.3638 17.3037 18.3638 17.3037Z" fill="black"/>
<path d="M5.63574 6.69628C5.78223 6.84278 5.9741 6.91602 6.16601 6.91602C6.35792 6.91602 6.54979 6.84278 6.69628 6.69628C6.98926 6.4033 6.98926 5.92873 6.69628 5.63574L4.5752 3.51466C4.28222 3.22168 3.80764 3.22168 3.51466 3.51466C3.22168 3.80764 3.22168 4.28222 3.51466 4.5752L5.63574 6.69628Z" fill="black"/>
<path d="M12 6C8.69168 6 6 8.69163 6 12C6 15.3084 8.69163 18 12 18C15.3084 18 18 15.3084 18 12C18 8.69163 15.3084 6 12 6ZM12 16.5C9.51859 16.5 7.50002 14.4814 7.50002 12C7.50002 9.51855 9.51855 7.49997 12 7.49997C14.4815 7.49997 16.5 9.5185 16.5 12C16.5 14.4815 14.4815 16.5 12 16.5Z" fill="black"/>
</svg>
