<svg width="26" height="25" viewBox="0 0 26 25" fill="none" xmlns="http://www.w3.org/2000/svg">
<path fill-rule="evenodd" clip-rule="evenodd" d="M0.387487 0.0791482C0.0512581 0.243273 -0.00864657 0.711051 0.275671 0.952259L0.424228 1.0783L1.91215 1.0843C2.825 1.08798 3.41138 1.10882 3.42934 1.13815C3.44545 1.16448 4.05372 4.22653 4.78102 7.94265C5.77979 13.0457 6.13846 14.7885 6.24673 15.0638C6.66072 16.1163 7.5611 16.9493 8.70604 17.3388L9.04858 17.4553L15.7372 17.4961C19.416 17.5186 22.4774 17.5245 22.5404 17.5093C22.8957 17.4236 23.0143 16.9375 22.752 16.6415L22.6097 16.4809L15.9293 16.4283C8.62267 16.3708 9.14895 16.3966 8.51516 16.0657C7.73771 15.6597 7.27984 14.9669 7.05552 13.8571C6.98864 13.5262 6.93405 13.2228 6.93422 13.1828C6.93447 13.1188 7.83368 13.1137 14.4124 13.1402C22.7153 13.1737 22.1542 13.1934 22.8245 12.8454C23.5747 12.456 24.069 11.792 24.2353 10.9502C24.2672 10.7887 24.488 9.14676 24.726 7.30156C25.0362 4.89607 25.1474 3.89854 25.1189 3.77665C25.0926 3.66423 25.0229 3.5685 24.9131 3.49406L24.747 3.38147L14.8629 3.34162L4.97893 3.30177L4.70075 1.86733C4.54776 1.07842 4.39165 0.370391 4.35384 0.293991C4.22309 0.0297834 4.11402 0.015035 2.24794 0.00873609C0.800683 0.0038318 0.520004 0.0144606 0.387487 0.0791482ZM23.9729 4.508C23.9718 4.78858 23.1457 10.8576 23.0845 11.0348C22.9739 11.3554 22.55 11.8034 22.2161 11.9526L21.9579 12.0681L14.3259 12.0502C10.1283 12.0404 6.69388 12.0243 6.69392 12.0146C6.69395 12.0048 6.35907 10.293 5.94972 8.2106C5.54037 6.12822 5.20549 4.41464 5.20554 4.40258C5.20559 4.39058 9.42832 4.39775 14.5894 4.41856C21.1292 4.44493 23.9731 4.47203 23.9729 4.508ZM8.56299 18.6784C7.73292 18.9031 6.99708 19.5779 6.70132 20.386C6.56972 20.7456 6.52124 21.4926 6.60335 21.8963C6.85816 23.149 8.13864 24.1217 9.41409 24.0312C11.7587 23.8651 12.8347 21.0829 11.1967 19.4221C10.8237 19.0439 10.4291 18.8065 9.97261 18.6856C9.62442 18.5934 8.89102 18.5897 8.56299 18.6784ZM19.4619 18.7263C19.0378 18.8385 18.6216 19.0844 18.2666 19.4326C17.3567 20.3248 17.1869 21.7406 17.8643 22.7866C18.6475 23.996 20.1066 24.4127 21.3853 23.792C22.0603 23.4644 22.6727 22.6865 22.8262 21.9617C22.9116 21.5587 22.8691 20.8113 22.7405 20.4506C22.447 19.6285 21.7164 18.9543 20.8711 18.7257C20.5367 18.6353 19.8047 18.6356 19.4619 18.7263ZM9.9455 19.8417C11.387 20.5204 11.0895 22.6727 9.52101 22.9122C8.79175 23.0235 8.09302 22.6489 7.78763 21.9829C7.39218 21.1206 7.83276 20.0887 8.73077 19.7739C9.09542 19.6461 9.58856 19.6736 9.9455 19.8417ZM20.8895 19.8982C21.6212 20.2599 21.9849 21.157 21.7001 21.8977C21.4358 22.5848 20.8851 22.9724 20.1743 22.9713C19.2584 22.97 18.554 22.2647 18.5577 21.3526C18.5592 20.9779 18.6274 20.7535 18.8313 20.4527C19.0315 20.1574 19.245 19.9852 19.5892 19.8416C19.9743 19.6809 20.4957 19.7036 20.8895 19.8982Z" fill="white"/>
</svg>
