<svg width="50" height="50" viewBox="0 0 50 50" fill="none" xmlns="http://www.w3.org/2000/svg">
<ellipse cx="24.9989" cy="25" rx="24.9989" ry="25" fill="#49AAE8"/>
<path fill-rule="evenodd" clip-rule="evenodd" d="M33.7463 32.8199C33.7463 33.3324 33.3288 33.7499 32.8164 33.7499H31.2464V31.2499H33.7463V32.8199ZM16.2463 32.8199V31.2499H18.7461V33.7499H17.1762C16.6637 33.7499 16.2463 33.3324 16.2463 32.8199V32.8199ZM17.1762 16.2498H18.7461V18.7498H16.2463V17.1798C16.2463 16.6673 16.6637 16.2498 17.1762 16.2498V16.2498ZM33.7463 17.1798V18.7498H31.2464V16.2498H32.8164C33.3288 16.2498 33.7463 16.6673 33.7463 17.1798V17.1798ZM31.2464 28.7499H33.7463V26.2499H31.2464V28.7499ZM31.2464 23.7498H33.7463V21.2498H31.2464V23.7498ZM21.2472 33.7499H28.7469V16.2498H21.2472V33.7499ZM16.2463 28.7499H18.7461V26.2499H16.2463V28.7499ZM16.2463 23.7498H18.7461V21.2498H16.2463V23.7498ZM32.8162 13.7499H17.1769C15.2857 13.7499 13.7471 15.2899 13.7471 17.1799V32.8199C13.7471 34.7111 15.2857 36.2499 17.1769 36.2499H32.8162C34.7074 36.2499 36.246 34.7111 36.246 32.8199V17.1799C36.246 15.2899 34.7074 13.7499 32.8162 13.7499V13.7499Z" fill="white"/>
<mask id="mask0_3931_13618" style="mask-type:alpha" maskUnits="userSpaceOnUse" x="13" y="13" width="24" height="24">
<path fill-rule="evenodd" clip-rule="evenodd" d="M33.7463 32.8199C33.7463 33.3324 33.3288 33.7499 32.8164 33.7499H31.2464V31.2499H33.7463V32.8199ZM16.2463 32.8199V31.2499H18.7461V33.7499H17.1762C16.6637 33.7499 16.2463 33.3324 16.2463 32.8199V32.8199ZM17.1762 16.2498H18.7461V18.7498H16.2463V17.1798C16.2463 16.6673 16.6637 16.2498 17.1762 16.2498V16.2498ZM33.7463 17.1798V18.7498H31.2464V16.2498H32.8164C33.3288 16.2498 33.7463 16.6673 33.7463 17.1798V17.1798ZM31.2464 28.7499H33.7463V26.2499H31.2464V28.7499ZM31.2464 23.7498H33.7463V21.2498H31.2464V23.7498ZM21.2472 33.7499H28.7469V16.2498H21.2472V33.7499ZM16.2463 28.7499H18.7461V26.2499H16.2463V28.7499ZM16.2463 23.7498H18.7461V21.2498H16.2463V23.7498ZM32.8162 13.7499H17.1769C15.2857 13.7499 13.7471 15.2899 13.7471 17.1799V32.8199C13.7471 34.7111 15.2857 36.2499 17.1769 36.2499H32.8162C34.7074 36.2499 36.246 34.7111 36.246 32.8199V17.1799C36.246 15.2899 34.7074 13.7499 32.8162 13.7499V13.7499Z" fill="white"/>
</mask>
<g mask="url(#mask0_3931_13618)">
<rect x="9.99707" y="10" width="29.9986" height="30" fill="white"/>
</g>
</svg>
