<svg width="50" height="50" viewBox="0 0 50 50" fill="none" xmlns="http://www.w3.org/2000/svg">
<ellipse cx="24.9989" cy="25" rx="24.9989" ry="25" fill="#49AAE8"/>
<g filter="url(#filter0_dd_3931_13668)">
<path fill-rule="evenodd" clip-rule="evenodd" d="M33.7472 23.7501H26.2475V16.2501C26.2475 15.5589 25.6876 15.0001 24.9976 15.0001C24.3076 15.0001 23.7476 15.5589 23.7476 16.2501V23.7501H16.248C15.558 23.7501 14.998 24.3089 14.998 25.0001C14.998 25.6914 15.558 26.2501 16.248 26.2501H23.7476V33.7501C23.7476 34.4414 24.3076 35.0001 24.9976 35.0001C25.6876 35.0001 26.2475 34.4414 26.2475 33.7501V26.2501H33.7472C34.4372 26.2501 34.9971 25.6914 34.9971 25.0001C34.9971 24.3089 34.4372 23.7501 33.7472 23.7501" fill="#231F20"/>
<mask id="mask0_3931_13668" style="mask-type:alpha" maskUnits="userSpaceOnUse" x="14" y="15" width="21" height="21">
<path fill-rule="evenodd" clip-rule="evenodd" d="M33.7472 23.7501H26.2475V16.2501C26.2475 15.5589 25.6876 15.0001 24.9976 15.0001C24.3076 15.0001 23.7476 15.5589 23.7476 16.2501V23.7501H16.248C15.558 23.7501 14.998 24.3089 14.998 25.0001C14.998 25.6914 15.558 26.2501 16.248 26.2501H23.7476V33.7501C23.7476 34.4414 24.3076 35.0001 24.9976 35.0001C25.6876 35.0001 26.2475 34.4414 26.2475 33.7501V26.2501H33.7472C34.4372 26.2501 34.9971 25.6914 34.9971 25.0001C34.9971 24.3089 34.4372 23.7501 33.7472 23.7501" fill="white"/>
</mask>
<g mask="url(#mask0_3931_13668)">
<g filter="url(#filter1_dd_3931_13668)">
<rect x="9.99805" y="10.0001" width="29.9986" height="30" fill="white"/>
</g>
</g>
</g>
<defs>
<filter id="filter0_dd_3931_13668" x="7.55524" y="8.77872" width="34.8846" height="34.8856" filterUnits="userSpaceOnUse" color-interpolation-filters="sRGB">
<feFlood flood-opacity="0" result="BackgroundImageFix"/>
<feColorMatrix in="SourceAlpha" type="matrix" values="0 0 0 0 0 0 0 0 0 0 0 0 0 0 0 0 0 0 127 0" result="hardAlpha"/>
<feOffset dy="1.22141"/>
<feGaussianBlur stdDeviation="0.610703"/>
<feColorMatrix type="matrix" values="0 0 0 0 0 0 0 0 0 0 0 0 0 0 0 0 0 0 0.03 0"/>
<feBlend mode="normal" in2="BackgroundImageFix" result="effect1_dropShadow_3931_13668"/>
<feColorMatrix in="SourceAlpha" type="matrix" values="0 0 0 0 0 0 0 0 0 0 0 0 0 0 0 0 0 0 127 0" result="hardAlpha"/>
<feOffset dy="1.22141"/>
<feGaussianBlur stdDeviation="1.22141"/>
<feColorMatrix type="matrix" values="0 0 0 0 0 0 0 0 0 0 0 0 0 0 0 0 0 0 0.03 0"/>
<feBlend mode="normal" in2="effect1_dropShadow_3931_13668" result="effect2_dropShadow_3931_13668"/>
<feBlend mode="normal" in="SourceGraphic" in2="effect2_dropShadow_3931_13668" result="shape"/>
</filter>
<filter id="filter1_dd_3931_13668" x="7.55524" y="8.77872" width="34.8846" height="34.8856" filterUnits="userSpaceOnUse" color-interpolation-filters="sRGB">
<feFlood flood-opacity="0" result="BackgroundImageFix"/>
<feColorMatrix in="SourceAlpha" type="matrix" values="0 0 0 0 0 0 0 0 0 0 0 0 0 0 0 0 0 0 127 0" result="hardAlpha"/>
<feOffset dy="1.22141"/>
<feGaussianBlur stdDeviation="0.610703"/>
<feColorMatrix type="matrix" values="0 0 0 0 0 0 0 0 0 0 0 0 0 0 0 0 0 0 0.03 0"/>
<feBlend mode="normal" in2="BackgroundImageFix" result="effect1_dropShadow_3931_13668"/>
<feColorMatrix in="SourceAlpha" type="matrix" values="0 0 0 0 0 0 0 0 0 0 0 0 0 0 0 0 0 0 127 0" result="hardAlpha"/>
<feOffset dy="1.22141"/>
<feGaussianBlur stdDeviation="1.22141"/>
<feColorMatrix type="matrix" values="0 0 0 0 0 0 0 0 0 0 0 0 0 0 0 0 0 0 0.03 0"/>
<feBlend mode="normal" in2="effect1_dropShadow_3931_13668" result="effect2_dropShadow_3931_13668"/>
<feBlend mode="normal" in="SourceGraphic" in2="effect2_dropShadow_3931_13668" result="shape"/>
</filter>
</defs>
</svg>
