<svg width="28" height="24" viewBox="0 0 28 24" fill="none" xmlns="http://www.w3.org/2000/svg">
<path d="M23.2898 24H25.2212L23.8555 22.6343C23.1191 21.8979 22.6593 20.9402 22.5357 19.9012C24.4572 18.6402 25.8623 16.9811 26.6145 15.0785C27.3661 13.1773 27.4606 11.0845 26.8876 9.02613C26.2001 6.55632 24.5877 4.30517 22.3474 2.68731C19.913 0.92928 16.8824 0 13.5832 0C9.42706 0 5.92392 1.19408 3.45261 3.45307C1.22626 5.48821 0.000127792 8.23333 0.000127792 11.1828C0.000127792 12.6158 0.291914 14.0101 0.867327 15.327C1.46279 16.6897 2.33474 17.9031 3.45896 18.9333C5.93357 21.2012 9.43453 22.4 13.5832 22.4C15.1233 22.4 16.7304 22.1944 18.1653 21.8171C19.5234 23.2103 21.3638 24 23.2898 24ZM13.5832 1.6C20.1986 1.6 24.2578 5.54523 25.3462 9.4552C26.3747 13.1501 24.8586 16.6415 21.2906 18.7947L20.8919 19.0353L20.9042 19.5007C20.9285 20.422 21.1481 21.3093 21.5413 22.1115C20.584 21.7876 19.7153 21.2004 19.0351 20.3967L18.6969 19.9971L18.1953 20.1471C16.7877 20.5682 15.1497 20.8 13.5832 20.8C5.35 20.8 1.60013 15.8148 1.60013 11.1828C1.60013 8.68811 2.64141 6.36235 4.53218 4.63403C6.70354 2.64917 9.83336 1.6 13.5832 1.6Z" fill="white"/>
</svg>
