<svg width="50" height="51" viewBox="0 0 50 51" fill="none" xmlns="http://www.w3.org/2000/svg">
<ellipse cx="24.9989" cy="25.8098" rx="24.9989" ry="25" fill="#49AAE8"/>
<path fill-rule="evenodd" clip-rule="evenodd" d="M31.8025 35.8098H18.1919C17.8094 35.8098 17.4981 35.5298 17.4981 35.1848V16.4348C17.4981 16.0898 17.8094 15.8098 18.1919 15.8098H23.7478V20.9973C23.7478 22.9623 25.269 24.5598 27.1402 24.5598H32.4974V35.1848C32.4974 35.5298 32.185 35.8098 31.8025 35.8098V35.8098ZM32.0601 22.0598H27.1416C26.6491 22.0598 26.2491 21.5835 26.2491 20.9973V15.8098H26.3891L32.0601 22.0598ZM34.6731 21.2198L27.8684 13.7198C27.6322 13.4586 27.296 13.3098 26.9422 13.3098H18.1926C16.4315 13.3098 14.999 14.7123 14.999 16.4348V35.1848C14.999 36.9073 16.4315 38.3098 18.1926 38.3098H31.8033C33.5644 38.3098 34.9981 36.9073 34.9981 35.1848V22.0598C34.9981 21.7486 34.8819 21.4498 34.6731 21.2198V21.2198Z" fill="white"/>
<mask id="mask0_3931_13612" style="mask-type:alpha" maskUnits="userSpaceOnUse" x="14" y="13" width="21" height="26">
<path fill-rule="evenodd" clip-rule="evenodd" d="M31.8025 35.8098H18.1919C17.8094 35.8098 17.4981 35.5298 17.4981 35.1848V16.4348C17.4981 16.0898 17.8094 15.8098 18.1919 15.8098H23.7478V20.9973C23.7478 22.9623 25.269 24.5598 27.1402 24.5598H32.4974V35.1848C32.4974 35.5298 32.185 35.8098 31.8025 35.8098V35.8098ZM32.0601 22.0598H27.1416C26.6491 22.0598 26.2491 21.5835 26.2491 20.9973V15.8098H26.3891L32.0601 22.0598ZM34.6731 21.2198L27.8684 13.7198C27.6322 13.4586 27.296 13.3098 26.9422 13.3098H18.1926C16.4315 13.3098 14.999 14.7123 14.999 16.4348V35.1848C14.999 36.9073 16.4315 38.3098 18.1926 38.3098H31.8033C33.5644 38.3098 34.9981 36.9073 34.9981 35.1848V22.0598C34.9981 21.7486 34.8819 21.4498 34.6731 21.2198V21.2198Z" fill="white"/>
</mask>
<g mask="url(#mask0_3931_13612)">
<rect x="9.99805" y="10.8098" width="29.9986" height="30" fill="white"/>
</g>
</svg>
