<svg width="49" height="50" viewBox="0 0 49 50" fill="none" xmlns="http://www.w3.org/2000/svg">
<rect width="48.1452" height="50" rx="8.40043" fill="#49AAE8" fill-opacity="0.62"/>
<path fill-rule="evenodd" clip-rule="evenodd" d="M30.6248 35.0001H17.5185C17.1502 35.0001 16.8505 34.7201 16.8505 34.3751V15.6251C16.8505 15.2801 17.1502 15.0001 17.5185 15.0001H22.8686V20.1876C22.8686 22.1526 24.3334 23.7501 26.1353 23.7501H31.294V34.3751C31.294 34.7201 30.9931 35.0001 30.6248 35.0001ZM30.8719 21.2501H26.1356C25.6613 21.2501 25.2762 20.7738 25.2762 20.1876V15.0001H25.411L30.8719 21.2501ZM33.3885 20.41L26.8359 12.91C26.6084 12.6488 26.2847 12.5 25.944 12.5H17.5186C15.8227 12.5 14.4434 13.9025 14.4434 15.625V34.375C14.4434 36.0975 15.8227 37.5 17.5186 37.5H30.6249C32.3209 37.5 33.7014 36.0975 33.7014 34.375V21.25C33.7014 20.9388 33.5895 20.64 33.3885 20.41Z" fill="#231F20"/>
<mask id="mask0_1131_15218" style="mask-type:alpha" maskUnits="userSpaceOnUse" x="14" y="12" width="20" height="26">
<path fill-rule="evenodd" clip-rule="evenodd" d="M30.6248 35.0001H17.5185C17.1502 35.0001 16.8505 34.7201 16.8505 34.3751V15.6251C16.8505 15.2801 17.1502 15.0001 17.5185 15.0001H22.8686V20.1876C22.8686 22.1526 24.3334 23.7501 26.1353 23.7501H31.294V34.3751C31.294 34.7201 30.9931 35.0001 30.6248 35.0001ZM30.8719 21.2501H26.1356C25.6613 21.2501 25.2762 20.7738 25.2762 20.1876V15.0001H25.411L30.8719 21.2501ZM33.3885 20.41L26.8359 12.91C26.6084 12.6488 26.2847 12.5 25.944 12.5H17.5186C15.8227 12.5 14.4434 13.9025 14.4434 15.625V34.375C14.4434 36.0975 15.8227 37.5 17.5186 37.5H30.6249C32.3209 37.5 33.7014 36.0975 33.7014 34.375V21.25C33.7014 20.9388 33.5895 20.64 33.3885 20.41Z" fill="white"/>
</mask>
<g mask="url(#mask0_1131_15218)">
<rect x="9.62793" y="10" width="28.8871" height="30" fill="white"/>
</g>
</svg>
