<svg width="50" height="53" viewBox="0 0 50 53" fill="none" xmlns="http://www.w3.org/2000/svg">
<ellipse cx="24.9989" cy="26.6559" rx="24.9989" ry="25.751" fill="#49AAE8"/>
<path fill-rule="evenodd" clip-rule="evenodd" d="M19.9985 24.0808C21.0334 24.0808 21.8734 23.2155 21.8734 22.1495C21.8734 21.0834 21.0334 20.2181 19.9985 20.2181C18.9635 20.2181 18.1236 21.0834 18.1236 22.1495C18.1236 23.2155 18.9635 24.0808 19.9985 24.0808M32.4975 35.6689H18.1994L26.9553 28.1431C27.2628 27.874 27.8202 27.8753 28.1215 28.1418L33.7475 33.086V34.3813C33.7475 35.092 33.1875 35.6689 32.4975 35.6689M17.4972 17.6431H32.4965C33.1865 17.6431 33.7464 18.22 33.7464 18.9307V29.6998L29.7429 26.1822C28.5054 25.0981 26.5693 25.0981 25.3431 26.1744L16.2472 33.9925V18.9307C16.2472 18.22 16.8072 17.6431 17.4972 17.6431M32.4972 15.068H17.4979C15.4305 15.068 13.748 16.801 13.748 18.9306V34.3812C13.748 36.5109 15.4305 38.2439 17.4979 38.2439H32.4972C34.5646 38.2439 36.247 36.5109 36.247 34.3812V18.9306C36.247 16.801 34.5646 15.068 32.4972 15.068" fill="white"/>
<mask id="mask0_3931_13615" style="mask-type:alpha" maskUnits="userSpaceOnUse" x="13" y="15" width="24" height="24">
<path fill-rule="evenodd" clip-rule="evenodd" d="M19.9985 24.0808C21.0334 24.0808 21.8734 23.2155 21.8734 22.1495C21.8734 21.0834 21.0334 20.2181 19.9985 20.2181C18.9635 20.2181 18.1236 21.0834 18.1236 22.1495C18.1236 23.2155 18.9635 24.0808 19.9985 24.0808M32.4975 35.6689H18.1994L26.9553 28.1431C27.2628 27.874 27.8202 27.8753 28.1215 28.1418L33.7475 33.086V34.3813C33.7475 35.092 33.1875 35.6689 32.4975 35.6689M17.4972 17.6431H32.4965C33.1865 17.6431 33.7464 18.22 33.7464 18.9307V29.6998L29.7429 26.1822C28.5054 25.0981 26.5693 25.0981 25.3431 26.1744L16.2472 33.9925V18.9307C16.2472 18.22 16.8072 17.6431 17.4972 17.6431M32.4972 15.068H17.4979C15.4305 15.068 13.748 16.801 13.748 18.9306V34.3812C13.748 36.5109 15.4305 38.2439 17.4979 38.2439H32.4972C34.5646 38.2439 36.247 36.5109 36.247 34.3812V18.9306C36.247 16.801 34.5646 15.068 32.4972 15.068" fill="white"/>
</mask>
<g mask="url(#mask0_3931_13615)">
<rect x="9.99805" y="11.2053" width="29.9986" height="30.9012" fill="white"/>
</g>
</svg>
