<svg width="21" height="16" viewBox="0 0 21 16" fill="none" xmlns="http://www.w3.org/2000/svg">
<path fill-rule="evenodd" clip-rule="evenodd" d="M19.5269 0.0977504C19.3326 0.193146 18.4186 1.12419 12.961 6.78577L6.62086 13.363L4.13814 10.7915C2.77264 9.37721 1.59079 8.18502 1.51179 8.14218C1.30948 8.03252 0.808996 8.03273 0.595852 8.1426C0.373884 8.25699 0.200997 8.45068 0.0839189 8.71609C-0.0382884 8.99308 -0.0265519 9.32287 0.116051 9.61932C0.24388 9.88511 5.88987 15.7445 6.14598 15.8771C6.24591 15.9289 6.43295 15.9812 6.56169 15.9933C6.7564 16.0116 6.83618 15.9962 7.03656 15.9017C7.25484 15.7988 7.91167 15.1299 14.0366 8.77349C20.1616 2.41706 20.8061 1.73541 20.9053 1.50889C20.9964 1.30072 21.0112 1.21823 20.9935 1.01542C20.944 0.449735 20.5456 0.0443883 20 0.00482459C19.7957 -0.00999584 19.7133 0.00618735 19.5269 0.0977504Z" fill="white"/>
</svg>
