<svg width="24" height="24" viewBox="0 0 24 24" fill="none" xmlns="http://www.w3.org/2000/svg">
<path d="M12 0C9.62663 0 7.30655 0.703788 5.33316 2.02236C3.35977 3.34094 1.8217 5.21508 0.913451 7.4078C0.00519936 9.60051 -0.232441 12.0133 0.230582 14.3411C0.693605 16.6689 1.83649 18.807 3.51472 20.4853C5.19295 22.1635 7.33115 23.3064 9.65892 23.7694C11.9867 24.2324 14.3995 23.9948 16.5922 23.0865C18.7849 22.1783 20.6591 20.6402 21.9776 18.6668C23.2962 16.6934 24 14.3734 24 12C23.997 8.81833 22.7317 5.76784 20.4819 3.51806C18.2322 1.26828 15.1817 0.00302584 12 0ZM12 22.8571C9.85266 22.8571 7.75355 22.2204 5.9681 21.0274C4.18265 19.8344 2.79106 18.1387 1.96931 16.1548C1.14756 14.171 0.932554 11.988 1.35148 9.88188C1.7704 7.7758 2.80445 5.84124 4.32285 4.32284C5.84124 2.80444 7.7758 1.7704 9.88188 1.35147C11.988 0.932549 14.171 1.14756 16.1549 1.96931C18.1387 2.79106 19.8344 4.18265 21.0274 5.96809C22.2204 7.75354 22.8571 9.85266 22.8571 12C22.8541 14.8786 21.7093 17.6384 19.6738 19.6738C17.6384 21.7093 14.8786 22.8541 12 22.8571Z" fill="black"/>
<path d="M16 12.7199L12.5715 11.577V5.14272C12.5715 4.99117 12.5113 4.84582 12.4041 4.73866C12.2969 4.63149 12.1516 4.57129 12 4.57129C11.8485 4.57129 11.7031 4.63149 11.596 4.73866C11.4888 4.84582 11.4286 4.99117 11.4286 5.14272V11.9999C11.4277 12.1191 11.465 12.2355 11.5349 12.3321C11.6048 12.4287 11.7037 12.5005 11.8172 12.537L15.6115 13.8056C15.6718 13.8176 15.734 13.8176 15.7943 13.8056C15.9145 13.8039 16.0312 13.7643 16.1276 13.6925C16.2241 13.6207 16.2954 13.5203 16.3315 13.4056C16.3729 13.2705 16.3617 13.1249 16.3003 12.9977C16.2388 12.8705 16.1316 12.7713 16 12.7199Z" fill="black"/>
</svg>
