<svg width="22" height="22" viewBox="0 0 22 22" fill="none" xmlns="http://www.w3.org/2000/svg">
<path fill-rule="evenodd" clip-rule="evenodd" d="M0.799049 0.0565135C0.444643 0.182928 0.183006 0.444436 0.0568067 0.798198C-0.027498 1.03457 -0.0180448 1.2886 0.0856818 1.57224C0.172608 1.81007 0.377138 2.02173 4.75789 6.40786L9.33913 10.9948L4.75789 15.5817C0.327725 20.0173 0.173467 20.1771 0.0814278 20.4264C-0.265029 21.3649 0.624682 22.2546 1.56312 21.9081C1.81242 21.8161 1.97223 21.6618 6.40785 17.2316L10.9948 12.6504L15.5817 17.2316C20.0173 21.6618 20.1771 21.8161 20.4264 21.9081C21.1553 22.1772 21.9146 21.6968 21.9823 20.9237C21.9981 20.7434 21.9797 20.6205 21.9081 20.4264C21.8161 20.1771 21.6618 20.0173 17.2316 15.5817L12.6504 10.9948L17.2316 6.40786C21.6618 1.97223 21.8161 1.81243 21.9081 1.56313C22.2546 0.62469 21.3648 -0.265022 20.4264 0.0814354C20.1771 0.173474 20.0173 0.327732 15.5817 4.7579L10.9948 9.33914L6.40785 4.7579C2.02173 0.377146 1.81006 0.172615 1.57223 0.0856893C1.28889 -0.0179085 1.03456 -0.0274905 0.799049 0.0565135Z" fill="black"/>
</svg>
