<svg width="21" height="22" viewBox="0 0 21 22" fill="none" xmlns="http://www.w3.org/2000/svg">
<path d="M17.3357 1.43689H3.60467C2.16903 1.43689 1.00098 2.66959 1.00098 4.18523V13.0552C1.00098 14.5674 2.16394 15.7982 3.59542 15.8035V19.8286L9.07548 15.8035H17.3357C18.7714 15.8035 19.9394 14.5706 19.9394 13.0552V4.18523C19.9394 2.66959 18.7714 1.43689 17.3357 1.43689ZM18.8298 13.0552C18.8298 13.9247 18.1596 14.6322 17.3357 14.6322H8.72732L4.7051 17.5866V14.6322H3.60467C2.78085 14.6322 2.11065 13.9247 2.11065 13.0552V4.18523C2.11065 3.31552 2.78085 2.60821 3.60467 2.60821H17.3357C18.1596 2.60821 18.8298 3.31552 18.8298 4.18523V13.0552Z" fill="black"/>
<path d="M6.07031 5.57565H14.8712V6.74697H6.07031V5.57565Z" fill="black" stroke="black" stroke-width="0.224456" stroke-linejoin="round"/>
<path d="M6.07031 8.07446H14.8712V9.24579H6.07031V8.07446Z" fill="black" stroke="black" stroke-width="0.224456" stroke-linejoin="round"/>
<path d="M6.07031 10.5733H14.8712V11.7446H6.07031V10.5733Z" fill="black" stroke="black" stroke-width="0.224456" stroke-linejoin="round"/>
</svg>
