<svg width="18" height="20" viewBox="0 0 18 20" fill="none" xmlns="http://www.w3.org/2000/svg">
<path d="M13.125 0C13.0475 0 5.625 0 5.625 0C4.30249 0 3.12501 1.21313 3.12501 2.50001L2.40251 2.51689C1.08063 2.51689 0 3.71312 0 5V17.5C0 18.7869 1.17751 20 2.50001 20H11.875C13.1975 20 14.375 18.7869 14.375 17.5H15C16.3225 17.5 17.5 16.2869 17.5 15V5.01501L13.125 0ZM11.875 18.75H2.50001C1.84376 18.75 1.25002 18.1369 1.25002 17.5V5C1.25002 4.36314 1.7844 3.77062 2.44065 3.77062L3.12501 3.75001V15C3.12501 16.2869 4.30249 17.5 5.625 17.5H13.125C13.125 18.1369 12.5312 18.75 11.875 18.75ZM16.25 15C16.25 15.6369 15.6563 16.25 15 16.25H5.625C4.96875 16.25 4.375 15.6369 4.375 15V2.50001C4.375 1.86315 4.96875 1.25002 5.625 1.25002H11.875C11.865 2.6894 11.875 3.76565 11.875 3.76565C11.875 5.0644 13.0437 6.25002 14.375 6.25002C14.375 6.25002 15.0388 6.25002 16.25 6.25002V15ZM14.375 5C13.7094 5 13.125 3.79064 13.125 3.14188C13.125 3.14188 13.125 2.48437 13.125 1.26938V1.26812L16.25 5H14.375ZM13.125 8.76127H7.50001C7.15502 8.76127 6.87502 9.04064 6.87502 9.38564C6.87502 9.73064 7.15502 10.01 7.50001 10.01H13.125C13.47 10.01 13.75 9.73061 13.75 9.38564C13.75 9.04064 13.47 8.76127 13.125 8.76127ZM13.125 11.8831H7.50001C7.15502 11.8831 6.87502 12.1625 6.87502 12.5075C6.87502 12.8525 7.15502 13.1319 7.50001 13.1319H13.125C13.47 13.1319 13.75 12.8525 13.75 12.5075C13.75 12.1625 13.47 11.8831 13.125 11.8831Z" fill="white"/>
</svg>
