<svg width="104" height="104" viewBox="0 0 104 104" fill="none" xmlns="http://www.w3.org/2000/svg">
<path fill-rule="evenodd" clip-rule="evenodd" d="M2.27238 17.4756C1.90181 17.5705 1.36445 17.8798 1.07799 18.1633C0.0152373 19.2148 0 19.3721 0 29.2749C0 38.2011 0.012393 38.4909 0.425424 39.28C1.0081 40.3928 1.7466 40.8005 3.60067 41.0319C4.4696 41.1405 5.48968 41.3468 5.86736 41.4906C9.91986 43.0322 12.5421 47.6677 11.8424 52.0528C11.2721 55.6269 8.97962 58.5891 5.86736 59.773C5.48968 59.9167 4.4696 60.123 3.60067 60.2317C1.74192 60.4637 1.0081 60.8705 0.419329 61.9955C-0.00507912 62.806 -0.0115803 62.9809 0.0444928 72.3051C0.0997533 81.4949 0.114584 81.8086 0.520505 82.392C0.750892 82.7231 1.19176 83.1964 1.50036 83.4438L2.0615 83.8935H52.0098H101.958L102.519 83.4438C102.828 83.1964 103.269 82.7231 103.499 82.392C103.905 81.8086 103.92 81.4949 103.975 72.3051C104.031 62.9809 104.025 62.806 103.6 61.9955C103.012 60.8705 102.278 60.4637 100.419 60.2317C99.5501 60.123 98.53 59.9167 98.1523 59.773C95.0401 58.5891 92.7476 55.6269 92.1773 52.0528C91.4776 47.6677 94.0998 43.0322 98.1523 41.4906C98.53 41.3468 99.5501 41.1405 100.419 41.0319C102.278 40.7998 103.012 40.3931 103.6 39.268C104.025 38.4575 104.031 38.2826 103.975 28.9584C103.92 19.7686 103.905 19.455 103.499 18.8715C103.269 18.5404 102.828 18.0671 102.519 17.8198L101.958 17.3701L52.4521 17.3367C25.2238 17.3184 2.64275 17.381 2.27238 17.4756ZM29.0524 29.1157C29.0524 34.2746 29.0656 34.4485 29.5136 35.1682C30.0452 36.0228 31.1181 36.6721 31.9982 36.6721C32.8783 36.6721 33.9513 36.0228 34.4829 35.1682C34.9309 34.4485 34.9441 34.2746 34.9441 29.1157V23.8043H66.4344H97.9248V29.3401V34.8762L97.0087 35.1237C93.6415 36.0339 90.1186 38.9241 88.2184 42.3355C84.118 49.6967 86.0525 59.1319 92.6482 63.9406C94.0545 64.9659 95.6583 65.7747 97.0087 66.1398L97.9248 66.3874V71.9234V77.4593H66.4344H34.9441V72.1479C34.9441 66.9889 34.9309 66.8151 34.4829 66.0953C33.2709 64.1476 30.7256 64.1476 29.5136 66.0953C29.0656 66.8151 29.0524 66.9889 29.0524 72.1479V77.4593H17.5736H6.0949V71.9234V66.3874L7.01097 66.1398C10.3782 65.2296 13.9011 62.3395 15.8012 58.928C19.9017 51.5668 17.9672 42.1316 11.3715 37.3229C9.96517 36.2976 8.3614 35.4889 7.01097 35.1237L6.0949 34.8762V29.3401V23.8043H17.5736H29.0524V29.1157ZM30.2797 43.7873C29.0983 44.8545 29.0524 45.1105 29.0524 50.6318C29.0524 56.153 29.0983 56.4091 30.2797 57.4763C31.4377 58.5223 33.4525 58.1825 34.4362 56.775C34.8177 56.2291 34.8425 55.8544 34.8425 50.6318C34.8425 45.4091 34.8177 45.0344 34.4362 44.4885C33.8164 43.6014 33.0575 43.216 31.9316 43.216C31.1281 43.216 30.778 43.3371 30.2797 43.7873Z" fill="white"/>
</svg>
