<svg width="103" height="65" viewBox="0 0 103 65" fill="none" xmlns="http://www.w3.org/2000/svg">
<path fill-rule="evenodd" clip-rule="evenodd" d="M2.891 0.138791C2.52911 0.231445 2.00434 0.533476 1.7246 0.810373C0.686755 1.83723 0.671875 1.99081 0.671875 11.6615C0.671875 20.3785 0.683978 20.6615 1.08733 21.4322C1.65634 22.5189 2.37754 22.917 4.18815 23.143C5.03672 23.249 6.03289 23.4505 6.40172 23.5909C10.3592 25.0964 12.92 29.6232 12.2367 33.9055C11.6798 37.3959 9.44104 40.2886 6.40172 41.4448C6.03289 41.5852 5.03672 41.7867 4.18815 41.8927C2.37297 42.1194 1.65634 42.5166 1.08138 43.6152C0.666915 44.4067 0.660566 44.5776 0.715325 53.6832C0.76929 62.6577 0.783774 62.964 1.18018 63.5337C1.40517 63.8571 1.8357 64.3193 2.13707 64.5608L2.68506 65H51.4627H100.24L100.788 64.5608C101.09 64.3193 101.52 63.8571 101.745 63.5337C102.142 62.964 102.156 62.6577 102.21 53.6832C102.265 44.5776 102.259 44.4067 101.844 43.6152C101.269 42.5166 100.553 42.1194 98.7373 41.8927C97.8888 41.7867 96.8926 41.5852 96.5238 41.4448C93.4844 40.2886 91.2457 37.3959 90.6888 33.9055C90.0055 29.6232 92.5662 25.0964 96.5238 23.5909C96.8926 23.4505 97.8888 23.249 98.7373 23.143C100.553 22.9163 101.269 22.5191 101.844 21.4205C102.259 20.629 102.265 20.4581 102.21 11.3525C102.156 2.37803 102.142 2.07175 101.745 1.50198C101.52 1.17865 101.09 0.71644 100.788 0.4749L100.24 0.0356999L51.8947 0.00311126C25.3045 -0.0147806 3.25269 0.04635 2.891 0.138791ZM29.0433 11.5061C29.0433 16.5441 29.0562 16.7138 29.4937 17.4167C30.0129 18.2513 31.0607 18.8854 31.9202 18.8854C32.7796 18.8854 33.8274 18.2513 34.3466 17.4167C34.7841 16.7138 34.797 16.5441 34.797 11.5061V6.31913H65.5493H96.3016V11.7252V17.1315L95.407 17.3733C92.1186 18.2621 88.6784 21.0846 86.8227 24.4161C82.8184 31.6047 84.7075 40.8188 91.1487 45.5148C92.522 46.5161 94.0882 47.3059 95.407 47.6624L96.3016 47.9042V53.3105V58.7166H65.5493H34.797V53.5296C34.797 48.4916 34.7841 48.3219 34.3466 47.619C33.1629 45.7169 30.6774 45.7169 29.4937 47.619C29.0562 48.3219 29.0433 48.4916 29.0433 53.5296V58.7166H17.8336H6.62393V53.3105V47.9042L7.51852 47.6624C10.8068 46.7736 14.2471 43.9511 16.1028 40.6196C20.1071 33.431 18.2179 24.2169 11.7768 19.5209C10.4035 18.5196 8.8373 17.7298 7.51852 17.3733L6.62393 17.1315V11.7252V6.31913H17.8336H29.0433V11.5061ZM30.2419 25.8338C29.0882 26.876 29.0433 27.126 29.0433 32.5178C29.0433 37.9097 29.0882 38.1597 30.2419 39.2019C31.3728 40.2235 33.3403 39.8916 34.301 38.5171C34.6736 37.984 34.6978 37.6181 34.6978 32.5178C34.6978 27.4176 34.6736 27.0517 34.301 26.5186C33.6957 25.6523 32.9546 25.2759 31.8551 25.2759C31.0704 25.2759 30.7286 25.3941 30.2419 25.8338Z" fill="#123D58"/>
</svg>
