<svg width="25" height="16" viewBox="0 0 25 16" fill="none" xmlns="http://www.w3.org/2000/svg">
<path fill-rule="evenodd" clip-rule="evenodd" d="M0.546246 0.0341639C0.457167 0.0569711 0.327992 0.131317 0.259131 0.199476C0.00366282 0.452242 0 0.490045 0 2.87053C0 5.01624 0.00297908 5.08592 0.102265 5.27561C0.242331 5.54311 0.419855 5.6411 0.865545 5.69673C1.07442 5.72284 1.31963 5.77244 1.41042 5.80699C2.38458 6.17757 3.01493 7.29187 2.84673 8.34598C2.70964 9.20515 2.15856 9.91721 1.41042 10.2018C1.31963 10.2363 1.07442 10.2859 0.865545 10.3121C0.418732 10.3678 0.242331 10.4656 0.1008 10.7361C-0.00122094 10.9309 -0.00278373 10.9729 0.0106954 13.2143C0.0239791 15.4234 0.0275443 15.4988 0.125121 15.6391C0.180503 15.7187 0.28648 15.8324 0.360664 15.8919L0.495553 16H12.5024H24.5092L24.6441 15.8919C24.7183 15.8324 24.8242 15.7187 24.8796 15.6391C24.9772 15.4988 24.9808 15.4234 24.994 13.2143C25.0075 10.9729 25.006 10.9309 24.9039 10.7361C24.7624 10.4656 24.586 10.3678 24.1392 10.3121C23.9303 10.2859 23.6851 10.2363 23.5943 10.2018C22.8462 9.91721 22.2951 9.20515 22.158 8.34598C21.9898 7.29187 22.6202 6.17757 23.5943 5.80699C23.6851 5.77244 23.9303 5.72284 24.1392 5.69673C24.586 5.64094 24.7624 5.54316 24.9039 5.27273C25.006 5.0779 25.0075 5.03585 24.994 2.79446C24.9808 0.585362 24.9772 0.509968 24.8796 0.369717C24.8242 0.290128 24.7183 0.176354 24.6441 0.116899L24.5092 0.00878766L12.6087 0.000765848C6.0634 -0.00363829 0.635277 0.0114092 0.546246 0.0341639ZM6.98374 2.83226C6.98374 4.07239 6.98692 4.11418 7.0946 4.2872C7.22241 4.49262 7.48032 4.6487 7.69189 4.6487C7.90345 4.6487 8.16136 4.49262 8.28917 4.2872C8.39685 4.11418 8.40003 4.07239 8.40003 2.83226V1.55548H15.9698H23.5396V2.88621V4.21699L23.3194 4.2765C22.51 4.49529 21.6631 5.19005 21.2064 6.01011C20.2207 7.77963 20.6857 10.0477 22.2712 11.2036C22.6093 11.4501 22.9948 11.6445 23.3194 11.7323L23.5396 11.7918V13.1226V14.4533H15.9698H8.40003V13.1765C8.40003 11.9364 8.39685 11.8946 8.28917 11.7216C7.9978 11.2534 7.38597 11.2534 7.0946 11.7216C6.98692 11.8946 6.98374 11.9364 6.98374 13.1765V14.4533H4.22443H1.46512V13.1226V11.7918L1.68533 11.7323C2.49476 11.5135 3.3416 10.8187 3.79838 9.99868C4.78406 8.22916 4.31903 5.96108 2.73353 4.80516C2.39547 4.55868 2.00995 4.36427 1.68533 4.2765L1.46512 4.21699V2.88621V1.55548H4.22443H6.98374V2.83226ZM7.27877 6.35908C6.99478 6.61562 6.98374 6.67718 6.98374 8.00439C6.98374 9.33161 6.99478 9.39317 7.27877 9.64971C7.55714 9.90116 8.04146 9.81947 8.27793 9.48114C8.36965 9.34991 8.37561 9.25984 8.37561 8.00439C8.37561 6.74895 8.36965 6.65888 8.27793 6.52765C8.12893 6.31441 7.94652 6.22177 7.67587 6.22177C7.48272 6.22177 7.39857 6.25087 7.27877 6.35908Z" fill="black"/>
</svg>
