<svg width="20" height="21" viewBox="0 0 20 21" fill="none" xmlns="http://www.w3.org/2000/svg">
<path fill-rule="evenodd" clip-rule="evenodd" d="M9.24668 0.171164C7.76453 0.313109 6.66216 0.626586 5.41412 1.261C3.93568 2.01247 2.60903 3.2008 1.6417 4.63999C1.23212 5.24935 0.731619 6.27807 0.491302 7.00444C0.297327 7.59075 0.143242 8.258 0.0490705 8.91946C-0.0163568 9.3791 -0.0163568 10.922 0.0490705 11.3816C0.212932 12.5328 0.517387 13.5412 0.993055 14.5082C1.53122 15.6022 2.05835 16.3372 2.92862 17.207C3.78938 18.0671 4.53634 18.6043 5.5901 19.1209C6.32537 19.4813 6.8001 19.6568 7.54549 19.8436C9.50143 20.3339 11.4631 20.2399 13.3741 19.5643C13.9573 19.3581 14.9684 18.8513 15.4844 18.5064C16.6668 17.7162 17.7254 16.632 18.4917 15.4266C18.7733 14.9835 19.226 14.0485 19.4107 13.5285C20.3294 10.9414 20.1695 8.16463 18.9621 5.73846C18.4748 4.75934 17.9323 3.99197 17.1707 3.20435C16.3316 2.33665 15.4884 1.72319 14.3894 1.18085C13.2304 0.608882 12.1513 0.303691 10.8697 0.185351C10.4712 0.148575 9.56545 0.140641 9.24668 0.171164ZM11.3781 1.51066C13.8586 1.92723 15.9568 3.29608 17.3358 5.3974C17.999 6.40809 18.4516 7.5999 18.6584 8.88038C18.7552 9.47993 18.7552 10.8211 18.6584 11.4207C18.2369 14.0302 16.8077 16.197 14.5849 17.5961C13.6331 18.1952 12.4862 18.6152 11.2607 18.8133C10.6587 18.9106 9.31809 18.9103 8.71873 18.8128C6.77358 18.4963 5.17356 17.6864 3.80714 16.3269C2.45753 14.9841 1.6354 13.3615 1.32125 11.4207C1.22418 10.8208 1.22418 9.48025 1.32125 8.88038C1.73063 6.35123 3.06694 4.25714 5.16539 2.85648C6.36139 2.05816 7.80388 1.55533 9.28579 1.42022C9.70886 1.38165 10.922 1.4341 11.3781 1.51066ZM9.73553 5.20105C9.59067 5.26807 9.4608 5.40595 9.40573 5.55118C9.37824 5.62372 9.36401 6.3193 9.36401 7.5922V9.52316L7.37232 9.53394C5.43046 9.5445 5.37798 9.5468 5.2727 9.62536C5.0675 9.77852 5.00348 9.90339 5.00348 10.1505C5.00348 10.3977 5.0675 10.5226 5.2727 10.6757C5.37798 10.7543 5.43046 10.7566 7.37131 10.7671L9.36193 10.7779L9.37277 12.7672C9.38329 14.7068 9.38559 14.7592 9.4642 14.8644C9.61746 15.0695 9.74241 15.1335 9.98973 15.1335C10.237 15.1335 10.362 15.0695 10.5153 14.8644C10.5939 14.7592 10.5962 14.7068 10.6067 12.7672L10.6175 10.7779L12.6082 10.7671C14.549 10.7566 14.6015 10.7543 14.7068 10.6757C14.912 10.5226 14.976 10.3977 14.976 10.1505C14.976 9.90339 14.912 9.77852 14.7068 9.62536C14.6015 9.5468 14.549 9.5445 12.6082 9.53398L10.6175 9.52316L10.6067 7.53385C10.5962 5.59429 10.5939 5.54184 10.5153 5.43663C10.4709 5.37731 10.3886 5.29441 10.3324 5.25248C10.2028 5.15579 9.89137 5.12894 9.73553 5.20105Z" fill="black"/>
</svg>
