<svg width="22" height="13" viewBox="0 0 22 13" fill="none" xmlns="http://www.w3.org/2000/svg">
<path d="M6.41634 11H4.74967C4.51967 11 4.33301 10.8134 4.33301 10.5834C4.33301 10.3534 4.51967 10.1667 4.74967 10.1667H6.41634C6.64634 10.1667 6.83301 10.3534 6.83301 10.5834C6.83301 10.8134 6.64634 11 6.41634 11Z" fill="black" stroke="black" stroke-width="0.3"/>
<path d="M19.9588 11H18.9171C18.6871 11 18.5005 10.8133 18.5005 10.5833C18.5005 10.3533 18.6871 10.1667 18.9171 10.1667H19.613L20.1746 7.17333C20.1671 5.64167 18.8588 4.33333 17.2505 4.33333H14.5146L13.1888 10.1667H15.5838C15.8138 10.1667 16.0005 10.3533 16.0005 10.5833C16.0005 10.8133 15.8138 11 15.5838 11H12.6671C12.5405 11 12.4205 10.9425 12.3413 10.8433C12.2621 10.745 12.2321 10.615 12.2605 10.4917L13.7755 3.825C13.8188 3.63417 13.9871 3.5 14.1821 3.5H17.2505C19.318 3.5 21.0005 5.1825 21.0005 7.25L20.368 10.66C20.3313 10.8575 20.1596 11 19.9588 11Z" fill="black" stroke="black" stroke-width="0.3"/>
<path d="M17.2503 12.6667C16.102 12.6667 15.167 11.7325 15.167 10.5833C15.167 9.43417 16.102 8.5 17.2503 8.5C18.3987 8.5 19.3337 9.43417 19.3337 10.5833C19.3337 11.7325 18.3987 12.6667 17.2503 12.6667ZM17.2503 9.33333C16.5612 9.33333 16.0003 9.89417 16.0003 10.5833C16.0003 11.2725 16.5612 11.8333 17.2503 11.8333C17.9395 11.8333 18.5003 11.2725 18.5003 10.5833C18.5003 9.89417 17.9395 9.33333 17.2503 9.33333Z" fill="black" stroke="black" stroke-width="0.3"/>
<path d="M8.08333 12.6667C6.935 12.6667 6 11.7325 6 10.5833C6 9.43417 6.935 8.5 8.08333 8.5C9.23167 8.5 10.1667 9.43417 10.1667 10.5833C10.1667 11.7325 9.23167 12.6667 8.08333 12.6667ZM8.08333 9.33333C7.39417 9.33333 6.83333 9.89417 6.83333 10.5833C6.83333 11.2725 7.39417 11.8333 8.08333 11.8333C8.7725 11.8333 9.33333 11.2725 9.33333 10.5833C9.33333 9.89417 8.7725 9.33333 8.08333 9.33333Z" fill="black" stroke="black" stroke-width="0.3"/>
<path d="M6.41699 3.50002H3.08366C2.85366 3.50002 2.66699 3.31335 2.66699 3.08335C2.66699 2.85335 2.85366 2.66669 3.08366 2.66669H6.41699C6.64699 2.66669 6.83366 2.85335 6.83366 3.08335C6.83366 3.31335 6.64699 3.50002 6.41699 3.50002Z" fill="black" stroke="black" stroke-width="0.3"/>
<path d="M6.41634 6.00002H2.24967C2.01967 6.00002 1.83301 5.81335 1.83301 5.58335C1.83301 5.35335 2.01967 5.16669 2.24967 5.16669H6.41634C6.64634 5.16669 6.83301 5.35335 6.83301 5.58335C6.83301 5.81335 6.64634 6.00002 6.41634 6.00002Z" fill="black" stroke="black" stroke-width="0.3"/>
<path d="M6.41667 8.50002H1.41667C1.18667 8.50002 1 8.31335 1 8.08335C1 7.85335 1.18667 7.66669 1.41667 7.66669H6.41667C6.64667 7.66669 6.83333 7.85335 6.83333 8.08335C6.83333 8.31335 6.64667 8.50002 6.41667 8.50002Z" fill="black" stroke="black" stroke-width="0.3"/>
<path d="M12.6663 11H9.74967C9.51967 11 9.33301 10.8133 9.33301 10.5833C9.33301 10.3533 9.51967 10.1667 9.74967 10.1667H12.3338L14.2272 1.83333H4.74967C4.51967 1.83333 4.33301 1.64667 4.33301 1.41667C4.33301 1.18667 4.51967 1 4.74967 1H14.7497C14.8763 1 14.9963 1.0575 15.0755 1.15667C15.1547 1.255 15.1847 1.385 15.1563 1.50833L13.073 10.675C13.0297 10.8658 12.8605 11 12.6663 11Z" fill="black" stroke="black" stroke-width="0.3"/>
</svg>
