<svg width="20" height="20" viewBox="0 0 20 20" fill="none" xmlns="http://www.w3.org/2000/svg">
<path d="M6.66667 10V12.5C6.66667 12.9602 7.03937 13.3333 7.5 13.3333H10C10.223 13.3333 10.437 13.2438 10.5941 13.0843L19.2676 4.26802C19.7396 3.79557 20 3.16771 20 2.5C20 1.83229 19.7396 1.20443 19.2676 0.732448C18.2918 -0.2425 16.7065 -0.2425 15.7373 0.727552L6.91568 9.40594C6.7562 9.5626 6.66667 9.77661 6.66667 10ZM8.33333 10.3491L16.9108 1.91078C17.2364 1.58609 17.7637 1.58568 18.0892 1.9112C18.2471 2.06828 18.3333 2.27745 18.3333 2.5C18.3333 2.72255 18.2471 2.93172 18.0843 3.09406L9.65088 11.6667H8.33333V10.3491ZM20 9.16667V15.8333C20 18.1307 18.1307 20 15.8333 20H4.16667C1.86932 20 0 18.1307 0 15.8333V4.16667C0 1.86932 1.86932 0 4.16667 0H10.8333C11.294 0 11.6667 0.373125 11.6667 0.833333C11.6667 1.29354 11.294 1.66667 10.8333 1.66667H4.16667C2.78807 1.66667 1.66667 2.78807 1.66667 4.16667V15.8333C1.66667 17.2119 2.78807 18.3333 4.16667 18.3333H15.8333C17.2119 18.3333 18.3333 17.2119 18.3333 15.8333V9.16667C18.3333 8.70646 18.706 8.33333 19.1667 8.33333C19.6273 8.33333 20 8.70646 20 9.16667Z" fill="white"/>
</svg>
