<svg width="104" height="104" viewBox="0 0 104 104" fill="none" xmlns="http://www.w3.org/2000/svg">
<g clip-path="url(#clip0_3808_13594)">
<path d="M38.9116 73.262C41.1352 73.262 43.0032 71.394 43.0032 69.1704C43.0032 66.9468 41.1352 65.0789 38.9116 65.0789C36.688 65.0789 34.8201 66.9468 34.8201 69.1704C34.8201 71.394 36.688 73.262 38.9116 73.262Z" fill="white" stroke="white" stroke-width="0.52"/>
<path d="M12.1396 85.1152H10.5596V85.1151L10.55 85.1154C7.46002 85.2301 4.93531 87.7481 4.93531 90.8493H4.93513L4.93549 90.8589C5.05003 93.9507 7.45817 96.3588 10.55 96.4734L10.55 96.4736H10.5596H93.4312V96.4737L93.4409 96.4734C96.5308 96.3589 99.0555 93.8411 99.0555 90.7398C99.0555 87.6436 96.5338 85.1155 93.5405 85.1155H91.7205V70.1586C91.7205 58.7536 83.5139 48.9475 72.3292 46.9107C81.8601 40.2447 84.4111 27.0389 77.9938 17.2497C71.4554 7.27575 57.8274 4.50682 47.8553 11.1548C37.8868 17.8004 35.0023 31.2071 41.6526 41.1827L41.6541 41.185C43.1907 43.4389 45.0161 45.413 47.3066 47.0147C45.2399 47.369 43.2619 47.9906 41.3729 48.8796H14.7194C11.5062 48.8796 8.86215 51.6337 9.20584 54.9668C9.20589 54.9673 9.20595 54.9678 9.206 54.9684L11.833 83.8662L11.8342 83.8801L11.837 83.8937L11.8411 83.9146C11.9205 84.3113 12.0047 84.7323 12.1396 85.1152ZM65.4457 53.8244C65.3497 52.6756 64.8579 51.6114 64.2325 50.8228H68.0317C78.7261 50.9315 87.2601 59.573 87.3689 70.1597V85.006H80.3484C80.5189 84.5658 80.6797 84.0974 80.7696 83.5573C80.7696 83.5572 80.7696 83.5572 80.7696 83.5571L81.4257 79.7294C81.4258 79.7289 81.4259 79.7285 81.4259 79.728C81.6763 78.3462 80.546 77.2334 79.3089 77.2334H67.6133L65.4458 53.8255C65.4458 53.8251 65.4458 53.8248 65.4457 53.8244ZM13.5553 54.4803L13.5555 54.4803L13.5544 54.4716C13.5122 54.1346 13.6568 53.8289 13.8999 53.5975C14.1474 53.3618 14.4687 53.2313 14.7194 53.2313H59.9321C60.5481 53.2313 61.0011 53.661 61.0971 54.3156L63.9168 85.1157H18.1132C17.1502 85.1157 16.279 84.3396 16.1825 83.3804C16.1825 83.38 16.1824 83.3796 16.1824 83.3793L13.5553 54.4803ZM68.3814 85.006L68.0975 81.6944H76.6008L76.4251 82.9242C76.4249 82.9253 76.4248 82.9263 76.4246 82.9274C76.2257 84.1106 75.1338 85.006 73.9448 85.006H68.3814ZM42.4575 29.3249C42.4575 19.7232 50.1157 11.9597 59.7132 11.9597C69.3148 11.9597 77.0783 19.618 77.0783 29.2154C77.0783 38.817 69.4201 46.5806 59.8226 46.5806H59.8226H59.8226H59.8226H59.8225H59.8225H59.8225H59.8224H59.8224H59.8224H59.8223H59.8223H59.8222H59.8222H59.8222H59.8221H59.8221H59.8221H59.822H59.822H59.8219H59.8219H59.8219H59.8218H59.8218H59.8217H59.8217H59.8216H59.8216H59.8216H59.8215H59.8215H59.8214H59.8214H59.8214H59.8213H59.8213H59.8213H59.8212H59.8212H59.8212H59.8211H59.8211H59.8211H59.821H59.821H59.8209H59.8209H59.8209H59.8208H59.8208H59.8207H59.8207H59.8206H59.8206H59.8205H59.8205H59.8205H59.8204H59.8204H59.8203H59.8203H59.8202H59.8202H59.8201H59.8201H59.82H59.82H59.8199H59.8198H59.8198H59.8197H59.8197H59.8196H59.8195H59.8195H59.8194H59.8194H59.8193H59.8192H59.8192H59.8191H59.819H59.819H59.8189H59.8188H59.8188H59.8187H59.8186H59.8186H59.8185H59.8184H59.8183H59.8183H59.8182H59.8181H59.818H59.818H59.8179H59.8178H59.8177H59.8176H59.8176H59.8175H59.8174H59.8173H59.8172H59.8171H59.8171H59.817H59.8169H59.8168H59.8167H59.8166H59.8165H59.8164H59.8163H59.8162H59.8161H59.816H59.8159H59.8158H59.8157H59.8156H59.8155H59.8154H59.8153H59.8152H59.8151H59.815H59.8149H59.8148H59.8147H59.8145H59.8144H59.8143H59.8142H59.8141H59.814H59.8138H59.8137H59.8136H59.8135H59.8134H59.8132H59.8131H59.813H59.8129H59.8127H59.8126H59.8125H59.8123H59.8122H59.8121H59.8119H59.8118H59.8116H59.8115H59.8114H59.8112H59.8111H59.8109H59.8108H59.8106H59.8105H59.8104H59.8102H59.8101H59.8099H59.8097H59.8096H59.8094H59.8093H59.8091H59.809H59.8088H59.8086H59.8085H59.8083H59.8081H59.808H59.8078H59.8076H59.8075H59.8073H59.8071H59.8069H59.8068H59.8066H59.8064H59.8062H59.806H59.8059H59.8057H59.8055H59.8053H59.8051H59.8049H59.8047H59.8045H59.8044H59.8042H59.804H59.8038H59.8036H59.8034H59.8032H59.803H59.8027H59.8025H59.8023H59.8021H59.8019H59.8017H59.8015H59.8013H59.8011H59.8008H59.8006H59.8004H59.8002H59.8H59.7997H59.7995H59.7993H59.799H59.7988H59.7986H59.7983H59.7981H59.7979H59.7976H59.7974H59.7971H59.7969H59.7967H59.7964H59.7962H59.7959H59.7957H59.7954H59.7952H59.7949H59.7946H59.7944H59.7941H59.7939H59.7936H59.7933H59.7931H59.7928H59.7925H59.7923H59.792H59.7917H59.7914H59.7911H59.7909H59.7906H59.7903H59.79H59.7897H59.7894H59.7891H59.7889H59.7886H59.7883H59.788H59.7877H59.7874H59.7871H59.7868H59.7865H59.7861H59.7858H59.7855H59.7852H59.7849H59.7846H59.7843H59.7839H59.7836H59.7833H59.783H59.7826H59.7823H59.782H59.7817H59.7813H59.781H59.7807H59.7803H59.78H59.7796H59.7793H59.7789H59.7786H59.7782H59.7779H59.7775H59.7772H59.7768H59.7765H59.7761H59.7757H59.7754H59.775H59.7746H59.7743H59.7739H59.7735H59.7731H59.7728H59.7724H59.772H59.7716H59.7712H59.7708H59.7704H59.77H59.7696H59.7693H59.7689H59.7685H59.7681H59.7676H59.7672H59.7668H59.7664H59.766H59.7656H59.7652H59.7648H59.7643H59.7639H59.7635H59.7631H59.7626H59.7622H59.7618H59.7613H59.7609H59.7605H59.76H59.7596H59.7591H59.7587H59.7582H59.7578H59.7573H59.7569H59.7564H59.756H59.7555H59.755H59.7546H59.7541H59.7536H59.7532H59.7527H59.7522H59.7517H59.7512H59.7508H59.7503H59.7498H59.7493H59.7488H59.7483H59.7478H59.7473H59.7468H59.7463H59.7458H59.7453H59.7448H59.7443H59.7438H59.7432H59.7427H59.7422H59.7417H59.7411H59.7406H59.7401H59.7396H59.739H59.7385H59.7379H59.7374H59.7369H59.7363H59.7358H59.7352H59.7347H59.7341H59.7335H59.733H59.7324H59.7319H59.7313H59.7307H59.7301H59.7296H59.729H59.7284H59.7278H59.7273H59.7267H59.7261H59.7255H59.7249H59.7243H59.7237H59.7231H59.7225H59.7219H59.7213H59.7207H59.7201H59.7194H59.7188H59.7182H59.7176H59.717H59.7163H59.7157H59.7151H59.7144H59.7138H59.7132C50.2221 46.5808 42.4575 38.9236 42.4575 29.3249ZM93.5213 92.1218H10.5596C9.85021 92.1218 9.28708 91.4958 9.28708 90.7398C9.28708 90.0076 9.82744 89.4672 10.5596 89.4672H93.4312C94.1406 89.4672 94.7038 90.0932 94.7038 90.8493C94.7038 91.4604 94.1728 92.0202 93.5213 92.1218Z" fill="white" stroke="white" stroke-width="0.52"/>
</g>
<defs>
<clipPath id="clip0_3808_13594">
<rect width="93.6" height="93.6" fill="white" transform="translate(5.19727 5.20068)"/>
</clipPath>
</defs>
</svg>
