<svg width="158" height="158" viewBox="0 0 158 158" fill="none" xmlns="http://www.w3.org/2000/svg">
<g clip-path="url(#clip0_3799_13589)">
<path d="M59.1218 111.3C62.5 111.3 65.3378 108.462 65.3378 105.084C65.3378 101.706 62.5 98.8677 59.1218 98.8677C55.7436 98.8677 52.9058 101.706 52.9058 105.084C52.9058 108.462 55.7436 111.3 59.1218 111.3Z" fill="black" stroke="black" stroke-width="0.79"/>
<path d="M132.74 129.142V106.587C132.575 90.5034 119.61 77.3751 103.363 77.2097H97.5906C98.5405 78.4075 99.2876 80.0241 99.4336 81.7691C99.4337 81.7699 99.4338 81.7707 99.4338 81.7715L102.727 117.333H120.495C122.375 117.333 124.092 119.024 123.711 121.124C123.711 121.124 123.711 121.125 123.711 121.125L122.714 126.941C122.714 126.941 122.714 126.942 122.714 126.942M132.74 129.142H121.65C121.927 128.438 122.185 127.716 122.325 126.876L122.714 126.943L122.714 126.942M132.74 129.142H122.074C122.333 128.473 122.577 127.762 122.714 126.942M132.74 129.142L122.714 126.942M18.4495 129.308H16.049H16.0417L16.0344 129.308C11.34 129.482 7.50441 133.308 7.50441 138.019V138.026L7.50468 138.034C7.67869 142.731 11.3372 146.389 16.0344 146.563L16.0417 146.564H16.049H141.95H141.957L141.965 146.563C146.659 146.39 150.495 142.564 150.495 137.853C150.495 133.149 146.664 129.308 142.116 129.308H139.351V106.585C139.351 89.2583 126.883 74.3607 109.891 71.2663C124.371 61.139 128.246 41.0765 118.497 26.2044C108.564 11.0517 87.8598 6.84502 72.7098 16.9449C57.5654 27.0411 53.183 47.4088 63.2865 62.5642L63.2888 62.5676C65.6232 65.9918 68.3964 68.9909 71.8762 71.4244C68.7364 71.9626 65.7313 72.9069 62.8615 74.2575H22.3687C17.4871 74.2575 13.4702 78.4417 13.9923 83.5053C13.9924 83.5062 13.9925 83.507 13.9926 83.5078L17.9836 127.41L17.9855 127.431L17.9896 127.452L17.996 127.484C18.1165 128.086 18.2445 128.726 18.4495 129.308ZM20.6002 82.7663L20.6004 82.7663L20.5988 82.7531C20.5348 82.2411 20.7544 81.7767 21.1236 81.4251C21.4997 81.0669 21.9878 80.8688 22.3687 80.8688H91.0573C91.9931 80.8688 92.6813 81.5217 92.8271 82.5161L97.1109 129.308H27.5247C26.0616 129.308 24.7381 128.129 24.5915 126.672C24.5914 126.672 24.5914 126.671 24.5913 126.67L20.6002 82.7663ZM103.894 129.142L103.462 124.111H116.381L116.114 125.979C116.114 125.981 116.113 125.982 116.113 125.983C115.811 127.781 114.152 129.142 112.346 129.142H103.894ZM64.5092 44.5494C64.5092 29.9623 76.1439 18.1676 90.7246 18.1676C105.312 18.1676 117.106 29.8023 117.106 44.383C117.106 58.9701 105.472 70.7647 90.8909 70.7647H90.8909H90.8908H90.8908H90.8907H90.8906H90.8906H90.8905H90.8904H90.8904H90.8903H90.8902H90.8902H90.8901H90.89H90.8899H90.8899H90.8898H90.8897H90.8897H90.8896H90.8895H90.8894H90.8893H90.8892H90.8892H90.8891H90.889H90.8888H90.8887H90.8886H90.8886H90.8885H90.8884H90.8883H90.8883H90.8882H90.8882H90.8881H90.888H90.888H90.8879H90.8878H90.8877H90.8877H90.8876H90.8875H90.8875H90.8874H90.8873H90.8872H90.8872H90.8871H90.887H90.8869H90.8868H90.8868H90.8867H90.8866H90.8865H90.8864H90.8863H90.8862H90.8861H90.886H90.886H90.8859H90.8858H90.8857H90.8856H90.8855H90.8854H90.8853H90.8852H90.8851H90.885H90.8848H90.8847H90.8846H90.8845H90.8844H90.8843H90.8842H90.8841H90.8839H90.8838H90.8837H90.8836H90.8835H90.8833H90.8832H90.8831H90.883H90.8828H90.8827H90.8826H90.8824H90.8823H90.8822H90.882H90.8819H90.8817H90.8816H90.8815H90.8813H90.8812H90.881H90.8809H90.8807H90.8806H90.8804H90.8803H90.8801H90.8799H90.8798H90.8796H90.8795H90.8793H90.8791H90.879H90.8788H90.8786H90.8784H90.8783H90.8781H90.8779H90.8777H90.8776H90.8774H90.8772H90.877H90.8768H90.8766H90.8764H90.8763H90.8761H90.8759H90.8757H90.8755H90.8753H90.8751H90.8749H90.8746H90.8744H90.8742H90.874H90.8738H90.8736H90.8734H90.8732H90.8729H90.8727H90.8725H90.8723H90.872H90.8718H90.8716H90.8713H90.8711H90.8709H90.8706H90.8704H90.8701H90.8699H90.8697H90.8694H90.8692H90.8689H90.8686H90.8684H90.8681H90.8679H90.8676H90.8673H90.8671H90.8668H90.8665H90.8663H90.866H90.8657H90.8654H90.8652H90.8649H90.8646H90.8643H90.864H90.8637H90.8634H90.8631H90.8628H90.8625H90.8622H90.8619H90.8616H90.8613H90.861H90.8607H90.8604H90.8601H90.8598H90.8594H90.8591H90.8588H90.8585H90.8581H90.8578H90.8575H90.8571H90.8568H90.8565H90.8561H90.8558H90.8554H90.8551H90.8547H90.8544H90.854H90.8537H90.8533H90.8529H90.8526H90.8522H90.8518H90.8515H90.8511H90.8507H90.8503H90.8499H90.8496H90.8492H90.8488H90.8484H90.848H90.8476H90.8472H90.8468H90.8464H90.846H90.8456H90.8452H90.8448H90.8443H90.8439H90.8435H90.8431H90.8427H90.8422H90.8418H90.8414H90.8409H90.8405H90.84H90.8396H90.8391H90.8387H90.8382H90.8378H90.8373H90.8369H90.8364H90.836H90.8355H90.835H90.8345H90.8341H90.8336H90.8331H90.8326H90.8321H90.8316H90.8312H90.8307H90.8302H90.8297H90.8292H90.8287H90.8282H90.8276H90.8271H90.8266H90.8261H90.8256H90.8251H90.8245H90.824H90.8235H90.8229H90.8224H90.8218H90.8213H90.8208H90.8202H90.8197H90.8191H90.8185H90.818H90.8174H90.8168H90.8163H90.8157H90.8151H90.8146H90.814H90.8134H90.8128H90.8122H90.8116H90.811H90.8104H90.8098H90.8092H90.8086H90.808H90.8074H90.8068H90.8061H90.8055H90.8049H90.8043H90.8036H90.803H90.8024H90.8017H90.8011H90.8004H90.7998H90.7991H90.7985H90.7978H90.7971H90.7965H90.7958H90.7951H90.7944H90.7938H90.7931H90.7924H90.7917H90.791H90.7903H90.7896H90.7889H90.7882H90.7875H90.7868H90.7861H90.7854H90.7846H90.7839H90.7832H90.7825H90.7817H90.781H90.7802H90.7795H90.7787H90.778H90.7772H90.7765H90.7757H90.775H90.7742H90.7734H90.7726H90.7719H90.7711H90.7703H90.7695H90.7687H90.7679H90.7671H90.7663H90.7655H90.7647H90.7639H90.7631H90.7623H90.7614H90.7606H90.7598H90.7589H90.7581H90.7573H90.7564H90.7556H90.7547H90.7539H90.753H90.7521H90.7513H90.7504H90.7495H90.7487H90.7478H90.7469H90.746H90.7451H90.7442H90.7433H90.7424H90.7415H90.7406H90.7397H90.7388H90.7379H90.7369H90.736H90.7351H90.7341H90.7332H90.7323H90.7313H90.7304H90.7294H90.7285H90.7275H90.7265H90.7256H90.7246C76.3055 70.7651 64.5092 59.132 64.5092 44.5494ZM142.087 139.952H16.049C14.9713 139.952 14.1158 139.001 14.1158 137.853C14.1158 136.74 14.9367 135.919 16.049 135.919H141.95C143.028 135.919 143.883 136.87 143.883 138.019C143.883 138.948 143.077 139.798 142.087 139.952Z" fill="black" stroke="black" stroke-width="0.79"/>
</g>
<defs>
<clipPath id="clip0_3799_13589">
<rect width="142.2" height="142.2" fill="white" transform="translate(7.90039 7.8999)"/>
</clipPath>
</defs>
</svg>
