<svg width="24" height="24" viewBox="0 0 24 24" fill="none" xmlns="http://www.w3.org/2000/svg">
<path d="M14 16H20V18H14V16Z" fill="black"/>
<path d="M22 0H2C1.46976 0.000628541 0.961417 0.211544 0.586481 0.586481C0.211544 0.961417 0.000628541 1.46976 0 2L0 22C0.000628541 22.5302 0.211544 23.0386 0.586481 23.4135C0.961417 23.7885 1.46976 23.9994 2 24H22C22.5302 23.9994 23.0386 23.7885 23.4135 23.4135C23.7885 23.0386 23.9994 22.5302 24 22V2C23.9994 1.46976 23.7885 0.961417 23.4135 0.586481C23.0386 0.211544 22.5302 0.000628541 22 0V0ZM4 6H6V4H8V6H10V8H8V10H6V8H4V6ZM22 22H2L22 2V22Z" fill="black"/>
</svg>
