<svg width="31" height="31" viewBox="0 0 31 31" fill="none" xmlns="http://www.w3.org/2000/svg">
<path fill-rule="evenodd" clip-rule="evenodd" d="M0.861115 11.9772C1.3368 11.9772 1.72223 11.5918 1.72223 11.1161V6.71676C1.72223 3.96254 3.96251 1.72225 6.7167 1.72225H9.5508C10.0265 1.72225 10.4119 1.33681 10.4119 0.861123C10.4119 0.385439 10.0261 0 9.55046 0H6.7167C3.01321 0 0 3.01324 0 6.71676V11.1164C0 11.5918 0.385435 11.9772 0.861115 11.9772ZM8.84607 11.116C8.84607 10.6403 9.2315 10.2549 9.70718 10.2549C10.1829 10.2549 10.5683 10.6407 10.5683 11.116V13.6212C10.5683 14.0969 10.1829 14.4823 9.70718 14.4823C9.2315 14.4823 8.84607 14.0969 8.84607 13.6212V11.116ZM22.1541 13.6212C22.1541 14.0969 21.7687 14.4823 21.293 14.4823C20.8177 14.4823 20.4319 14.0969 20.4319 13.6212V11.116C20.4319 10.6403 20.8173 10.2549 21.293 10.2549C21.7687 10.2549 22.1541 10.6403 22.1541 11.116V13.6212ZM21.2757 20.8409C20.9392 20.5044 20.3943 20.5044 20.0581 20.8409C18.8408 22.0582 17.2219 22.7285 15.5004 22.7285C13.7785 22.7285 12.1599 22.0582 10.9427 20.8409C10.6065 20.5044 10.0609 20.5044 9.72505 20.8409C9.38853 21.1771 9.38853 21.7224 9.72505 22.0585C11.2678 23.6013 13.3187 24.4507 15.5007 24.4507C17.6824 24.4507 19.7336 23.601 21.2764 22.0585C21.6119 21.722 21.6119 21.1771 21.2757 20.8409ZM17.1438 16.3871C17.1438 17.9478 16.0953 18.9963 14.5346 18.9963C14.0589 18.9963 13.6735 18.6109 13.6735 18.1352C13.6735 17.6595 14.0589 17.2741 14.5346 17.2741C14.9476 17.2741 15.4215 17.1732 15.4215 16.3871V11.116C15.4215 10.6403 15.807 10.2549 16.2826 10.2549C16.7583 10.2549 17.1438 10.6403 17.1438 11.116V16.3871ZM6.7167 29.2777H9.55046C10.0261 29.2777 10.4119 29.6631 10.4119 30.1388C10.4119 30.6145 10.0265 30.9999 9.5508 30.9999H6.7167C3.01321 30.9999 0 27.987 0 24.2835V19.8842C0 19.4085 0.385435 19.0231 0.861115 19.0231C1.3368 19.0231 1.72223 19.4085 1.72223 19.8842V24.2835C1.72223 27.0374 3.96285 29.2777 6.7167 29.2777ZM24.2833 0H21.4492C20.9735 0 20.5881 0.385439 20.5881 0.861123C20.5881 1.33681 20.9735 1.72225 21.4492 1.72225H24.2833C27.0372 1.72225 29.2778 3.96254 29.2778 6.71676V11.1164C29.2778 11.5921 29.6632 11.9775 30.1389 11.9775C30.6146 11.9775 31 11.5921 31 11.1164V6.71676C31 3.01324 27.9868 0 24.2833 0ZM29.2777 19.8842C29.2777 19.4085 29.6631 19.0231 30.1388 19.0231C30.6145 19.0231 30.9999 19.4085 30.9999 19.8842V24.2835C30.9999 27.987 27.9867 30.9999 24.2832 30.9999H21.4491C20.9734 30.9999 20.588 30.6145 20.588 30.1388C20.588 29.6631 20.9734 29.2777 21.4491 29.2777H24.2832C27.0371 29.2777 29.2777 27.0374 29.2777 24.2835V19.8842Z" fill="#49AAE8"/>
</svg>
