<svg width="14" height="20" viewBox="0 0 14 20" fill="none" xmlns="http://www.w3.org/2000/svg">
<path d="M13.0303 0H0.909089C0.407029 0 0 0.407029 0 0.909089V19.0909C0 19.4403 0.200302 19.7589 0.515271 19.9103C0.83024 20.0616 1.20406 20.0191 1.47697 19.8007L6.96968 15.4066L12.4624 19.8007C12.6268 19.9323 12.8277 20 13.0304 20C13.1642 20 13.2989 19.9704 13.4241 19.9103C13.7391 19.7589 13.9394 19.4404 13.9394 19.0909V0.909089C13.9394 0.407029 13.5323 0 13.0303 0ZM12.1212 17.1994L7.53756 13.5325C7.37156 13.3997 7.17059 13.3333 6.96968 13.3333C6.76877 13.3333 6.5678 13.3997 6.4018 13.5325L1.81818 17.1994V1.81818H12.1212V17.1994Z" fill="white"/>
</svg>
