<svg width="18" height="16" viewBox="0 0 18 16" fill="none" xmlns="http://www.w3.org/2000/svg">
<path d="M9 16C8.74374 16 8.49669 15.9072 8.30415 15.7388C7.577 15.1035 6.87593 14.5065 6.2574 13.9799L6.25424 13.9772C4.44081 12.4332 2.87485 11.0998 1.78528 9.7863C0.567307 8.31791 0 6.92567 0 5.40473C0 3.92701 0.507156 2.56372 1.42795 1.56581C2.35973 0.556101 3.63826 0 5.02844 0C6.06747 0 7.01903 0.328199 7.8566 0.975406C8.2793 1.3021 8.66245 1.70192 9 2.16828C9.33769 1.70192 9.7207 1.3021 10.1435 0.975406C10.9811 0.328199 11.9327 0 12.9717 0C14.3617 0 15.6404 0.556101 16.5722 1.56581C17.493 2.56372 18 3.92701 18 5.40473C18 6.92567 17.4328 8.31791 16.2149 9.78616C15.1253 11.0998 13.5595 12.433 11.7463 13.9769C11.1267 14.5043 10.4245 15.1023 9.69571 15.739C9.50331 15.9072 9.25612 16 9 16Z" fill="#49AAE8"/>
</svg>
