<svg width="22" height="20" viewBox="0 0 22 20" fill="none" xmlns="http://www.w3.org/2000/svg">
<path d="M20.9421 1.34761C20.8421 1.13538 20.6285 1 20.3938 1H1.60619C1.37157 1 1.15804 1.13538 1.0579 1.34761C0.957847 1.55985 0.989205 1.81072 1.13848 1.99175L8.36073 10.7515V18.8287C8.36073 19.0384 8.46911 19.2332 8.64724 19.3438C8.74487 19.4043 8.85567 19.4349 8.96688 19.4349C9.05878 19.4349 9.15099 19.4139 9.23602 19.3718L13.2939 17.3606C13.5001 17.2584 13.6305 17.0484 13.6308 16.8183L13.6387 10.7517L20.8614 1.99167C21.0107 1.81072 21.0422 1.55977 20.9421 1.34761ZM12.5653 10.1481C12.476 10.2564 12.427 10.3924 12.4268 10.5329L12.4191 16.4412L9.57312 17.8517V10.5337C9.57312 10.393 9.52422 10.2567 9.43468 10.1481L2.89157 2.21223H19.1084L12.5653 10.1481Z" fill="black" stroke="black" stroke-width="0.2"/>
</svg>
