<svg width="20" height="19" viewBox="0 0 20 19" fill="none" xmlns="http://www.w3.org/2000/svg">
<path fill-rule="evenodd" clip-rule="evenodd" d="M9.3828 0.137497C9.34812 0.227792 9.33591 0.525845 9.35554 0.799927L9.39124 1.29809H10.0186H10.646V0.670249V0.0424071L10.0459 0.00781874C9.60512 -0.0175232 9.429 0.016951 9.3828 0.137497ZM0.431602 2.19259C0.280685 2.26805 0.124179 2.48642 0.0694249 2.69784C0.0163816 2.90274 -0.0124785 5.9641 0.00520261 9.50102C0.0403367 16.5323 0.0174082 16.3092 0.707998 16.3092C1.02455 16.3092 1.4538 15.9204 4.45833 12.9125C7.09635 10.2716 7.85127 9.45216 7.85127 9.23036C7.85127 9.00799 7.1008 8.19739 4.45764 5.56456C2.59121 3.70535 0.981541 2.15618 0.880702 2.12205C0.779977 2.0878 0.577842 2.11954 0.431602 2.19259ZM15.5789 5.55098C12.9499 8.18289 12.186 9.01164 12.186 9.23173C12.186 9.45182 12.9499 10.2806 15.5789 12.9125C18.5835 15.9204 19.0127 16.3092 19.3293 16.3092C20.0241 16.3092 19.9999 16.5645 19.9999 9.23173C19.9999 1.89899 20.0241 2.15424 19.3293 2.15424C19.0127 2.15424 18.5835 2.54304 15.5789 5.55098ZM9.3828 2.99132C9.34812 3.08162 9.33591 3.37967 9.35554 3.65375L9.39124 4.15192H10.0186H10.646V3.52408V2.89623L10.0459 2.86165C9.60512 2.8363 9.429 2.87078 9.3828 2.99132ZM3.82991 11.6001L1.46327 13.9684V9.23173V4.49506L3.82991 6.8634L6.19655 9.23173L3.82991 11.6001ZM9.3828 5.84515C9.34812 5.93545 9.33591 6.2335 9.35554 6.50758L9.39124 7.00574H10.0186H10.646V6.3779V5.75006L10.0459 5.71547C9.60512 5.69013 9.429 5.72461 9.3828 5.84515ZM9.3828 8.69898C9.34812 8.78927 9.33591 9.08733 9.35554 9.36141L9.39124 9.85957H10.0186H10.646V9.23173V8.60389L10.0459 8.5693C9.60512 8.54396 9.429 8.57843 9.3828 8.69898ZM9.3828 11.5528C9.34812 11.6431 9.33591 11.9412 9.35554 12.2152L9.39124 12.7134H10.0186H10.646V12.0856V11.4577L10.0459 11.4231C9.60512 11.3978 9.429 11.4323 9.3828 11.5528ZM9.3828 14.4066C9.34812 14.4969 9.33591 14.795 9.35554 15.0691L9.39124 15.5672H10.0186H10.646V14.9394V14.3115L10.0459 14.277C9.60512 14.2516 9.429 14.2861 9.3828 14.4066ZM9.3828 17.2605C9.34812 17.3508 9.33591 17.6488 9.35554 17.9229L9.39124 18.4211H10.0186H10.646V17.7932V17.1654L10.0459 17.1308C9.60512 17.1054 9.429 17.1399 9.3828 17.2605Z" fill="black"/>
</svg>
