<svg width="19" height="20" viewBox="0 0 19 20" fill="none" xmlns="http://www.w3.org/2000/svg">
<path fill-rule="evenodd" clip-rule="evenodd" d="M18.8625 9.3828C18.7722 9.34812 18.4742 9.33591 18.2001 9.35554L17.7019 9.39124V10.0186L17.7019 10.646H18.3298H18.9576L18.9922 10.0459C19.0175 9.60512 18.983 9.429 18.8625 9.3828ZM16.8074 0.431602C16.732 0.280685 16.5136 0.124179 16.3022 0.0694249C16.0973 0.0163816 13.0359 -0.0124785 9.49898 0.00520261C2.46772 0.0403367 2.69078 0.0174082 2.69078 0.707998C2.69078 1.02455 3.07958 1.4538 6.08752 4.45833C8.72845 7.09635 9.54784 7.85127 9.76964 7.85127C9.99201 7.85127 10.8026 7.1008 13.4354 4.45764C15.2946 2.59121 16.8438 0.981541 16.878 0.880702C16.9122 0.779977 16.8805 0.577842 16.8074 0.431602ZM13.449 15.5789C10.8171 12.9499 9.98836 12.186 9.76827 12.186C9.54818 12.186 8.71943 12.9499 6.08752 15.5789C3.07958 18.5835 2.69078 19.0127 2.69078 19.3293C2.69078 20.0241 2.43553 19.9999 9.76827 19.9999C17.101 19.9999 16.8458 20.0241 16.8458 19.3293C16.8458 19.0127 16.457 18.5835 13.449 15.5789ZM16.0087 9.3828C15.9184 9.34812 15.6203 9.33591 15.3462 9.35554L14.8481 9.39124V10.0186V10.646H15.4759H16.1038L16.1384 10.0459C16.1637 9.60512 16.1292 9.429 16.0087 9.3828ZM7.39994 3.82991L5.0316 1.46327L9.76827 1.46327L14.5049 1.46327L12.1366 3.82991L9.76827 6.19655L7.39994 3.82991ZM13.1548 9.3828C13.0646 9.34812 12.7665 9.33591 12.4924 9.35554L11.9943 9.39124V10.0186V10.646H12.6221H13.2499L13.2845 10.0459C13.3099 9.60512 13.2754 9.429 13.1548 9.3828ZM10.301 9.3828C10.2107 9.34812 9.91267 9.33591 9.63859 9.35554L9.14043 9.39124V10.0186V10.646H9.76827H10.3961L10.4307 10.0459C10.456 9.60512 10.4216 9.429 10.301 9.3828ZM7.4472 9.3828C7.3569 9.34812 7.05885 9.33591 6.78477 9.35554L6.2866 9.39124V10.0186V10.646H6.91444H7.54228L7.57687 10.0459C7.60222 9.60512 7.56774 9.429 7.4472 9.3828ZM4.59337 9.3828C4.50307 9.34812 4.20502 9.33591 3.93094 9.35554L3.43277 9.39124V10.0186V10.646H4.06062L4.68846 10.646L4.72305 10.0459C4.74839 9.60512 4.71391 9.429 4.59337 9.3828ZM1.73954 9.3828C1.64925 9.34812 1.35119 9.33591 1.07711 9.35554L0.578947 9.39124L0.578947 10.0186V10.646H1.20679H1.83463L1.86922 10.0459C1.89456 9.60512 1.86009 9.429 1.73954 9.3828Z" fill="black"/>
</svg>
