<svg width="25" height="25" viewBox="0 0 25 25" fill="none" xmlns="http://www.w3.org/2000/svg">
<g clip-path="url(#clip0_1026_11103)">
<path d="M16.596 0H3.01746C1.35333 0 0 1.35333 0 3.01746V12.0698C0 13.734 1.35333 15.0873 3.01746 15.0873V18.8591C3.01746 19.1533 3.18945 19.4219 3.4565 19.5441C3.55758 19.5908 3.6647 19.6135 3.77182 19.6135C3.94834 19.6135 4.12336 19.5516 4.26216 19.4309L9.33149 15.0873H16.596C18.2601 15.0873 19.6135 13.734 19.6135 12.0698V3.01746C19.6135 1.35333 18.2601 0 16.596 0ZM18.1047 12.0698C18.1047 12.9011 17.4273 13.5786 16.596 13.5786H9.05237C8.87283 13.5786 8.69782 13.6419 8.56204 13.7611L4.52619 17.2191V14.3329C4.52619 13.9165 4.18823 13.5786 3.77182 13.5786H3.01746C2.18615 13.5786 1.50873 12.9011 1.50873 12.0698V3.01746C1.50873 2.18615 2.18615 1.50873 3.01746 1.50873H16.596C17.4273 1.50873 18.1047 2.18615 18.1047 3.01746V12.0698Z" fill="white"/>
<path d="M22.1222 4.70263C21.7269 4.56684 21.2999 4.77505 21.1626 5.17033C21.0268 5.56411 21.235 5.99259 21.6303 6.12989C22.2278 6.33507 22.6306 6.90386 22.6306 7.54357V16.5959C22.6306 17.4272 21.9532 18.1047 21.1219 18.1047H20.3675C19.9511 18.1047 19.6131 18.4426 19.6131 18.859V21.7452L15.5773 18.2872C15.4415 18.168 15.2665 18.1047 15.087 18.1047H8.40329C7.98688 18.1047 7.64893 18.4426 7.64893 18.859C7.64893 19.2754 7.98537 19.6134 8.40329 19.6134H14.8078L19.8772 23.957C20.016 24.0777 20.191 24.1396 20.3675 24.1396C20.4746 24.1396 20.5817 24.117 20.6828 24.0702C20.9499 23.948 21.1219 23.6794 21.1219 23.3852V19.6134C22.786 19.6134 24.1393 18.2601 24.1393 16.5959V7.54357C24.1393 6.26115 23.3291 5.11904 22.1222 4.70263Z" fill="white"/>
<path d="M14.3331 4.52625H5.28073C4.86432 4.52625 4.52637 4.8642 4.52637 5.28061C4.52637 5.69702 4.86432 6.03497 5.28073 6.03497H14.3331C14.7495 6.03497 15.0875 5.69702 15.0875 5.28061C15.0875 4.8642 14.7495 4.52625 14.3331 4.52625Z" fill="white"/>
<path d="M11.3156 7.5437H5.28073C4.86432 7.5437 4.52637 7.88166 4.52637 8.29807C4.52637 8.71447 4.86432 9.05243 5.28073 9.05243H11.3156C11.7321 9.05243 12.07 8.71447 12.07 8.29807C12.07 7.88166 11.7321 7.5437 11.3156 7.5437Z" fill="white"/>
</g>
<defs>
<clipPath id="clip0_1026_11103">
<rect width="24.1397" height="24.1397" fill="white"/>
</clipPath>
</defs>
</svg>
