<svg width="29" height="29" viewBox="0 0 29 29" fill="none" xmlns="http://www.w3.org/2000/svg">
<path d="M24.7531 4.24697C22.0143 1.50828 18.3731 0 14.5 0C10.6269 0 6.98566 1.50828 4.24691 4.24697C1.50828 6.98566 0 10.6269 0 14.5C0 18.3731 1.50828 22.0143 4.24691 24.753C6.98566 27.4917 10.6269 29 14.5 29C18.3731 29 22.0143 27.4917 24.7531 24.753C27.4917 22.0143 29 18.3731 29 14.5C29 10.6269 27.4917 6.98566 24.7531 4.24697ZM14.5 27.3008C10.7125 27.3008 7.30454 25.6468 4.95877 23.0238C6.41302 19.1684 10.1357 16.4258 14.5 16.4258C11.6846 16.4258 9.40234 14.1435 9.40234 11.3281C9.40234 8.51275 11.6846 6.23047 14.5 6.23047C17.3154 6.23047 19.5977 8.51275 19.5977 11.3281C19.5977 14.1435 17.3154 16.4258 14.5 16.4258C18.8643 16.4258 22.587 19.1684 24.0412 23.0238C21.6955 25.6468 18.2875 27.3008 14.5 27.3008Z" fill="#3486BB"/>
</svg>
