<svg width="24" height="24" viewBox="0 0 24 24" fill="none" xmlns="http://www.w3.org/2000/svg">
<path d="M12 0C5.37258 0 0 5.37258 0 12C0 18.6274 5.37258 24 12 24C18.6274 24 24 18.6274 24 12C23.9925 5.37569 18.6243 0.00749482 12 0ZM12 23.2C5.81441 23.2 0.8 18.1856 0.8 12C0.8 5.81441 5.81441 0.8 12 0.8C18.1856 0.8 23.2 5.81441 23.2 12C23.1929 18.1827 18.1827 23.1929 12 23.2Z" fill="black"/>
<path d="M12.0001 1.59961C11.0119 1.59893 10.0287 1.739 9.08008 2.01561C8.86801 2.07758 8.74632 2.29973 8.80828 2.51181C8.87025 2.72389 9.09241 2.84558 9.30448 2.78361C10.0519 2.56768 10.8227 2.44344 11.6001 2.41361V21.5896C7.29182 21.4104 3.63166 18.3806 2.6508 14.1816C1.66994 9.9827 3.60908 5.64494 7.39208 3.57561C7.52299 3.51005 7.60763 3.3782 7.61272 3.23188C7.61782 3.08556 7.54256 2.94815 7.41653 2.87363C7.2905 2.79912 7.13383 2.79942 7.00808 2.87441C2.4075 5.38936 0.397674 10.9351 2.31881 15.8136C4.23996 20.6921 9.49151 23.3783 14.5716 22.081C19.6517 20.7837 22.9723 15.9084 22.3191 10.7061C21.666 5.50384 17.2432 1.60078 12.0001 1.59961ZM21.3753 14.0588L14.0593 21.3748C13.5135 21.4946 12.9583 21.5664 12.4001 21.5896V21.3652L21.5957 12.1696C21.5851 12.8051 21.5113 13.438 21.3753 14.0588ZM12.4001 4.56521L14.2881 2.67721C14.718 2.78297 15.1399 2.91863 15.5509 3.08321L12.4001 6.23401V4.56521ZM12.4001 3.43401V2.40961C12.7172 2.42268 13.0301 2.45108 13.3389 2.49481L12.4001 3.43401ZM12.4001 7.36521L16.3297 3.43561C16.6927 3.61906 17.0437 3.82548 17.3805 4.05361L12.4001 9.03401V7.36521ZM21.5549 11.0796L12.4001 20.234V18.5652L21.3093 9.65601C21.4271 10.1236 21.5092 10.5995 21.5549 11.0796ZM12.4001 17.434V15.7652L20.5409 7.62441C20.7347 8.00084 20.9033 8.3897 21.0457 8.78841L12.4001 17.434ZM12.4001 14.634V12.9652L19.4333 5.93241C19.6855 6.24152 19.9182 6.56601 20.1301 6.90401L12.4001 14.634ZM18.8997 5.33441L12.4001 11.834V10.1652L18.0289 4.53641C18.3351 4.78443 18.6259 5.05093 18.8997 5.33441ZM15.7137 20.8516L20.8521 15.7132C19.8739 18.0299 18.0303 19.8734 15.7137 20.8516Z" fill="black"/>
</svg>
