<svg width="89" height="87" viewBox="0 0 89 87" fill="none" xmlns="http://www.w3.org/2000/svg">
<g filter="url(#filter0_ddd_3931_13736)">
<ellipse cx="47.9989" cy="48" rx="24.9989" ry="25" fill="#49AAE8"/>
</g>
<path d="M59.5857 47.4115L41.0147 39.1578C40.719 39.0285 40.3662 39.1056 40.1605 39.3504C39.9533 39.5953 39.9462 39.9433 40.1433 40.195L46.2503 48.036L40.1433 55.8769C39.9462 56.1287 39.9533 56.4781 40.159 56.7216C40.2976 56.888 40.5048 56.9774 40.7147 56.9774C40.8162 56.9774 40.9176 56.9568 41.0133 56.9142L59.5843 48.6605C59.8386 48.5477 60 48.3042 60 48.036C60 47.7678 59.8386 47.5243 59.5857 47.4115Z" fill="white"/>
<defs>
<filter id="filter0_ddd_3931_13736" x="0.893296" y="0.893296" width="99.9784" height="99.9804" filterUnits="userSpaceOnUse" color-interpolation-filters="sRGB">
<feFlood flood-opacity="0" result="BackgroundImageFix"/>
<feColorMatrix in="SourceAlpha" type="matrix" values="0 0 0 0 0 0 0 0 0 0 0 0 0 0 0 0 0 0 127 0" result="hardAlpha"/>
<feOffset dx="3.84464" dy="5.76697"/>
<feGaussianBlur stdDeviation="4.80581"/>
<feColorMatrix type="matrix" values="0 0 0 0 0.164706 0 0 0 0 0.545098 0 0 0 0 0.94902 0 0 0 0.15 0"/>
<feBlend mode="normal" in2="BackgroundImageFix" result="effect1_dropShadow_3931_13736"/>
<feColorMatrix in="SourceAlpha" type="matrix" values="0 0 0 0 0 0 0 0 0 0 0 0 0 0 0 0 0 0 127 0" result="hardAlpha"/>
<feOffset dx="1.92232" dy="1.92232"/>
<feGaussianBlur stdDeviation="12.0145"/>
<feColorMatrix type="matrix" values="0 0 0 0 0.164706 0 0 0 0 0.545098 0 0 0 0 0.94902 0 0 0 0.05 0"/>
<feBlend mode="normal" in2="effect1_dropShadow_3931_13736" result="effect2_dropShadow_3931_13736"/>
<feColorMatrix in="SourceAlpha" type="matrix" values="0 0 0 0 0 0 0 0 0 0 0 0 0 0 0 0 0 0 127 0" result="hardAlpha"/>
<feOffset dx="3.84464" dy="3.84464"/>
<feGaussianBlur stdDeviation="12.0145"/>
<feColorMatrix type="matrix" values="0 0 0 0 0.164706 0 0 0 0 0.545098 0 0 0 0 0.94902 0 0 0 0.15 0"/>
<feBlend mode="normal" in2="effect2_dropShadow_3931_13736" result="effect3_dropShadow_3931_13736"/>
<feBlend mode="normal" in="SourceGraphic" in2="effect3_dropShadow_3931_13736" result="shape"/>
</filter>
</defs>
</svg>
