<svg width="42" height="42" viewBox="0 0 42 42" fill="none" xmlns="http://www.w3.org/2000/svg">
<circle cx="21" cy="21" r="21" fill="white"/>
<path d="M22.1037 16.0528C22.6446 16.0528 23.7844 16.4085 23.7844 16.4085C24.1128 15.6772 25.9095 14.6692 26.605 14.9262C27.0686 15.1634 27.1111 15.4401 26.7016 16.0923C26.5277 16.369 26.4697 16.8434 26.4697 16.8434C26.4118 17.3177 26.4891 17.8277 26.605 17.9107C27.2927 18.5708 28.6759 20.2469 28.8459 21.2904C28.8459 21.2904 29.4641 21.2904 29.6573 21.2904C29.7192 21.2904 29.8042 21.3062 29.8969 21.326C30.1596 21.3853 30.3335 21.6343 30.3335 21.911V24.4528C30.3335 24.607 30.2794 24.7532 30.1712 24.856C30.0321 24.9864 29.8273 25.1485 29.6573 25.1604C29.3676 25.1801 28.9232 25.1604 28.9232 25.1604C28.4789 26.3858 26.9141 28.4216 26.2186 29.0936C25.9906 29.394 25.894 29.6154 25.7781 30.1016V31.3072C25.7781 31.5049 25.6236 31.663 25.4304 31.663H22.3548C22.1616 31.663 22.0071 31.5049 22.0071 31.3072V30.5799H19.6888V31.4298C19.6888 31.5839 19.569 31.7065 19.4184 31.7065H16.3776C16.1728 31.7065 16.0144 31.5286 16.0067 31.3191C15.9835 30.5206 15.7323 29.2398 14.8205 28.3069C14.4727 27.9512 13.9705 27.2199 13.6227 26.4688C13.0779 25.2908 12.6568 24.4528 12.9079 22.2589" stroke="url(#paint0_linear_1138_13516)" stroke-width="1.07816" stroke-linecap="round" stroke-linejoin="round"/>
<path d="M16.3658 20.8556C18.297 20.8556 19.8626 19.254 19.8626 17.2782C19.8626 15.3025 18.297 13.7008 16.3658 13.7008C14.4347 13.7008 12.8691 15.3025 12.8691 17.2782C12.8691 19.254 14.4347 20.8556 16.3658 20.8556Z" stroke="url(#paint1_linear_1138_13516)" stroke-width="1.07816"/>
<path d="M20.9249 12.8706C22.1946 12.8706 23.2239 11.8176 23.2239 10.5186C23.2239 9.21965 22.1946 8.16663 20.9249 8.16663C19.6552 8.16663 18.626 9.21965 18.626 10.5186C18.626 11.8176 19.6552 12.8706 20.9249 12.8706Z" stroke="url(#paint2_linear_1138_13516)" stroke-width="1.07816"/>
<defs>
<linearGradient id="paint0_linear_1138_13516" x1="21.5835" y1="13.876" x2="16.927" y2="30.3937" gradientUnits="userSpaceOnUse">
<stop stop-color="#FF4C71"/>
<stop offset="0.25" stop-color="#FF3C60"/>
<stop offset="0.26" stop-color="#FF3A5F"/>
<stop offset="0.39" stop-color="#FF2D58"/>
<stop offset="0.5" stop-color="#FF2955"/>
<stop offset="0.75" stop-color="#FF0F49"/>
<stop offset="1" stop-color="#FF0038"/>
</linearGradient>
<linearGradient id="paint1_linear_1138_13516" x1="16.3658" y1="13.2715" x2="14.2781" y2="20.2292" gradientUnits="userSpaceOnUse">
<stop stop-color="#FF4C71"/>
<stop offset="0.25" stop-color="#FF3C60"/>
<stop offset="0.26" stop-color="#FF3A5F"/>
<stop offset="0.39" stop-color="#FF2D58"/>
<stop offset="0.5" stop-color="#FF2955"/>
<stop offset="0.75" stop-color="#FF0F49"/>
<stop offset="1" stop-color="#FF0038"/>
</linearGradient>
<linearGradient id="paint2_linear_1138_13516" x1="20.9249" y1="7.88439" x2="19.5523" y2="12.4588" gradientUnits="userSpaceOnUse">
<stop stop-color="#FF4C71"/>
<stop offset="0.25" stop-color="#FF3C60"/>
<stop offset="0.26" stop-color="#FF3A5F"/>
<stop offset="0.39" stop-color="#FF2D58"/>
<stop offset="0.5" stop-color="#FF2955"/>
<stop offset="0.75" stop-color="#FF0F49"/>
<stop offset="1" stop-color="#FF0038"/>
</linearGradient>
</defs>
</svg>
