<svg width="16" height="16" viewBox="0 0 16 16" fill="none" xmlns="http://www.w3.org/2000/svg">
<g clip-path="url(#clip0_1101_11732)">
<path d="M7.72928 15.0832H3.5561C2.42197 15.0832 1.50177 14.1596 1.50177 13.0289V2.97114C1.50177 1.83701 2.42537 0.916808 3.5561 0.916808H7.79719C8.05186 0.916808 8.2556 0.713073 8.2556 0.458404C8.2556 0.203735 8.05186 0 7.79719 0H3.5561C1.91603 0 0.584961 1.33447 0.584961 2.97114V13.0289C0.584961 14.6689 1.91943 16 3.5561 16H7.72928C7.98395 16 8.18769 15.7963 8.18769 15.5416C8.18769 15.2869 7.98055 15.0832 7.72928 15.0832Z" fill="white" stroke="white" stroke-width="0.5"/>
<path d="M15.2802 7.67742L12.3668 4.764C12.1869 4.58404 11.8982 4.58404 11.7183 4.764C11.5383 4.94397 11.5383 5.23259 11.7183 5.41256L13.8507 7.54499H4.5502C4.29553 7.54499 4.0918 7.74873 4.0918 8.00339C4.0918 8.25806 4.29553 8.4618 4.5502 8.4618H13.8507L11.7183 10.5942C11.5383 10.7742 11.5383 11.0628 11.7183 11.2428C11.8066 11.3311 11.9254 11.3786 12.0409 11.3786C12.1563 11.3786 12.2752 11.3345 12.3634 11.2428L15.2769 8.32937C15.4602 8.14601 15.4602 7.85399 15.2802 7.67742Z" fill="white" stroke="white" stroke-width="0.5"/>
</g>
<defs>
<clipPath id="clip0_1101_11732">
<rect width="16" height="16" fill="white"/>
</clipPath>
</defs>
</svg>
