<svg width="22" height="19" viewBox="0 0 22 19" fill="none" xmlns="http://www.w3.org/2000/svg">
<path fill-rule="evenodd" clip-rule="evenodd" d="M2.61824 1.05345C1.87489 1.23359 1.23986 1.86736 1.06672 2.602C0.977761 2.9793 0.977761 14.0104 1.06672 14.3877C1.20308 14.9662 1.64379 15.5138 2.17807 15.7686C2.33915 15.8454 2.57637 15.9281 2.70524 15.9523C2.8687 15.983 3.7445 15.9928 5.60155 15.9846L8.26356 15.9729L8.36372 15.8788C8.50067 15.7501 8.53441 15.5471 8.44612 15.3832C8.40816 15.3127 8.34857 15.2408 8.3137 15.2235C8.27883 15.2061 7.02862 15.1831 5.53544 15.1723L2.82059 15.1528L2.56126 15.0251C2.26413 14.8788 2.09267 14.7022 1.94771 14.3932L1.84615 14.1766V13.0051V11.8336L4.67724 11.8141C7.72921 11.793 7.6242 11.8008 7.72034 11.5898C7.8057 11.4025 7.75517 11.1957 7.59163 11.0632C7.51447 11.0007 7.30122 10.9957 4.68701 10.9949L1.86567 10.994V8.49365V5.99327L4.72606 6.00424L7.58644 6.01521L7.83249 6.14865C8.10783 6.29793 8.22689 6.4218 8.37583 6.71393C8.46556 6.89 8.48029 6.97622 8.50141 7.45025C8.52414 7.95969 8.5305 7.9923 8.6259 8.08773C8.68838 8.15017 8.78753 8.19649 8.88753 8.20992C9.03315 8.22944 9.06185 8.21828 9.18638 8.09375L9.32415 7.95598V7.45263C9.32415 6.88555 9.2694 6.61158 9.08821 6.2722C8.85165 5.82914 8.46057 5.48511 7.96663 5.28561L7.74264 5.19517L4.79439 5.17565L1.84615 5.15612V3.98463V2.81314L1.94771 2.59658C2.09271 2.2875 2.26417 2.11092 2.56134 1.96464L2.82075 1.8369H11.0025H19.1842L19.4007 1.93847C19.7097 2.08342 19.8864 2.25489 20.0327 2.55198L20.1604 2.81135L20.1799 5.12188C20.1984 7.3092 20.2034 7.4367 20.2725 7.51308C20.3923 7.64534 20.5791 7.68857 20.7402 7.62125C21.007 7.50976 21 7.57814 21 5.10141C21 3.63811 20.9853 2.80467 20.9571 2.66862C20.8386 2.09596 20.3831 1.49186 19.8772 1.23652C19.3747 0.98285 19.956 0.998236 10.9838 1.00124C4.53811 1.00339 2.77947 1.01436 2.61824 1.05345ZM4.83344 6.86892C4.50648 6.93995 4.25129 7.08127 4.00231 7.32919C3.34753 7.98117 3.34753 9.00766 4.00231 9.661C4.64885 10.3061 5.63993 10.3241 6.29702 9.70267C6.65804 9.36126 6.82497 8.97931 6.82497 8.49486C6.82497 8.01362 6.6578 7.62824 6.30382 7.29346C6.05019 7.05358 5.84166 6.94389 5.50291 6.87208C5.19715 6.80726 5.11897 6.8069 4.83344 6.86892ZM5.52813 7.74933C6.06819 8.02713 6.16632 8.71557 5.72155 9.10611C5.18657 9.5758 4.34474 9.20108 4.34845 8.49486C4.35024 8.15392 4.53397 7.86702 4.83372 7.73703C5.02717 7.65315 5.35233 7.65893 5.52813 7.74933ZM14.713 7.72992C12.3428 8.15138 10.5536 9.99292 10.2192 12.3552C10.1604 12.7712 10.1925 13.765 10.2775 14.1571C10.502 15.192 10.9761 16.0778 11.7087 16.8308C12.4956 17.6396 13.3938 18.1374 14.5094 18.383C15.0747 18.5075 16.0978 18.5065 16.6608 18.3809C17.7753 18.1323 18.6208 17.6732 19.4012 16.8928C20.1816 16.1124 20.6408 15.2668 20.8894 14.1524C21.0149 13.5894 21.0159 12.5663 20.8915 12.001C20.7738 11.4668 20.6339 11.0765 20.393 10.6113C20.1048 10.0545 19.806 9.65444 19.3392 9.2003C18.5933 8.47456 17.7188 8.0037 16.685 7.77104C16.3064 7.68583 15.1021 7.66072 14.713 7.72992ZM16.5874 8.60717C17.1517 8.73596 17.6097 8.9323 18.1298 9.26851C18.5175 9.51906 19.2141 10.2377 19.4685 10.6494C20.9193 12.9977 20.0121 16.0398 17.507 17.2265C16.0563 17.9137 14.3671 17.7694 12.9753 16.8393C12.6529 16.6238 11.9926 15.9522 11.7773 15.6207C10.8784 14.2368 10.7591 12.5866 11.452 11.1216C12.0949 9.76218 13.3776 8.79551 14.8608 8.5527C15.3104 8.47909 16.1408 8.50529 16.5874 8.60717ZM15.37 9.80912C15.224 9.9028 15.1816 10.0194 15.1816 10.3277V10.5948L15.0547 10.6191C14.6657 10.6933 14.254 11.0218 14.0647 11.4088C13.8516 11.8443 13.8992 12.4461 14.1791 12.854C14.4755 13.2861 14.9224 13.4932 15.5582 13.4932C15.8477 13.4932 15.959 13.5097 16.0773 13.5701C16.5152 13.7935 16.5152 14.4425 16.0773 14.6659C15.9412 14.7354 15.8451 14.7428 15.0818 14.7428C14.3636 14.7428 14.2204 14.7526 14.1269 14.8078C13.9141 14.9335 13.864 15.245 14.0261 15.4337C14.1186 15.5414 14.1292 15.5437 14.6411 15.5628L15.1621 15.5824L15.1816 15.8811C15.2034 16.2152 15.2602 16.3122 15.4758 16.3834C15.5761 16.4164 15.6347 16.4131 15.7419 16.3684C15.9268 16.2911 16.0016 16.1336 16.0016 15.8214V15.5684L16.2115 15.5074C16.8023 15.3356 17.2512 14.7355 17.2512 14.1174C17.2512 13.7141 17.0216 13.2367 16.7085 12.9887C16.4221 12.7619 16.225 12.7011 15.6858 12.6735C15.1154 12.6443 14.9617 12.5796 14.8246 12.3109C14.6775 12.0225 14.7707 11.7111 15.064 11.5114C15.188 11.4271 15.2265 11.4236 16.0282 11.4236C16.6615 11.4236 16.8953 11.4102 16.9961 11.3681C17.1334 11.3107 17.2512 11.138 17.2512 10.994C17.2512 10.8501 17.1334 10.6774 16.9961 10.62C16.9088 10.5835 16.717 10.5645 16.4367 10.5645H16.0102L15.9954 10.2717C15.9827 10.02 15.9665 9.96492 15.8799 9.87835C15.7499 9.74836 15.5146 9.71641 15.37 9.80912Z" fill="black" stroke="black" stroke-width="0.3"/>
</svg>
