<svg width="18" height="18" viewBox="0 0 18 18" fill="none" xmlns="http://www.w3.org/2000/svg">
<path fill-rule="evenodd" clip-rule="evenodd" d="M9.60587 16.9831C11.3977 16.8154 12.9335 16.1756 14.234 15.0551C15.7053 13.7875 16.626 12.1073 16.9379 10.121C17.0207 9.59386 17.0207 8.39166 16.9379 7.8645C16.6902 6.28681 16.0708 4.93018 15.0624 3.75679C13.788 2.27384 12.0055 1.3168 10.0065 1.04223C9.59519 0.985743 8.41237 0.985975 8.00354 1.04263C7.02702 1.17793 6.071 1.48015 5.2684 1.90729C1.55673 3.88264 0.00179863 8.31718 1.66315 12.1892C2.91804 15.1139 5.88456 17.04 9.07176 16.9994C9.30126 16.9965 9.54161 16.9891 9.60587 16.9831ZM8.33255 15.9017C5.90639 15.6576 3.78166 14.1669 2.74339 11.9806C1.82792 10.0528 1.84024 7.85552 2.7772 5.93819C4.2152 2.99555 7.53192 1.46102 10.7118 2.26713C11.6582 2.50702 12.6087 2.98076 13.3602 3.58707C14.7986 4.74754 15.7274 6.46925 15.9137 8.32028C16.0923 10.0961 15.5379 11.9506 14.4105 13.3482C12.9485 15.1604 10.6331 16.1332 8.33255 15.9017ZM9.22198 13.2179C9.27706 13.193 9.84305 12.649 10.4797 12.0091C11.7309 10.7515 11.716 10.771 11.6598 10.4716C11.629 10.3073 11.4293 10.1076 11.265 10.0768C10.9804 10.0234 10.9429 10.0482 10.2156 10.7715L9.54011 11.4433L9.53126 8.25085C9.52249 5.08548 9.52185 5.05764 9.45359 4.96623C9.32279 4.79104 9.21611 4.73639 9.005 4.73639C8.79389 4.73639 8.6872 4.79104 8.55641 4.96623C8.48815 5.05764 8.48751 5.08548 8.47873 8.25085L8.46989 11.4433L7.7944 10.7715C7.06708 10.0482 7.02962 10.0234 6.74501 10.0768C6.5807 10.1076 6.38101 10.3073 6.3502 10.4716C6.29402 10.7709 6.2791 10.7515 7.53025 12.0091C8.17669 12.6589 8.73531 13.1932 8.79529 13.2192C8.92942 13.2774 9.09163 13.2769 9.22198 13.2179Z" fill="white" stroke="white" stroke-width="0.3"/>
</svg>
