<svg width="16" height="20" viewBox="0 0 16 20" fill="none" xmlns="http://www.w3.org/2000/svg">
<path fill-rule="evenodd" clip-rule="evenodd" d="M5.84075 0.024816C5.14123 0.12155 4.32896 0.571542 3.89522 1.10264C3.60959 1.45242 3.38893 1.87417 3.23715 2.36053C3.20296 2.47008 3.1819 3.01911 3.1667 4.19676L3.14502 5.87671L1.88877 5.88702L0.63256 5.89729L0.607673 6.29724C0.569933 6.90366 0 19.5662 0 19.7979V20H7.65744H15.3149V19.7979C15.3149 19.5662 14.745 6.9037 14.7072 6.29728L14.6824 5.89737L13.5238 5.88706L12.3652 5.87671L12.3435 4.19676C12.3283 3.01911 12.3073 2.47008 12.2731 2.36053C11.9709 1.39206 11.423 0.723753 10.6071 0.328418C10.1427 0.103383 9.87955 0.0375915 9.3295 0.00918859C8.78996 -0.0187064 8.39826 0.0341534 7.9589 0.194178L7.65479 0.304938L7.3924 0.205938C6.92084 0.0280587 6.32235 -0.0417959 5.84075 0.024816ZM9.66784 1.18969C10.3453 1.36616 10.9083 1.92085 11.1113 2.61182C11.1637 2.79021 11.1736 3.06865 11.1736 4.36088V5.89772L10.3043 5.88721L9.43506 5.87671L9.41323 4.21629C9.39283 2.66718 9.3858 2.53814 9.30836 2.29154C9.19835 1.94121 9.06505 1.65523 8.89217 1.39878C8.75125 1.18972 8.7509 1.18832 8.83876 1.16308C9.00363 1.11569 9.43717 1.1296 9.66784 1.18969ZM6.52445 1.21074C6.52445 1.23372 6.4705 1.33096 6.40451 1.42683C6.25394 1.64573 6.11357 1.9507 6.00652 2.29154C5.92909 2.53814 5.92206 2.66718 5.90166 4.21629L5.87982 5.87671L5.10822 5.88729L4.33661 5.89788V4.36096C4.33661 2.7066 4.344 2.63366 4.55376 2.21949C4.74371 1.84432 5.19472 1.44531 5.58849 1.30404C5.93698 1.17902 6.52445 1.12046 6.52445 1.21074ZM7.80915 1.90546C7.97116 2.11002 8.11185 2.39905 8.1837 2.67484C8.2323 2.86155 8.24347 3.18347 8.24347 4.4003V5.89624H7.65744H7.07141V4.4003C7.07141 2.78505 7.08427 2.65773 7.28875 2.25063C7.3958 2.03755 7.60599 1.75497 7.65744 1.75497C7.67534 1.75497 7.74359 1.82271 7.80915 1.90546ZM3.15491 12.9384L3.14502 18.8084L2.17339 18.8189L1.20175 18.8293L1.22617 18.4673C1.23965 18.2681 1.35642 15.7142 1.48574 12.7918C1.61506 9.86952 1.73047 7.3862 1.74226 7.27341L1.76371 7.0683H2.46425H3.16479L3.15491 12.9384ZM5.89936 7.65433V8.24035H6.48539H7.07141V7.65433V7.0683H9.12252H11.1736V7.65433V8.24035H11.7596H12.3457V7.65433V7.0683H12.9484H13.5512L13.5726 7.27341C13.5844 7.3862 13.6998 9.86952 13.8291 12.7918C13.9585 15.7142 14.0752 18.2678 14.0886 18.4666L14.1131 18.8279H9.22484H4.33661V12.9481V7.0683H5.11799H5.89936V7.65433Z" fill="black"/>
</svg>
