<svg width="18" height="17" viewBox="0 0 18 17" fill="none" xmlns="http://www.w3.org/2000/svg">
<path d="M8.97821 16.9575C8.72258 16.9575 8.47612 16.8649 8.28405 16.6966C7.55865 16.0623 6.85929 15.4663 6.24225 14.9405L6.2391 14.9377C4.43006 13.3961 2.86789 12.0648 1.78096 10.7533C0.565933 9.28716 0 7.89705 0 6.37844C0 4.90298 0.505929 3.54178 1.42449 2.5454C2.35401 1.53724 3.62945 0.981995 5.01627 0.981995C6.05279 0.981995 7.00204 1.30969 7.83758 1.95591C8.25925 2.2821 8.64148 2.6813 8.97821 3.14696C9.31509 2.6813 9.69717 2.2821 10.119 1.95591C10.9545 1.30969 11.9038 0.981995 12.9403 0.981995C14.327 0.981995 15.6025 1.53724 16.5321 2.5454C17.4506 3.54178 17.9564 4.90298 17.9564 6.37844C17.9564 7.89705 17.3906 9.28716 16.1756 10.7532C15.0887 12.0648 13.5266 13.396 11.7179 14.9375C11.0997 15.4641 10.3993 16.0611 9.67224 16.6969C9.48031 16.8649 9.23371 16.9575 8.97821 16.9575ZM5.01627 2.03386C3.92674 2.03386 2.92584 2.46869 2.1977 3.25834C1.45874 4.0599 1.05172 5.16794 1.05172 6.37844C1.05172 7.65566 1.52642 8.79794 2.59074 10.0822C3.61945 11.3235 5.14957 12.6274 6.92121 14.1373L6.9245 14.14C7.54386 14.6679 8.24597 15.2663 8.97671 15.9052C9.71183 15.265 10.415 14.6657 11.0356 14.137C12.8071 12.6271 14.3371 11.3235 15.3658 10.0822C16.43 8.79794 16.9047 7.65566 16.9047 6.37844C16.9047 5.16794 16.4977 4.0599 15.7587 3.25834C15.0307 2.46869 14.0297 2.03386 12.9403 2.03386C12.1422 2.03386 11.4094 2.28758 10.7623 2.78789C10.1857 3.23395 9.78403 3.79783 9.54853 4.19238C9.42743 4.39527 9.21426 4.51638 8.97821 4.51638C8.74217 4.51638 8.529 4.39527 8.4079 4.19238C8.17254 3.79783 7.77086 3.23395 7.19411 2.78789C6.54707 2.28758 5.81428 2.03386 5.01627 2.03386Z" fill="black"/>
</svg>
