<svg width="26" height="23" viewBox="0 0 26 23" fill="none" xmlns="http://www.w3.org/2000/svg">
<path d="M13 22.3523C12.6583 22.3523 12.3289 22.2286 12.0722 22.0037C11.1027 21.1559 10.1679 20.3592 9.3432 19.6565L9.33899 19.6528C6.92108 17.5923 4.83313 15.8129 3.38037 14.06C1.75641 12.1004 1 10.2424 1 8.21272C1 6.24067 1.67621 4.42133 2.90393 3.0896C4.1463 1.74213 5.85101 1 7.70459 1C9.08997 1 10.3587 1.43799 11.4755 2.3017C12.0391 2.73767 12.5499 3.27124 13 3.89362C13.4503 3.27124 13.9609 2.73767 14.5247 2.3017C15.6415 1.43799 16.9102 1 18.2956 1C20.149 1 21.8539 1.74213 23.0963 3.0896C24.324 4.42133 25 6.24067 25 8.21272C25 10.2424 24.2438 12.1004 22.6198 14.0598C21.1671 15.8129 19.0793 17.5921 16.6617 19.6524C15.8356 20.3563 14.8994 21.1543 13.9276 22.0041C13.6711 22.2286 13.3415 22.3523 13 22.3523ZM7.70459 2.40589C6.24835 2.40589 4.91058 2.98706 3.93738 4.04249C2.94971 5.11384 2.4057 6.5948 2.4057 8.21272C2.4057 9.91982 3.04016 11.4466 4.46271 13.163C5.83765 14.8221 7.88275 16.5649 10.2507 18.5829L10.2551 18.5866C11.0829 19.2921 12.0213 20.0919 12.998 20.9459C13.9805 20.0902 14.9204 19.2892 15.7499 18.5826C18.1176 16.5645 20.1625 14.8221 21.5375 13.163C22.9598 11.4466 23.5943 9.91982 23.5943 8.21272C23.5943 6.5948 23.0503 5.11384 22.0626 4.04249C21.0896 2.98706 19.7516 2.40589 18.2956 2.40589C17.2288 2.40589 16.2494 2.745 15.3846 3.4137C14.6139 4.00989 14.077 4.76356 13.7623 5.2909C13.6004 5.56208 13.3155 5.72395 13 5.72395C12.6845 5.72395 12.3996 5.56208 12.2377 5.2909C11.9232 4.76356 11.3863 4.00989 10.6154 3.4137C9.75061 2.745 8.77118 2.40589 7.70459 2.40589Z" fill="white" stroke="white" stroke-width="0.4"/>
</svg>
