<svg width="19" height="20" viewBox="0 0 19 20" fill="none" xmlns="http://www.w3.org/2000/svg">
<path fill-rule="evenodd" clip-rule="evenodd" d="M1.93851 0.0825164C0.960586 0.342289 0.198721 1.16199 0.0364886 2.12896C0.00428088 2.32113 -0.00548031 4.82528 0.00279814 10.7925L0.0144539 19.1857L0.100451 19.3528C0.288631 19.7183 0.741886 19.923 1.13279 19.819C1.25284 19.7871 1.84428 19.4546 2.61636 18.9852C3.32254 18.5558 3.92077 18.2044 3.94577 18.2044C3.97077 18.2044 4.66084 18.6084 5.47926 19.1022C6.96456 19.9984 6.96769 20 7.20925 20C7.34232 20 7.51592 19.9726 7.59496 19.9391C7.67399 19.9056 8.36049 19.4998 9.12045 19.0372C10.0347 18.4808 10.5286 18.2032 10.5801 18.2169C10.623 18.2283 11.2352 18.5908 11.9408 19.0225C13.1601 19.7686 13.2356 19.8083 13.4676 19.8253C13.7954 19.8493 14.0318 19.7546 14.2388 19.5163C14.3326 19.4082 14.4186 19.2541 14.4454 19.146C14.4782 19.0142 14.4914 17.3305 14.4914 13.3031V7.64541L15.7167 7.63217L16.942 7.61893L17.1775 7.50702C17.5064 7.35077 17.801 7.0575 17.9618 6.72641L18.0952 6.45148V4.27922V2.10696L17.9957 1.79895C17.7242 0.958378 17.0258 0.306336 16.155 0.0805538C15.845 0.000170835 15.6743 -0.00175 9.03796 0.000504899C2.48341 0.00271804 2.22772 0.00568277 1.93851 0.0825164ZM13.3981 1.40752C13.3808 1.44769 13.3279 1.58395 13.2804 1.71026C13.1941 1.93989 13.1941 1.94085 13.1735 10.0675L13.1529 18.1952L12.1673 17.5977C11.6252 17.269 11.0969 16.9754 10.9934 16.9453C10.7617 16.8778 10.3277 16.8773 10.099 16.9443C10.0051 16.9718 9.32453 17.361 8.58668 17.8092L7.24516 18.624L6.03923 17.8875C5.37592 17.4824 4.77765 17.1173 4.70969 17.0762C4.53395 16.9698 4.16892 16.8682 3.9629 16.8682C3.56521 16.8682 3.39066 16.9451 2.34968 17.5789L1.33242 18.1983L1.322 10.3036C1.31536 5.25601 1.32611 2.35429 1.3519 2.25732C1.45284 1.87721 1.76475 1.54645 2.14922 1.41174C2.34939 1.34163 2.6923 1.33708 7.89574 1.33582C13.1507 1.33453 13.4278 1.33812 13.3981 1.40752ZM16.1157 1.47746C16.3594 1.59839 16.54 1.78208 16.6844 2.05593C16.7765 2.23068 16.7774 2.24931 16.7891 4.18982C16.8 5.98062 16.795 6.154 16.7313 6.22549C16.6665 6.29802 16.5842 6.30357 15.5765 6.30357H14.4914L14.4923 4.24702C14.4932 2.26927 14.4965 2.18329 14.5771 2.00256C14.7123 1.69936 14.959 1.47563 15.2737 1.37094C15.4649 1.30734 15.8781 1.35962 16.1157 1.47746ZM3.84478 5.10944C3.35178 5.33004 3.34951 6.0605 3.84103 6.30174C4.01772 6.38847 4.04836 6.38922 6.82251 6.37778C9.59307 6.36634 9.6268 6.36521 9.74171 6.27885C9.80567 6.23079 9.89966 6.12936 9.95065 6.05345C10.1424 5.76787 10.0255 5.31697 9.71366 5.1393C9.55975 5.05156 9.53549 5.05085 6.7634 5.05248C4.53621 5.05378 3.94321 5.06534 3.84478 5.10944ZM3.93885 8.64955C3.73205 8.70604 3.51187 8.9583 3.47472 9.18116C3.43774 9.40318 3.57752 9.70726 3.7788 9.84247L3.91875 9.93647H6.76555H9.61234L9.76016 9.83462C10.1592 9.55973 10.1343 8.95742 9.7137 8.70688C9.57264 8.62286 9.51337 8.62099 6.83079 8.61443C5.10916 8.61021 4.03506 8.62324 3.93885 8.64955ZM3.83279 12.3445C3.31076 12.6053 3.38053 13.4056 3.93963 13.5704C4.04346 13.6011 4.9716 13.6114 6.85867 13.6028C9.59175 13.5904 9.62688 13.5892 9.74171 13.5029C10.1562 13.1914 10.1447 12.662 9.71704 12.3698L9.57808 12.2749L6.77321 12.2758C4.27048 12.2767 3.95372 12.2841 3.83279 12.3445Z" fill="black"/>
</svg>
