<svg width="23" height="26" viewBox="0 0 23 26" fill="none" xmlns="http://www.w3.org/2000/svg">
<path fill-rule="evenodd" clip-rule="evenodd" d="M3.32622 1.09902C2.1527 1.41075 1.23847 2.39438 1.04379 3.55476C1.00514 3.78536 0.993424 6.79034 1.00336 13.951L1.01734 24.0229L1.12054 24.2233C1.34636 24.6619 1.89026 24.9075 2.35934 24.7828C2.50341 24.7445 3.21313 24.3456 4.13963 23.7822C4.98704 23.2669 5.70492 22.8453 5.73492 22.8453C5.76492 22.8453 6.59301 23.3301 7.57511 23.9227C9.35747 24.998 9.36123 25 9.6511 25C9.81078 25 10.0191 24.9671 10.1139 24.9269C10.2088 24.8868 11.0326 24.3997 11.9445 23.8447C13.0416 23.177 13.6343 22.8439 13.6962 22.8603C13.7476 22.8739 14.4823 23.3089 15.3289 23.827C16.7922 24.7223 16.8828 24.7699 17.1612 24.7904C17.5545 24.8192 17.8382 24.7055 18.0865 24.4195C18.1991 24.2899 18.3023 24.105 18.3345 23.9752C18.3738 23.817 18.3897 21.7966 18.3897 16.9637V10.1745L19.8601 10.1586L21.3304 10.1427L21.613 10.0084C22.0077 9.82092 22.3612 9.46901 22.5541 9.07169L22.7143 8.74178V6.13506V3.52835L22.5949 3.15875C22.269 2.15005 21.4309 1.3676 20.386 1.09666C20.014 1.00021 19.8092 0.9979 11.8456 1.00061C3.98009 1.00326 3.67327 1.00682 3.32622 1.09902ZM17.0777 2.68902C17.057 2.73723 16.9935 2.90073 16.9365 3.05231C16.8329 3.32786 16.8329 3.32902 16.8082 13.0811L16.7835 22.8342L15.6007 22.1172C14.9502 21.7228 14.3163 21.3705 14.1921 21.3343C13.9141 21.2533 13.3932 21.2528 13.1188 21.3332C13.0061 21.3662 12.1894 21.8332 11.304 22.371L9.69419 23.3488L8.24707 22.4649C7.45111 21.9788 6.73318 21.5407 6.65163 21.4914C6.44074 21.3638 6.0027 21.2418 5.75548 21.2418C5.27825 21.2418 5.06879 21.3341 3.81961 22.0947L2.5989 22.838L2.58639 13.3644C2.57844 7.30721 2.59134 3.82514 2.62228 3.70879C2.74341 3.25265 3.1177 2.85574 3.57907 2.69409C3.81926 2.60995 4.23077 2.60449 10.4749 2.60299C16.7808 2.60143 17.1134 2.60574 17.0777 2.68902ZM20.3388 2.77296C20.6313 2.91807 20.8481 3.1385 21.0212 3.46711C21.1317 3.67682 21.1329 3.69917 21.147 6.02778C21.16 8.17675 21.154 8.3848 21.0775 8.47059C20.9998 8.55763 20.901 8.56429 19.6918 8.56429H18.3897L18.3908 6.09643C18.3918 3.72312 18.3958 3.61995 18.4925 3.40308C18.6547 3.03924 18.9508 2.77075 19.3285 2.64513C19.5579 2.56881 20.0538 2.63155 20.3388 2.77296ZM5.61374 7.13133C5.02214 7.39605 5.01942 8.27261 5.60924 8.56208C5.82126 8.66616 5.85804 8.66706 9.18701 8.65333C12.5117 8.6396 12.5522 8.63825 12.6901 8.53463C12.7668 8.47695 12.8796 8.35524 12.9408 8.26414C13.1708 7.92144 13.0306 7.38037 12.6564 7.16715C12.4717 7.06188 12.4426 7.06102 9.11609 7.06298C6.44346 7.06453 5.73186 7.07841 5.61374 7.13133ZM5.72662 11.3795C5.47846 11.4473 5.21424 11.75 5.16966 12.0174C5.12528 12.2838 5.29303 12.6487 5.53456 12.811L5.7025 12.9238H9.11866H12.5348L12.7122 12.8015C13.191 12.4717 13.1612 11.7489 12.6564 11.4483C12.4872 11.3474 12.416 11.3452 9.19694 11.3373C7.13099 11.3323 5.84207 11.3479 5.72662 11.3795ZM5.59935 15.8134C4.97291 16.1264 5.05663 17.0868 5.72756 17.2845C5.85215 17.3213 6.96591 17.3336 9.2304 17.3234C12.5101 17.3085 12.5523 17.307 12.6901 17.2035C13.1875 16.8297 13.1737 16.1944 12.6604 15.8438L12.4937 15.7299L9.12785 15.731C6.12458 15.732 5.74446 15.7409 5.59935 15.8134Z" fill="white" stroke="white" stroke-width="0.4"/>
</svg>
