<svg width="26" height="21" viewBox="0 0 26 21" fill="none" xmlns="http://www.w3.org/2000/svg">
<path fill-rule="evenodd" clip-rule="evenodd" d="M5.81471 1.07205C5.31945 1.20486 4.90872 1.5441 4.66715 2.01981C4.52016 2.30919 4.5204 2.30797 4.31451 4.23049L4.14644 5.80042L3.27765 5.82788C2.31925 5.8582 2.16024 5.89438 1.75139 6.17509C1.46713 6.37032 1.29271 6.58317 1.12576 6.93859L1 7.20632V12.9261V18.6458L1.17742 19.0041C1.38372 19.4206 1.60989 19.6392 2.05664 19.8535L2.36189 20H11.2377C18.2747 20 20.1541 19.9877 20.3096 19.9405C20.7815 19.7975 21.267 19.3383 21.4608 18.8518C21.5529 18.6207 21.5654 18.4871 21.5825 17.5574L21.6016 16.5208L22.1725 16.5264C22.6689 16.5314 22.7785 16.5179 23.0132 16.4233C23.5102 16.2231 23.9536 15.7125 24.0788 15.1965C24.1628 14.85 25.0309 4.28668 24.9992 3.99618C24.9392 3.44633 24.539 2.86869 24.0449 2.61887C23.9169 2.5541 23.6773 2.4779 23.5125 2.4495C23.2186 2.39884 6.43258 0.993974 6.19369 1.00002C6.12668 1.00171 5.95616 1.03414 5.81471 1.07205ZM14.7363 2.63733C19.4243 3.02461 23.3443 3.3647 23.4475 3.393C23.6935 3.46048 24.0165 3.78103 24.0573 3.99819C24.0741 4.08789 23.8845 6.59475 23.6359 9.56907C23.1573 15.2943 23.1728 15.1683 22.9227 15.3939C22.7191 15.5776 22.4884 15.6297 22.0303 15.5954L21.5956 15.5629L21.5825 11.408L21.5693 7.25318L21.4561 6.972C21.2998 6.58346 20.8315 6.11613 20.4422 5.96017L20.1604 5.84728L12.6348 5.83472L5.10915 5.82216V5.71625C5.10915 5.516 5.43361 2.60902 5.46616 2.51769C5.5582 2.25942 5.93873 1.9423 6.16579 1.93466C6.19162 1.93382 10.0484 2.25 14.7363 2.63733ZM20.0184 6.81337C20.2578 6.87972 20.5346 7.15594 20.6011 7.39485C20.6296 7.49734 20.6531 7.80795 20.6532 8.085L20.6535 8.58878H11.2846H1.91575L1.91604 8.06157C1.91632 7.42503 1.95999 7.24934 2.1677 7.04843C2.48019 6.74616 1.86691 6.76538 11.2611 6.76341C17.3752 6.76214 19.8852 6.77649 20.0184 6.81337ZM20.6427 10.5219L20.6554 11.4943H11.2856H1.91575V10.5101V9.52582L11.2729 9.53767L20.63 9.54948L20.6427 10.5219ZM20.6532 15.3488C20.6531 17.2399 20.6357 18.3283 20.6037 18.4431C20.5766 18.5404 20.4912 18.692 20.4139 18.7798C20.1209 19.1128 20.837 19.0899 11.1873 19.0756L2.49587 19.0627L2.33071 18.9498C2.23988 18.8877 2.11464 18.7627 2.05241 18.6721L1.93924 18.5073L1.92651 15.4694L1.91374 12.4316H11.2836H20.6535L20.6532 15.3488ZM13.8293 13.9689L13.7032 14.1003V15.7533V17.4063L13.8404 17.5433L13.9777 17.6803H16.4029C17.9765 17.6803 18.8599 17.6633 18.9185 17.632C19.1375 17.5151 19.1507 17.4083 19.1507 15.7589C19.1507 14.1094 19.1375 14.0027 18.9185 13.8857C18.8599 13.8544 17.973 13.8375 16.3919 13.8375H13.9555L13.8293 13.9689ZM18.2115 15.7589V16.743H16.4269H14.6424V15.7589V14.7747H16.4269H18.2115V15.7589Z" fill="white" stroke="white" stroke-width="0.5"/>
</svg>
