<svg width="22" height="17" viewBox="0 0 22 17" fill="none" xmlns="http://www.w3.org/2000/svg">
<path fill-rule="evenodd" clip-rule="evenodd" d="M5.01226 1.06004C4.59954 1.17072 4.25727 1.45342 4.05596 1.84984C3.93347 2.09099 3.93366 2.08998 3.7621 3.69208L3.62203 5.00035L2.89804 5.02323C2.09937 5.0485 1.96686 5.07865 1.62616 5.31257C1.38927 5.47527 1.24393 5.65264 1.1048 5.94882L1 6.17193V10.9384V15.7049L1.14785 16.0034C1.31977 16.3505 1.50824 16.5326 1.88053 16.7113L2.13491 16.8333H9.53139C15.3956 16.8333 16.9617 16.8231 17.0913 16.7838C17.4846 16.6646 17.8892 16.2819 18.0507 15.8765C18.1274 15.6839 18.1379 15.5726 18.1521 14.7979L18.168 13.934L18.6437 13.9387C19.0574 13.9428 19.1487 13.9316 19.3443 13.8528C19.7585 13.6859 20.128 13.2604 20.2323 12.8304C20.3023 12.5417 21.0257 3.7389 20.9993 3.49682C20.9493 3.03861 20.6159 2.55724 20.2041 2.34905C20.0974 2.29508 19.8977 2.23158 19.7604 2.20792C19.5155 2.1657 5.52715 0.994978 5.32807 1.00002C5.27223 1.00142 5.13013 1.02845 5.01226 1.06004ZM12.4469 2.36444C16.3536 2.68717 19.6203 2.97058 19.7062 2.99417C19.9112 3.0504 20.1804 3.31752 20.2144 3.49849C20.2285 3.57324 20.0704 5.66229 19.8632 8.14089C19.4644 12.9119 19.4773 12.8069 19.2689 12.9949C19.0993 13.148 18.907 13.1914 18.5252 13.1628L18.163 13.1357L18.152 9.67336L18.141 6.21098L18.0468 5.97667C17.9165 5.65288 17.5263 5.26344 17.2018 5.13348L16.967 5.0394L10.6956 5.02893L4.4243 5.01847V4.93021C4.4243 4.76333 4.69468 2.34085 4.7218 2.26474C4.7985 2.04952 5.11561 1.78525 5.30483 1.77888C5.32635 1.77818 8.5403 2.04167 12.4469 2.36444ZM16.8487 5.84447C17.0482 5.89977 17.2789 6.12995 17.3343 6.32904C17.358 6.41445 17.3776 6.67329 17.3777 6.90417L17.3779 7.32399H9.57052H1.76313L1.76336 6.88464C1.7636 6.35419 1.79999 6.20778 1.97309 6.04036C2.23349 5.78847 1.72243 5.80448 9.55095 5.80284C14.646 5.80179 16.7377 5.81374 16.8487 5.84447ZM17.3689 8.93491L17.3795 9.74526H9.57131H1.76313V8.92507V8.10485L9.56074 8.11473L17.3583 8.12457L17.3689 8.93491ZM17.3777 12.9573C17.3776 14.5332 17.363 15.4403 17.3364 15.5359C17.3139 15.617 17.2427 15.7433 17.1783 15.8165C16.9341 16.094 17.5308 16.0749 9.4894 16.063L2.24656 16.0523L2.10892 15.9582C2.03324 15.9064 1.92886 15.8023 1.87701 15.7267L1.7827 15.5894L1.77209 13.0579L1.76145 10.5263H9.5697H17.3779L17.3777 12.9573ZM11.6911 11.8074L11.586 11.9169V13.2944V14.6719L11.7004 14.7861L11.8147 14.9002H13.8358C15.1471 14.9002 15.8832 14.8861 15.9321 14.86C16.1146 14.7626 16.1256 14.6736 16.1256 13.2991C16.1256 11.9245 16.1146 11.8356 15.9321 11.7381C15.8832 11.712 15.1442 11.6979 13.8265 11.6979H11.7963L11.6911 11.8074ZM15.3429 13.2991V14.1192H13.8558H12.3687V13.2991V12.4789H13.8558H15.3429V13.2991Z" fill="black" stroke="black" stroke-width="0.3"/>
</svg>
