<svg width="23" height="26" viewBox="0 0 23 26" fill="none" xmlns="http://www.w3.org/2000/svg">
<path fill-rule="evenodd" clip-rule="evenodd" d="M3.21152 1.06106C2.18855 1.31116 1.31868 2.17953 1.08097 3.18812C1.01035 3.48777 1 4.74222 1 12.9961C1 21.25 1.01035 22.5045 1.08097 22.8041C1.33246 23.8711 2.28625 24.7712 3.3578 24.9528C3.60216 24.9942 5.69389 25.0072 10.3556 24.9964L17.0048 24.9809L17.3473 24.8572C18.1816 24.5559 18.8267 23.9215 19.1386 23.0959C19.2548 22.7882 19.2573 22.7266 19.2721 19.8204C19.2888 16.5623 19.294 16.6191 18.9655 16.483C18.7482 16.393 18.4732 16.4511 18.3138 16.6208L18.1845 16.7583L18.1577 19.663L18.1309 22.5678L18.0032 22.8504C17.8371 23.2179 17.3941 23.6256 17.0189 23.7564C16.7511 23.8497 16.3989 23.8548 10.1143 23.8548H3.49186L3.1905 23.7135C2.76607 23.5145 2.48766 23.2426 2.30636 22.85L2.15128 22.5142V12.9961V3.47806L2.30154 3.15633C2.49662 2.73866 2.75631 2.47741 3.16336 2.2893L3.49186 2.13749H10.1679H16.844L17.1229 2.26361C17.5263 2.44604 17.8903 2.85437 18.0708 3.32669C18.2325 3.75036 18.2807 3.80784 18.5342 3.88056C18.7523 3.94308 19.0242 3.83814 19.1529 3.64172C19.3412 3.35435 19.1301 2.64921 18.6819 2.06821C18.4066 1.71135 17.8845 1.33309 17.4148 1.15018L17.0585 1.01141L10.2752 1.00197C4.92499 0.994516 3.43266 1.00696 3.21152 1.06106ZM20.1497 4.84657C19.8318 4.91301 19.4914 5.12182 19.2551 5.39524C19.0544 5.62749 12.6872 16.5962 12.3133 17.3538C12.0724 17.8418 12.0076 18.1831 11.9419 19.3082C11.8831 20.3141 11.9177 20.4819 12.2547 20.8287C12.4539 21.0336 12.5566 21.094 12.7957 21.1467C13.2242 21.241 13.4273 21.1664 14.2819 20.6012C15.2526 19.9591 15.4248 19.8128 15.7115 19.3866C16.0826 18.8349 22.5562 7.58992 22.6409 7.34975C22.7436 7.05874 22.7352 6.53516 22.6226 6.21283C22.4856 5.82047 22.0048 5.36141 21.4287 5.07313C20.9326 4.82486 20.5651 4.75976 20.1497 4.84657ZM6.48482 5.62105C6.30615 5.69875 6.14619 5.94032 6.14619 6.1324C6.14619 6.33011 6.30798 6.56723 6.49657 6.64605C6.76865 6.75973 15.8193 6.75973 16.0914 6.64605C16.28 6.56723 16.4418 6.33011 16.4418 6.1324C16.4418 5.93469 16.28 5.69757 16.0914 5.61874C15.8235 5.50678 6.74254 5.50892 6.48482 5.62105ZM21.0316 6.16001C21.4262 6.38067 21.5896 6.5661 21.5896 6.79303C21.5896 6.94152 21.0582 7.96673 20.945 8.03677C20.8879 8.072 19.4983 7.26256 19.4983 7.19403C19.4983 7.08839 20.0907 6.13674 20.2073 6.05502C20.3997 5.92032 20.6629 5.95383 21.0316 6.16001ZM19.6494 8.65268C20.0369 8.87387 20.354 9.06692 20.354 9.08166C20.3543 9.17073 14.806 18.6956 14.6445 18.8834C14.4596 19.0982 14.1265 19.3442 13.3663 19.8272L13.0522 20.0266L13.0886 19.2864C13.1085 18.8792 13.1588 18.4074 13.2003 18.2379C13.2573 18.005 13.9602 16.7443 16.078 13.0765C17.6193 10.4072 18.8948 8.22938 18.9126 8.23689C18.9304 8.24439 19.2619 8.43148 19.6494 8.65268ZM4.76889 9.05292C4.59022 9.13062 4.43026 9.37219 4.43026 9.56427C4.43026 9.76198 4.59204 9.9991 4.78063 10.0779C5.05298 10.1917 14.7466 10.1917 15.019 10.0779C15.2076 9.9991 15.3693 9.76198 15.3693 9.56427C15.3693 9.36656 15.2076 9.12944 15.019 9.05061C14.7507 8.9386 5.02676 8.94074 4.76889 9.05292ZM4.76889 12.4848C4.59022 12.5625 4.43026 12.8041 4.43026 12.9961C4.43026 13.1938 4.59204 13.431 4.78063 13.5098C5.04923 13.622 12.7631 13.6234 13.0314 13.5112C13.2621 13.4149 13.3853 13.2355 13.3853 12.9961C13.3853 12.7568 13.2621 12.5774 13.0314 12.481C12.7672 12.3707 5.02322 12.3741 4.76889 12.4848ZM4.76889 15.9167C4.59022 15.9944 4.43026 16.2359 4.43026 16.428C4.43026 16.6257 4.59204 16.8628 4.78063 16.9417C5.04789 17.0533 10.7805 17.0546 11.0474 16.9431C11.278 16.8467 11.4012 16.6674 11.4012 16.428C11.4012 16.1886 11.278 16.0093 11.0474 15.9129C10.7846 15.8031 5.02204 15.8065 4.76889 15.9167ZM4.76889 19.3485C4.59022 19.4262 4.43026 19.6678 4.43026 19.8599C4.43026 20.0576 4.59204 20.2947 4.78063 20.3735C5.04725 20.4849 10.1376 20.4862 10.4039 20.375C10.6345 20.2786 10.7578 20.0992 10.7578 19.8599C10.7578 19.6205 10.6345 19.4411 10.4039 19.3448C10.1418 19.2353 5.02151 19.2387 4.76889 19.3485Z" fill="white" stroke="white" stroke-width="0.4"/>
</svg>
