<svg width="20" height="22" viewBox="0 0 20 22" fill="none" xmlns="http://www.w3.org/2000/svg">
<path fill-rule="evenodd" clip-rule="evenodd" d="M2.84293 1.05089C1.99046 1.2593 1.26557 1.98294 1.06748 2.82344C1.00862 3.07314 1 4.11852 1 10.9968C1 17.875 1.00862 18.9204 1.06748 19.1701C1.27705 20.0592 2.07188 20.8093 2.96483 20.9606C3.16847 20.9951 4.91157 21.006 8.79633 20.997L14.3374 20.9841L14.6228 20.881C15.318 20.6299 15.8556 20.1012 16.1155 19.4133C16.2123 19.1569 16.2144 19.1055 16.2268 16.6836C16.2407 13.9686 16.245 14.0159 15.9713 13.9025C15.7901 13.8275 15.561 13.8759 15.4281 14.0173L15.3205 14.1319L15.2981 16.5525L15.2758 18.9732L15.1693 19.2087C15.0309 19.5149 14.6618 19.8547 14.3491 19.9637C14.1259 20.0415 13.8324 20.0457 8.59524 20.0457H3.07655L2.82541 19.9279C2.47173 19.7621 2.23972 19.5355 2.08864 19.2083L1.9594 18.9285V10.9968V3.06505L2.08461 2.79694C2.24718 2.44888 2.46359 2.23117 2.8028 2.07441L3.07655 1.94791H8.63993H14.2033L14.4358 2.05301C14.7719 2.20503 15.0753 2.54531 15.2256 2.9389C15.3604 3.29197 15.4006 3.33987 15.6119 3.40046C15.7936 3.45257 16.0201 3.36512 16.1274 3.20143C16.2843 2.96196 16.1084 2.37434 15.7349 1.89017C15.5055 1.59279 15.0704 1.27758 14.679 1.12515L14.3821 1.00951L8.7293 1.00164C4.27082 0.99543 3.02722 1.0058 2.84293 1.05089ZM16.9581 4.20548C16.6932 4.26084 16.4095 4.43485 16.2126 4.6627C16.0453 4.85624 10.7393 13.9969 10.4277 14.6282C10.227 15.0349 10.173 15.3192 10.1182 16.2568C10.0693 17.0951 10.0981 17.2349 10.3789 17.5239C10.5449 17.6947 10.6305 17.745 10.8298 17.7889C11.1868 17.8675 11.3561 17.8053 12.0682 17.3343C12.8771 16.7993 13.0207 16.6773 13.2595 16.3222C13.5688 15.8624 18.9635 6.4916 19.0341 6.29146C19.1196 6.04895 19.1126 5.61263 19.0188 5.34403C18.9047 5.01706 18.504 4.63451 18.0239 4.39428C17.6105 4.18738 17.3043 4.13313 16.9581 4.20548ZM5.57069 4.85088C5.42179 4.91563 5.2885 5.11693 5.2885 5.277C5.2885 5.44176 5.42331 5.63936 5.58047 5.70504C5.80721 5.79978 13.3495 5.79978 13.5762 5.70504C13.7334 5.63936 13.8682 5.44176 13.8682 5.277C13.8682 5.11224 13.7334 4.91464 13.5762 4.84895C13.3529 4.75565 5.78545 4.75744 5.57069 4.85088ZM17.693 5.30001C18.0218 5.48389 18.158 5.63842 18.158 5.82753C18.158 5.95126 17.7152 6.80561 17.6208 6.86397C17.5732 6.89333 16.4153 6.2188 16.4153 6.16169C16.4153 6.07366 16.9089 5.28062 17.006 5.21252C17.1664 5.10027 17.3857 5.1282 17.693 5.30001ZM16.5412 7.37723C16.8641 7.56156 17.1283 7.72243 17.1284 7.73472C17.1286 7.80894 12.505 15.7463 12.3704 15.9028C12.2164 16.0818 11.9388 16.2868 11.3052 16.6893L11.0435 16.8555L11.0738 16.2386C11.0905 15.8993 11.1324 15.5062 11.167 15.365C11.2145 15.1708 11.8002 14.1203 13.565 11.0637C14.8494 8.83935 15.9124 7.02448 15.9272 7.03074C15.942 7.03699 16.2183 7.1929 16.5412 7.37723ZM4.14074 7.71077C3.99185 7.77552 3.85855 7.97683 3.85855 8.13689C3.85855 8.30165 3.99337 8.49925 4.15053 8.56494C4.37749 8.65976 12.4555 8.65976 12.6825 8.56494C12.8396 8.49925 12.9745 8.30165 12.9745 8.13689C12.9745 7.97213 12.8396 7.77453 12.6825 7.70885C12.459 7.6155 4.35563 7.61728 4.14074 7.71077ZM4.14074 10.5707C3.99185 10.6354 3.85855 10.8367 3.85855 10.9968C3.85855 11.1615 3.99337 11.3591 4.15053 11.4248C4.37436 11.5184 10.8026 11.5195 11.0262 11.426C11.2184 11.3457 11.3211 11.1963 11.3211 10.9968C11.3211 10.7973 11.2184 10.6478 11.0262 10.5675C10.806 10.4756 4.35269 10.4784 4.14074 10.5707ZM4.14074 13.4305C3.99185 13.4953 3.85855 13.6966 3.85855 13.8567C3.85855 14.0214 3.99337 14.219 4.15053 14.2847C4.37324 14.3778 9.15038 14.3789 9.37282 14.2859C9.56501 14.2056 9.6677 14.0561 9.6677 13.8567C9.6677 13.6572 9.56501 13.5077 9.37282 13.4274C9.15382 13.3359 4.3517 13.3388 4.14074 13.4305ZM4.14074 16.2904C3.99185 16.3552 3.85855 16.5565 3.85855 16.7166C3.85855 16.8813 3.99337 17.0789 4.15053 17.1446C4.3727 17.2374 8.61468 17.2385 8.83659 17.1458C9.02879 17.0655 9.13147 16.916 9.13147 16.7166C9.13147 16.5171 9.02879 16.3676 8.83659 16.2873C8.61817 16.1961 4.35126 16.1989 4.14074 16.2904Z" fill="black" stroke="black" stroke-width="0.2"/>
</svg>
