<svg width="22" height="18" viewBox="0 0 22 18" fill="none" xmlns="http://www.w3.org/2000/svg">
<path fill-rule="evenodd" clip-rule="evenodd" d="M3.9282 1.02412C3.75934 1.07585 3.60017 1.17208 3.49316 1.28714C3.43639 1.34812 2.85179 2.34076 2.19409 3.49296C0.865612 5.82014 0.942305 5.63624 1.05885 6.21502C1.18024 6.81806 1.62493 7.52072 2.08829 7.84187L2.24844 7.95283V12.3038V16.6547H2.0318C1.85384 16.6547 1.79797 16.6719 1.71924 16.7506C1.59699 16.8728 1.59699 17.0226 1.71924 17.1448L1.81512 17.2408H11H20.1849L20.2808 17.1448C20.403 17.0226 20.403 16.8728 20.2808 16.7506C20.2021 16.6719 20.1462 16.6547 19.9682 16.6547H19.7516L19.7524 12.3082L19.7531 7.96174L19.9754 7.78593C20.4426 7.41649 20.822 6.79895 20.9406 6.21502C21.0581 5.63691 21.1346 5.82049 19.8059 3.49296C19.1482 2.34076 18.5636 1.34809 18.5069 1.28702C18.4502 1.22599 18.3334 1.13809 18.2474 1.09167L18.0911 1.00736L11.0586 1.00072C7.19074 0.997085 3.98203 1.00759 3.9282 1.02412ZM18.0453 1.66178C18.1172 1.72815 20.1814 5.28759 20.1814 5.34525C20.1814 5.35154 19.9864 5.36264 19.7481 5.36994C19.3479 5.38213 19.3091 5.39022 19.2402 5.47539C19.1416 5.59721 19.1457 5.74767 19.2505 5.85925C19.3311 5.94497 19.3624 5.94966 19.8561 5.94966C20.4614 5.94966 20.4436 5.93184 20.2852 6.37942C20.0524 7.03696 19.4951 7.55335 18.8318 7.72611C18.4861 7.81617 17.9515 7.80292 17.6396 7.69657C17.1002 7.51267 16.6554 7.14327 16.4048 6.67092C16.2793 6.43451 16.1478 6.01111 16.1875 5.97142C16.1995 5.95946 16.6886 5.94966 17.2744 5.94966H18.3394L18.4204 5.84671C18.4649 5.7901 18.5014 5.72059 18.5014 5.69227C18.5014 5.58897 18.4123 5.44933 18.3194 5.40698C18.1839 5.34525 3.81614 5.34525 3.68061 5.40698C3.58774 5.44933 3.49866 5.58897 3.49866 5.69227C3.49866 5.72059 3.53512 5.7901 3.57966 5.84671L3.66061 5.94966H4.72568C5.31145 5.94966 5.8006 5.9595 5.81264 5.97154C5.8496 6.00854 5.73508 6.382 5.60697 6.64224C5.37197 7.11963 4.91224 7.50845 4.36046 7.69657C4.04849 7.80292 3.51394 7.81617 3.16821 7.72611C2.49368 7.55042 1.90217 6.99414 1.70057 6.34602C1.57011 5.92669 1.54472 5.94966 2.1385 5.94966C2.61362 5.94966 2.66066 5.94306 2.74408 5.86472C2.85441 5.76103 2.86093 5.6003 2.75986 5.47539C2.69098 5.39022 2.65211 5.38213 2.25196 5.36994C2.01367 5.36264 1.81867 5.35154 1.81867 5.34525C1.81867 5.28759 3.8828 1.72815 3.95472 1.66178L4.05001 1.57387H11H17.95L18.0453 1.66178ZM10.687 5.97896C10.6855 6.07503 10.566 6.43248 10.4689 6.63154C10.3314 6.91319 9.99808 7.28353 9.72354 7.45954C9.61238 7.5308 9.38383 7.63535 9.21563 7.69193C8.938 7.78526 8.87018 7.79292 8.48003 7.7753C8.14013 7.75995 7.99885 7.73498 7.80444 7.65594C7.32041 7.45923 6.89189 7.07224 6.67205 6.63338C6.59067 6.47092 6.46795 6.09078 6.46795 6.00115C6.46795 5.95915 6.85747 5.94966 8.57771 5.94966C9.73807 5.94966 10.6873 5.96286 10.687 5.97896ZM15.5321 6.00115C15.5321 6.11133 15.4019 6.48741 15.2919 6.69534C15.0714 7.11202 14.6106 7.50541 14.1436 7.67556C13.9791 7.73553 13.7901 7.76538 13.4998 7.77721C13.1343 7.7921 13.0553 7.78268 12.786 7.69232C12.4158 7.56804 12.2157 7.44747 11.9451 7.1857C11.6322 6.88311 11.4262 6.50945 11.3336 6.07663L11.3064 5.94966H13.4192C15.142 5.94966 15.5321 5.95915 15.5321 6.00115ZM6.42239 7.31709C7.31388 8.51926 9.12085 8.73121 10.2913 7.77092C10.5208 7.58261 10.798 7.262 10.9082 7.05736C10.947 6.98531 10.9883 6.9264 11 6.9264C11.0117 6.9264 11.053 6.98531 11.0918 7.05736C11.3053 7.45376 11.7594 7.86911 12.2307 8.09903C12.6348 8.29618 12.9617 8.37068 13.4258 8.37138C14.3866 8.37287 15.2341 7.9038 15.7445 7.08799L15.8512 6.91753L16.018 7.16613C16.3429 7.65028 16.8565 8.04711 17.4139 8.24464C17.7915 8.37842 18.5106 8.41417 18.8867 8.31778C19.0221 8.28313 19.1402 8.25476 19.1492 8.25476C19.1582 8.25476 19.1656 10.1448 19.1656 12.4547V16.6547H18.6772H18.1888V13.007C18.1888 9.37582 18.1885 9.35879 18.1078 9.25631L18.0269 9.15336H16.0176C14.0605 9.15336 14.0063 9.15539 13.9302 9.2315C13.8532 9.30855 13.8521 9.36172 13.8521 12.9822V16.6547H8.34329H2.83448V12.4547C2.83448 10.1448 2.84241 8.25476 2.8521 8.25476C2.86179 8.25476 2.97099 8.28113 3.09472 8.31337C3.38521 8.38904 4.03044 8.38807 4.35819 8.31145C4.97463 8.1674 5.66409 7.67704 5.98802 7.1523C6.1214 6.93616 6.13734 6.92296 6.18364 6.99008C6.21138 7.03024 6.31878 7.17742 6.42239 7.31709ZM3.89221 9.25631C3.81185 9.35844 3.81122 9.3827 3.81122 12.4166C3.81122 15.3686 3.8138 15.4772 3.88592 15.5662L3.96058 15.6584L8.29801 15.6687L12.6354 15.679L12.7456 15.5842L12.8558 15.4894V12.4036C12.8558 9.42396 12.8532 9.31503 12.7814 9.2356L12.707 9.15336H8.34008H3.97316L3.89221 9.25631ZM12.2798 12.4059L12.2698 15.0724L8.33352 15.0824L4.39726 15.0923V12.4159V9.7394H8.34356H12.2899L12.2798 12.4059ZM17.6028 12.4157V15.0919H16.0205H14.4381V12.4157V9.7394H16.0205H17.6028V12.4157ZM17.6028 16.1663V16.6547H16.0205H14.4381V16.1663V15.678H16.0205H17.6028V16.1663Z" fill="black" stroke="black" stroke-width="0.3"/>
</svg>
