<svg width="30" height="22" viewBox="0 0 30 22" fill="none" xmlns="http://www.w3.org/2000/svg">
<path d="M19.7988 0.289096C19.0254 0.582065 18.2109 0.91019 17.3496 1.25589C13.4648 2.82621 8.625 4.77738 3.75 4.77738C2.87695 4.77738 2.10937 5.3516 1.58789 6.39457C1.17188 7.23246 0.9375 8.3223 0.9375 9.46488C0.9375 10.6075 1.16602 11.6973 1.58789 12.5352C2.10937 13.5782 2.87695 14.1524 3.75 14.1524C4.21875 14.1524 4.68164 14.17 5.14453 14.2051L6.21094 20.9786C6.28125 21.4356 6.67383 21.7696 7.13672 21.7696H10.8867C11.1621 21.7696 11.4199 21.6524 11.6016 21.4414C11.7773 21.2305 11.8594 20.9551 11.8184 20.6856L10.9805 15.336C13.2656 16.0157 15.4277 16.8887 17.3555 17.668C18.2168 18.0137 19.0312 18.3418 19.8047 18.6348C19.9102 18.6758 20.0273 18.6934 20.1328 18.6934C20.4199 18.6934 20.7012 18.5586 20.877 18.3243C22.2305 16.543 23.0742 13.1446 23.0742 9.45902C23.0742 5.77347 22.2305 2.37503 20.877 0.593784C20.625 0.265659 20.1855 0.142612 19.7988 0.289096ZM3.26367 11.6973C2.97656 11.1231 2.8125 10.3086 2.8125 9.46488C2.8125 8.62113 2.97656 7.80668 3.26367 7.23246C3.50391 6.75199 3.7207 6.65238 3.75 6.65238C4.11914 6.65238 4.48828 6.64066 4.85742 6.62308C4.74023 7.54886 4.68164 8.49808 4.68164 9.46488C4.68164 10.4317 4.74023 11.3809 4.85742 12.3067C4.48828 12.2891 4.11914 12.2774 3.75 12.2774C3.7207 12.2774 3.50391 12.1778 3.26367 11.6973ZM9.79102 19.9004H7.93945L7.08398 14.4336C7.72852 14.5391 8.36133 14.6621 8.99414 14.8145L9.79102 19.9004ZM19.7578 16.6192C19.2129 16.4082 18.6445 16.1739 18.0527 15.9395C14.8008 14.627 10.9043 13.0567 6.77344 12.4942C6.63281 11.5157 6.55664 10.502 6.55664 9.47074C6.55664 8.43949 6.63281 7.42582 6.77344 6.4473C10.9043 5.8848 14.8008 4.31449 18.0527 3.00199C18.6445 2.76175 19.2129 2.53324 19.7578 2.3223C20.6426 3.91605 21.1992 6.61136 21.1992 9.4766C21.1992 12.3418 20.6426 15.0254 19.7578 16.6192Z" fill="white"/>
<path d="M28.1191 8.52734H25.3066C24.791 8.52734 24.3691 8.94922 24.3691 9.46484C24.3691 9.98047 24.791 10.4023 25.3066 10.4023H28.1191C28.6348 10.4023 29.0566 9.98047 29.0566 9.46484C29.0566 8.94922 28.6406 8.52734 28.1191 8.52734Z" fill="white"/>
<path d="M27.5977 14.3809L24.8789 13.6543C24.3809 13.5195 23.8652 13.8184 23.7305 14.3164C23.5957 14.8145 23.8945 15.3301 24.3926 15.4648L27.1113 16.1914C27.1934 16.2148 27.2754 16.2207 27.3574 16.2207C27.7734 16.2207 28.1484 15.9453 28.2598 15.5234C28.3945 15.0313 28.0957 14.5156 27.5977 14.3809Z" fill="white"/>
<path d="M24.6387 5.30469C24.7207 5.30469 24.8027 5.29298 24.8848 5.2754L27.6035 4.54883C28.1016 4.41407 28.4004 3.89844 28.2656 3.4004C28.1309 2.90235 27.6152 2.60352 27.1172 2.73829L24.3984 3.46485C23.9004 3.59962 23.6016 4.11524 23.7363 4.61329C23.8477 5.0293 24.2227 5.30469 24.6387 5.30469Z" fill="white"/>
</svg>
