<svg width="23" height="26" viewBox="0 0 23 26" fill="none" xmlns="http://www.w3.org/2000/svg">
<path fill-rule="evenodd" clip-rule="evenodd" d="M7.85714 3.31086C8.26628 3.34743 8.664 3.42514 9.04685 3.536C9.41028 3.43543 9.77714 3.36914 10.1429 3.33371V3.28571C10.1429 2.65486 9.62971 2.14286 9 2.14286C8.37028 2.14286 7.85714 2.65486 7.85714 3.28571V3.31086ZM7.28571 6.71429C6.97028 6.71429 6.71428 6.97029 6.71428 7.28571C6.71428 7.6 6.97028 7.85714 7.28571 7.85714C7.60114 7.85714 7.85714 7.6 7.85714 7.28571C7.85714 6.97029 7.60114 6.71429 7.28571 6.71429ZM19.2857 20.4274H21.5714V17.8069L15.6697 11.9063C15.5143 11.7509 15.4617 11.5177 15.536 11.3097C16.2103 9.43771 15.744 7.32914 14.352 5.93486C13.4263 5.00914 12.2011 4.49486 10.928 4.45029C12.5269 5.59086 13.5714 7.46171 13.5714 9.57143C13.5714 11.6297 12.5623 13.528 10.9211 14.6926C11.4423 14.6697 11.9577 14.5714 12.4526 14.3931C12.6629 14.3189 12.8926 14.3714 13.0491 14.5269L14.3794 15.856H16.4286C16.744 15.856 17 16.1109 17 16.4274V18.1417H18.7143C19.0297 18.1417 19.2857 18.3966 19.2857 18.7131V20.4274ZM8.67543 4.61943C8.41028 4.544 8.13714 4.49029 7.85714 4.45943V5.66857C8.52228 5.90514 9 6.53943 9 7.28571C9 8.23086 8.23085 9 7.28571 9C6.34057 9 5.57143 8.23086 5.57143 7.28571C5.57143 6.53943 6.04914 5.90514 6.71428 5.66857V4.45943C4.14628 4.74514 2.14286 6.928 2.14286 9.57143C2.14286 11.6114 3.35428 13.4594 5.22971 14.28C5.43657 14.3703 5.57143 14.576 5.57143 14.8034V17.3349L6.54743 18.3097C6.77028 18.5326 6.77028 18.8949 6.54743 19.1177L5.808 19.8571L6.54743 20.5954C6.77028 20.8183 6.77028 21.1806 6.54743 21.4034L5.808 22.1429L7.28571 23.6206L9 21.9063V14.8034C9 14.576 9.13485 14.3703 9.34171 14.28C11.2171 13.4594 12.4286 11.6114 12.4286 9.57143C12.4297 7.216 10.8343 5.22743 8.67543 4.61943ZM7.28571 25C7.13943 25 6.99314 24.944 6.88114 24.832L4.59543 22.5463C4.37257 22.3234 4.37257 21.9611 4.59543 21.7383L5.33485 21L4.59543 20.2606C4.37257 20.0377 4.37257 19.6754 4.59543 19.4526L5.33485 18.7143L4.59543 17.9749C4.48914 17.8674 4.42857 17.7223 4.42857 17.5714V15.1646C2.33371 14.0949 1 11.9383 1 9.57143C1 6.29714 3.51543 3.6 6.71428 3.31086V3.28571C6.71428 2.02514 7.73942 1 9 1C10.2606 1 11.2857 2.02514 11.2857 3.28571V3.32686C12.7291 3.45029 14.1029 4.06971 15.16 5.12686C16.7783 6.74514 17.3737 9.15086 16.7257 11.3463L22.5474 17.1657C22.6537 17.2731 22.7143 17.4183 22.7143 17.5703V20.9989C22.7143 21.3143 22.4583 21.5703 22.1428 21.5703H18.7143C18.3988 21.5703 18.1429 21.3143 18.1429 20.9989V19.2846H16.4286C16.1131 19.2846 15.8571 19.0286 15.8571 18.7131V16.9989H14.1429C13.992 16.9989 13.8457 16.9383 13.7383 16.8309L12.4891 15.5829C11.728 15.8069 10.9303 15.8823 10.1429 15.816V22.1429C10.1429 22.2937 10.0823 22.4389 9.976 22.5463L7.69028 24.832C7.57828 24.944 7.432 25 7.28571 25Z" fill="white" stroke="white" stroke-width="0.2"/>
</svg>
