<svg width="20" height="22" viewBox="0 0 20 22" fill="none" xmlns="http://www.w3.org/2000/svg">
<path fill-rule="evenodd" clip-rule="evenodd" d="M6.71428 2.92571C7.05524 2.95619 7.38666 3.02095 7.70571 3.11333C8.00857 3.02952 8.31428 2.97429 8.61904 2.94476V2.90476C8.61904 2.37905 8.19142 1.95238 7.66666 1.95238C7.1419 1.95238 6.71428 2.37905 6.71428 2.90476V2.92571ZM6.23809 5.7619C5.97524 5.7619 5.7619 5.97524 5.7619 6.2381C5.7619 6.5 5.97524 6.71429 6.23809 6.71429C6.50095 6.71429 6.71428 6.5 6.71428 6.2381C6.71428 5.97524 6.50095 5.7619 6.23809 5.7619ZM16.2381 17.1895H18.1428V15.0057L13.2248 10.0886C13.0952 9.95905 13.0514 9.76476 13.1133 9.59143C13.6752 8.03143 13.2867 6.27429 12.1267 5.11238C11.3552 4.34095 10.3343 3.91238 9.27333 3.87524C10.6057 4.82571 11.4762 6.38476 11.4762 8.14286C11.4762 9.8581 10.6352 11.44 9.26762 12.4105C9.7019 12.3914 10.1314 12.3095 10.5438 12.161C10.719 12.099 10.9105 12.1429 11.0409 12.2724L12.1495 13.38H13.8571C14.12 13.38 14.3333 13.5924 14.3333 13.8562V15.2848H15.7619C16.0248 15.2848 16.2381 15.4971 16.2381 15.761V17.1895ZM7.39619 4.01619C7.17524 3.95333 6.94762 3.90857 6.71428 3.88286V4.89048C7.26857 5.08762 7.66666 5.61619 7.66666 6.2381C7.66666 7.02571 7.02571 7.66667 6.23809 7.66667C5.45047 7.66667 4.80952 7.02571 4.80952 6.2381C4.80952 5.61619 5.20762 5.08762 5.7619 4.89048V3.88286C3.6219 4.12095 1.95238 5.94 1.95238 8.14286C1.95238 9.84286 2.9619 11.3829 4.52476 12.0667C4.69714 12.1419 4.80952 12.3133 4.80952 12.5029V14.6124L5.62285 15.4248C5.80857 15.6105 5.80857 15.9124 5.62285 16.0981L5.00666 16.7143L5.62285 17.3295C5.80857 17.5152 5.80857 17.8171 5.62285 18.0029L5.00666 18.619L6.23809 19.8505L7.66666 18.4219V12.5029C7.66666 12.3133 7.77904 12.1419 7.95143 12.0667C9.51428 11.3829 10.5238 9.84286 10.5238 8.14286C10.5248 6.18 9.19523 4.52286 7.39619 4.01619V4.01619ZM6.23809 21C6.11619 21 5.99428 20.9533 5.90095 20.86L3.99619 18.9552C3.81047 18.7695 3.81047 18.4676 3.99619 18.2819L4.61238 17.6667L3.99619 17.0505C3.81047 16.8648 3.81047 16.5629 3.99619 16.3771L4.61238 15.7619L3.99619 15.1457C3.90762 15.0562 3.85714 14.9352 3.85714 14.8095V12.8038C2.11143 11.9124 1 10.1152 1 8.14286C1 5.41429 3.09619 3.16667 5.7619 2.92571V2.90476C5.7619 1.85429 6.61619 1 7.66666 1C8.71714 1 9.57142 1.85429 9.57142 2.90476V2.93905C10.7743 3.0419 11.919 3.5581 12.8 4.43905C14.1486 5.78762 14.6448 7.79238 14.1048 9.6219L18.9562 14.4714C19.0448 14.561 19.0952 14.6819 19.0952 14.8086V17.6657C19.0952 17.9286 18.8819 18.1419 18.619 18.1419H15.7619C15.499 18.1419 15.2857 17.9286 15.2857 17.6657V16.2371H13.8571C13.5943 16.2371 13.3809 16.0238 13.3809 15.761V14.3324H11.9524C11.8267 14.3324 11.7048 14.2819 11.6152 14.1924L10.5743 13.1524C9.94 13.339 9.27523 13.4019 8.61904 13.3467V18.619C8.61904 18.7448 8.56857 18.8657 8.48 18.9552L6.57524 20.86C6.4819 20.9533 6.36 21 6.23809 21V21Z" fill="black" stroke="black" stroke-width="0.2"/>
</svg>
