<svg width="28" height="25" viewBox="0 0 28 25" fill="none" xmlns="http://www.w3.org/2000/svg">
<path d="M13.8533 24.65C13.4588 24.65 13.0786 24.5071 12.7822 24.2475C11.6629 23.2688 10.5838 22.3491 9.63173 21.5378L9.62687 21.5336C6.83554 19.1548 4.42512 17.1006 2.748 15.077C0.873229 12.8148 0 10.6699 0 8.32666C0 6.05004 0.780642 3.94972 2.19797 2.41232C3.63222 0.856742 5.60021 0 7.74005 0C9.33938 0 10.8041 0.505632 12.0933 1.50273C12.7439 2.00604 13.3337 2.62202 13.8533 3.34051C14.3731 2.62202 14.9626 2.00604 15.6135 1.50273C16.9027 0.505632 18.3674 0 19.9667 0C22.1064 0 24.0746 0.856742 25.5088 2.41232C26.9261 3.94972 27.7066 6.05004 27.7066 8.32666C27.7066 10.6699 26.8336 12.8148 24.9588 15.0768C23.2817 17.1006 20.8715 19.1546 18.0805 21.5331C17.1268 22.3457 16.046 23.2669 14.9242 24.2479C14.628 24.5071 14.2475 24.65 13.8533 24.65ZM7.74005 1.62301C6.05891 1.62301 4.51454 2.29395 3.39103 3.51237C2.25082 4.74918 1.6228 6.45886 1.6228 8.32666C1.6228 10.2974 2.35524 12.0599 3.99749 14.0414C5.58477 15.9568 7.94573 17.9688 10.6793 20.2984L10.6844 20.3027C11.6401 21.1171 12.7234 22.0405 13.851 23.0264C14.9852 22.0386 16.0703 21.1137 17.0279 20.298C19.7613 17.9683 22.122 15.9568 23.7093 14.0414C25.3513 12.0599 26.0838 10.2974 26.0838 8.32666C26.0838 6.45886 25.4557 4.74918 24.3155 3.51237C23.1922 2.29395 21.6477 1.62301 19.9667 1.62301C18.7352 1.62301 17.6045 2.0145 16.6061 2.78647C15.7164 3.47474 15.0966 4.3448 14.7333 4.95359C14.5464 5.26665 14.2175 5.45352 13.8533 5.45352C13.4891 5.45352 13.1602 5.26665 12.9733 4.95359C12.6101 4.3448 11.9904 3.47474 11.1004 2.78647C10.1021 2.0145 8.97136 1.62301 7.74005 1.62301Z" fill="white"/>
</svg>
