<svg width="28" height="25" viewBox="0 0 28 25" fill="none" xmlns="http://www.w3.org/2000/svg">
<path d="M4.06753 24.6052H2.08747L3.48762 23.2051C4.24256 22.4502 4.714 21.4682 4.84074 20.4031C2.87074 19.1102 1.43018 17.4094 0.659051 15.4588C-0.111531 13.5096 -0.208366 11.364 0.379043 9.25376C1.08385 6.72166 2.73694 4.41374 5.0337 2.75508C7.52955 0.952715 10.6366 0 14.019 0C18.2799 0 21.8714 1.22419 24.405 3.54015C26.6875 5.62662 27.9446 8.44097 27.9446 11.4648C27.9446 12.9339 27.6454 14.3634 27.0555 15.7135C26.445 17.1106 25.5511 18.3546 24.3985 19.4108C21.8615 21.7359 18.2723 22.9649 14.0189 22.9649C12.44 22.9649 10.7924 22.7541 9.32136 22.3673C7.92897 23.7957 6.04219 24.6052 4.06753 24.6052ZM14.019 1.64035C7.23675 1.64035 3.07512 5.68507 1.9593 9.69365C0.904885 13.4818 2.45923 17.0612 6.11721 19.2686L6.52593 19.5153L6.51335 19.9925C6.48842 20.937 6.26325 21.8467 5.86022 22.6691C6.84164 22.337 7.73219 21.735 8.42955 20.9111L8.77632 20.5014L9.29057 20.6552C10.7337 21.0869 12.4129 21.3245 14.019 21.3245C22.4598 21.3245 26.3042 16.2136 26.3042 11.4648C26.3042 8.90721 25.2367 6.5228 23.2982 4.75089C21.0721 2.71598 17.8634 1.64035 14.019 1.64035Z" fill="white"/>
</svg>
