<svg width="83" height="15" viewBox="0 0 83 15" fill="none" xmlns="http://www.w3.org/2000/svg">
<path d="M8.04139 0.778717C7.95716 0.608049 7.78334 0.5 7.59302 0.5C7.4027 0.5 7.22888 0.608049 7.14465 0.778717L5.32335 4.46908L1.25079 5.06086C1.06244 5.08823 0.905969 5.22015 0.847157 5.40116C0.788345 5.58216 0.837393 5.78086 0.973679 5.91371L3.92061 8.78626L3.22494 12.8424C3.19276 13.0299 3.26987 13.2195 3.42385 13.3314C3.57782 13.4433 3.78195 13.458 3.95041 13.3694L7.59302 11.4544L11.2356 13.3694C11.4041 13.458 11.6082 13.4433 11.7622 13.3314C11.9162 13.2195 11.9933 13.0299 11.9611 12.8424L11.2654 8.78626L14.2124 5.91371C14.3486 5.78086 14.3977 5.58216 14.3389 5.40116C14.2801 5.22015 14.1236 5.08823 13.9353 5.06086L9.86269 4.46908L8.04139 0.778717Z" fill="#FFD705" stroke="#FFD703" stroke-linejoin="round"/>
<path d="M24.995 0.778717C24.9108 0.608049 24.737 0.5 24.5466 0.5C24.3563 0.5 24.1825 0.608049 24.0983 0.778717L22.277 4.46908L18.2044 5.06086C18.0161 5.08823 17.8596 5.22015 17.8008 5.40116C17.742 5.58216 17.791 5.78086 17.9273 5.91371L20.8742 8.78626L20.1785 12.8424C20.1464 13.0299 20.2235 13.2195 20.3775 13.3314C20.5314 13.4433 20.7356 13.458 20.904 13.3694L24.5466 11.4544L28.1892 13.3694C28.3577 13.458 28.5618 13.4433 28.7158 13.3314C28.8698 13.2195 28.9469 13.0299 28.9147 12.8424L28.219 8.78626L31.166 5.91371C31.3023 5.78086 31.3513 5.58216 31.2925 5.40116C31.2337 5.22015 31.0772 5.08823 30.8889 5.06086L26.8163 4.46908L24.995 0.778717Z" fill="#FFD705" stroke="#FFD703" stroke-linejoin="round"/>
<path d="M41.9481 0.778717C41.8639 0.608049 41.6901 0.5 41.4998 0.5C41.3094 0.5 41.1356 0.608049 41.0514 0.778717L39.2301 4.46908L35.1575 5.06086C34.9692 5.08823 34.8127 5.22015 34.7539 5.40116C34.6951 5.58216 34.7441 5.78086 34.8804 5.91371L37.8274 8.78626L37.1317 12.8424C37.0995 13.0299 37.1766 13.2195 37.3306 13.3314C37.4846 13.4433 37.6887 13.458 37.8571 13.3694L41.4998 11.4544L45.1424 13.3694C45.3108 13.458 45.515 13.4433 45.6689 13.3314C45.8229 13.2195 45.9 13.0299 45.8678 12.8424L45.1722 8.78626L48.1191 5.91371C48.2554 5.78086 48.3044 5.58216 48.2456 5.40116C48.1868 5.22015 48.0303 5.08823 47.842 5.06086L43.7694 4.46908L41.9481 0.778717Z" fill="#FFD705" stroke="#FFD703" stroke-linejoin="round"/>
<path d="M58.9017 0.778717C58.8175 0.608049 58.6437 0.5 58.4534 0.5C58.2631 0.5 58.0892 0.608049 58.005 0.778717L56.1837 4.46908L52.1111 5.06086C51.9228 5.08823 51.7663 5.22015 51.7075 5.40116C51.6487 5.58216 51.6977 5.78086 51.834 5.91371L54.781 8.78626L54.0853 12.8424C54.0531 13.0299 54.1302 13.2195 54.2842 13.3314C54.4382 13.4433 54.6423 13.458 54.8108 13.3694L58.4534 11.4544L62.096 13.3694C62.2644 13.458 62.4686 13.4433 62.6225 13.3314C62.7765 13.2195 62.8536 13.0299 62.8215 12.8424L62.1258 8.78626L65.0727 5.91371C65.209 5.78086 65.258 5.58216 65.1992 5.40116C65.1404 5.22015 64.9839 5.08823 64.7956 5.06086L60.723 4.46908L58.9017 0.778717Z" stroke="#FFD703" stroke-linejoin="round"/>
<path d="M75.8554 0.778717C75.7711 0.608049 75.5973 0.5 75.407 0.5C75.2167 0.5 75.0428 0.608049 74.9586 0.778717L73.1373 4.46908L69.0648 5.06086C68.8764 5.08823 68.7199 5.22015 68.6611 5.40116C68.6023 5.58216 68.6514 5.78086 68.7876 5.91371L71.7346 8.78626L71.0389 12.8424C71.0067 13.0299 71.0838 13.2195 71.2378 13.3314C71.3918 13.4433 71.5959 13.458 71.7644 13.3694L75.407 11.4544L79.0496 13.3694C79.2181 13.458 79.4222 13.4433 79.5762 13.3314C79.7301 13.2195 79.8072 13.0299 79.7751 12.8424L79.0794 8.78626L82.0263 5.91371C82.1626 5.78086 82.2117 5.58216 82.1528 5.40116C82.094 5.22015 81.9376 5.08823 81.7492 5.06086L77.6767 4.46908L75.8554 0.778717Z" stroke="#FFD703" stroke-linejoin="round"/>
</svg>
