<svg width="24" height="17" viewBox="0 0 24 17" fill="none" xmlns="http://www.w3.org/2000/svg">
<path d="M5.96094 4.86231C5.99366 4.86231 22.3078 4.86231 22.3078 4.86231L18.8706 1.0098C18.6477 0.759956 18.6696 0.376753 18.9194 0.153863C19.1692 -0.0689806 19.5525 -0.0472306 19.7754 0.20266L23.6464 4.5414C24.1179 5.07006 24.1179 5.86712 23.6463 6.39563L19.7753 10.7344C19.6555 10.8687 19.4895 10.9371 19.3228 10.9371C19.1792 10.9371 19.035 10.8863 18.9194 10.7832C18.6695 10.5603 18.6477 10.1771 18.8706 9.92728L22.3077 6.07473C22.3077 6.07473 5.99366 6.07473 5.9609 6.07473C3.34256 6.07473 1.21247 8.20491 1.21247 10.8232C1.21247 13.4414 3.3426 15.5716 5.9609 15.5716H8.84746C9.18228 15.5716 9.45369 15.843 9.45369 16.1778C9.45369 16.5126 9.18228 16.7841 8.84746 16.7841H5.9609C2.67403 16.7841 0 14.11 0 10.8232C4.76837e-05 7.53634 2.67407 4.86231 5.96094 4.86231Z" fill="black" fill-opacity="0.3"/>
</svg>
