<svg width="24" height="26" viewBox="0 0 24 26" fill="none" xmlns="http://www.w3.org/2000/svg">
<path d="M19.4794 6.51984C19.3434 6.38385 19.1223 6.38385 18.9865 6.51984C18.8496 6.65672 18.8496 6.87769 18.9865 7.01368C20.8988 8.927 21.9523 11.4702 21.9523 14.1756C21.9523 19.7602 17.4091 24.3027 11.8244 24.3027C6.24068 24.3027 1.69732 19.7595 1.69732 14.1756C1.69732 8.62003 6.19496 4.09871 11.7392 4.0521L9.70683 6.08393C9.56996 6.21992 9.56996 6.44104 9.70683 6.57777C9.77432 6.64613 9.86474 6.68039 9.95339 6.68039C10.042 6.68039 10.1314 6.64613 10.1999 6.57777L12.9379 3.83981L10.1998 1.102C10.0629 0.966002 9.84268 0.966002 9.70683 1.102C9.56996 1.23887 9.56996 1.45984 9.70683 1.59584L11.4771 3.36523C5.66878 3.55209 1 8.32172 1 14.1739C1 20.1436 5.85564 25 11.8252 25C17.7959 25 22.6514 20.1435 22.6514 14.1747C22.6515 11.2824 21.5242 8.56475 19.4794 6.51984Z" fill="#010002" stroke="black" stroke-width="0.837703"/>
</svg>
