<svg width="20" height="20" viewBox="0 0 20 20" fill="none" xmlns="http://www.w3.org/2000/svg">
<path fill-rule="evenodd" clip-rule="evenodd" d="M10.2073 0.0415209C10.1735 0.0751423 10.146 0.473796 10.146 0.927329V1.75203L9.76695 1.79882C9.55845 1.82452 9.14717 1.86944 8.85289 1.89852C7.48928 2.03354 5.77539 2.67031 4.50007 3.51564C1.58301 5.44941 -0.231833 9.09342 0.0239267 12.5031L0.0856371 13.3259H0.991318H1.89709L1.90378 11.925C1.90975 10.6671 1.93517 10.4424 2.15303 9.72359C2.87152 7.3524 4.37389 5.56255 6.52046 4.52019C7.499 4.04496 8.59285 3.74708 9.52171 3.70287L10.1014 3.6753L10.1273 4.51948C10.1416 4.98378 10.1862 5.39648 10.2265 5.43669C10.3157 5.52563 13.6595 2.9174 13.6885 2.7363C13.7055 2.63028 10.5893 0.086972 10.3415 0.00460849C10.3014 -0.00873333 10.241 0.00789948 10.2073 0.0415209ZM5.44 8.04866C5.37766 8.07374 5.26726 8.20867 5.19476 8.34859C5.08258 8.5649 5.06287 9.4154 5.06287 14.0399V19.4768L5.32514 19.7384L5.58741 20L12.5906 19.9762L19.5938 19.9523L19.7969 19.7497L20 19.5471V13.9977V8.4482L19.7838 8.21873L19.5676 7.98916L12.5605 7.99618C8.70655 8.00001 5.50233 8.02367 5.44 8.04866ZM18.0827 13.9937V18.1303L12.5314 18.1074L6.98017 18.0845L6.95699 13.9707L6.9338 9.85701H12.5082H18.0827V13.9937Z" fill="black"/>
</svg>
