<svg width="24" height="24" viewBox="0 0 24 24" fill="none" xmlns="http://www.w3.org/2000/svg">
<path d="M0 12C0 5.3725 5.3725 0 12 0C18.6275 0 24 5.3725 24 12C24 18.6275 18.6275 24 12 24C5.3725 24 0 18.6275 0 12ZM12 19.1759C15.9631 19.1759 19.1759 15.9631 19.1759 12C19.1759 8.03687 15.9631 4.8241 12 4.8241C8.03687 4.8241 4.8241 8.03687 4.8241 12C4.8241 15.9631 8.03687 19.1759 12 19.1759Z" fill="#83D9FF"/>
<path d="M12 23.9998V19.1757C12.9161 19.1757 13.7915 19.0043 14.597 18.6914L16.2475 23.2262C14.9268 23.7261 13.4956 23.9998 12 23.9998Z" fill="#3FEFEF"/>
<path d="M14.5972 18.6912C15.4263 18.3691 16.181 17.8973 16.8281 17.3086L19.9308 21.0057C18.8564 21.9521 17.6115 22.7098 16.2477 23.226L14.5972 18.6912Z" fill="#1DD1D9"/>
<path d="M16.8276 17.309C17.468 16.7262 18.0026 16.0293 18.3994 15.25L22.5808 17.6644C21.9015 18.9315 21.0004 20.0629 19.9302 21.0061L16.8276 17.309Z" fill="#17B5BA"/>
<path d="M18.979 10.3251L23.7355 9.48633C23.9089 10.2971 23.9998 11.1379 23.9998 12.0004C23.9998 12.5605 23.9611 13.1115 23.8868 13.6514L19.1302 12.8132C19.1601 12.5466 19.1757 12.2752 19.1757 12.0004C19.1757 11.4232 19.1075 10.8627 18.979 10.3251Z" fill="#9BE058"/>
<path d="M18.0142 8.08337L22.1959 5.66895C22.915 6.82507 23.4432 8.11194 23.7358 9.48615L18.9793 10.325C18.7858 9.51562 18.4554 8.75995 18.0142 8.08337Z" fill="#C0FF66"/>
<path d="M16.3901 6.32361L19.4929 2.62598C20.5571 3.47778 21.4731 4.50702 22.196 5.66882L18.0143 8.08325C17.5743 7.40961 17.0242 6.8147 16.3901 6.32361Z" fill="#FFDF46"/>
<path d="M8.03809 0.6698C9.27863 0.235657 10.6115 0 11.9998 0V4.8241C11.1908 4.8241 10.4135 4.95795 9.68805 5.20459L8.03809 0.6698Z" fill="#FC3E81"/>
<path d="M4.50732 2.62604C5.55487 1.78778 6.74597 1.12146 8.03778 0.669922H8.03832L9.68829 5.20471C8.9306 5.46216 8.23004 5.8432 7.61004 6.32367L4.50732 2.62604Z" fill="#F01054"/>
<path d="M1.8042 5.66882C2.5271 4.50702 3.44318 3.47797 4.50739 2.62598L7.61011 6.32361C6.97601 6.8147 6.42596 7.40961 5.98615 8.08325L1.8042 5.66882Z" fill="#7884EA"/>
<path d="M0.112793 13.6508L4.86932 12.8125C4.96747 13.6812 5.22034 14.5031 5.6001 15.2496L1.41852 17.6641C0.760803 16.438 0.309814 15.0848 0.112793 13.6508Z" fill="#1685FB"/>
<path d="M1.41895 17.6644L5.60034 15.25C5.99731 16.0293 6.53198 16.7262 7.1723 17.309L4.06958 21.0061C2.99951 20.0629 2.09845 18.9315 1.41895 17.6644Z" fill="#43A3F9"/>
<path d="M4.06934 21.0057L7.17206 17.3086C7.81897 17.8973 8.57373 18.3691 9.40302 18.6912L7.75232 23.226C6.38873 22.7098 5.1438 21.9521 4.06934 21.0057Z" fill="#64BDFF"/>
<path d="M0.26416 9.48615C0.556763 8.11194 1.08502 6.82507 1.80408 5.66895L5.98584 8.08337C5.54456 8.75995 5.21423 9.51562 5.02069 10.325L0.26416 9.48615Z" fill="#4A5BE5"/>
<path d="M18.3999 15.2496C18.7795 14.5029 19.0323 13.6812 19.1305 12.8125L23.887 13.6508C23.69 15.0848 23.239 16.438 22.5813 17.6641L18.3999 15.2496Z" fill="#1CC939"/>
<path d="M0 12.0004C0 11.1379 0.0908203 10.2971 0.264221 9.48633L5.02075 10.3251C4.89221 10.8627 4.8241 11.4232 4.8241 12.0004C4.8241 12.2752 4.83966 12.5466 4.86951 12.8132L0.112976 13.6514C0.0386353 13.1115 0 12.5605 0 12.0004H0Z" fill="#364EC6"/>
<path d="M14.3115 5.20471L15.962 0.669922C17.2538 1.12146 18.4451 1.78778 19.4925 2.62622L16.39 6.32367C15.7698 5.8432 15.069 5.46216 14.3115 5.20471Z" fill="#F9B200"/>
<path d="M12 4.8241V0C13.3883 0 14.7217 0.235657 15.9622 0.6698L14.3115 5.20459C13.5862 4.95795 12.809 4.8241 12 4.8241Z" fill="#FD6096"/>
</svg>
