<svg width="34" height="34" viewBox="0 0 34 34" fill="none" xmlns="http://www.w3.org/2000/svg">
<circle cx="17" cy="17" r="17" fill="#49AAE8"/>
<g clip-path="url(#clip0_1835_13545)">
<path d="M22.9833 19.7722C25.6728 17.0827 25.6727 12.7065 22.9833 10.0169C20.2938 7.32737 15.9176 7.32737 13.2281 10.0169C10.9464 12.2986 10.6008 15.6921 12.1905 18.342C12.1905 18.342 12.3047 18.5336 12.1504 18.6877C11.2707 19.5675 8.63112 22.2071 8.63112 22.2071C7.93063 22.9075 7.76387 23.887 8.38506 24.5083L8.49202 24.6151C9.11321 25.2364 10.0927 25.0697 10.7932 24.3692C10.7932 24.3692 13.4271 21.7352 14.3051 20.8573C14.4667 20.6957 14.6582 20.8098 14.6582 20.8098C17.3081 22.3994 20.7016 22.0539 22.9833 19.7722ZM14.5016 18.4987C12.5143 16.5114 12.5144 13.2779 14.5017 11.2906C16.4889 9.30333 19.7225 9.30327 21.7097 11.2906C23.697 13.2778 23.697 16.5114 21.7097 18.4987C19.7224 20.4859 16.4889 20.4859 14.5016 18.4987Z" fill="white"/>
<path d="M14.9413 14.4854C14.8488 14.4854 14.7548 14.4673 14.6642 14.429C14.3021 14.2757 14.1327 13.858 14.286 13.4959C15.249 11.2199 17.8841 10.1519 20.1601 11.115C20.5221 11.2682 20.6915 11.6859 20.5383 12.048C20.385 12.4101 19.9673 12.5794 19.6051 12.4262C18.0523 11.7692 16.2543 12.4979 15.5973 14.0507C15.4823 14.3223 15.2187 14.4854 14.9413 14.4854Z" fill="white"/>
</g>
<defs>
<clipPath id="clip0_1835_13545">
<rect width="17" height="17" fill="white" transform="translate(8 8)"/>
</clipPath>
</defs>
</svg>
