<svg width="24" height="24" viewBox="0 0 24 24" fill="none" xmlns="http://www.w3.org/2000/svg">
<path fill-rule="evenodd" clip-rule="evenodd" d="M11.096 0.0225842C9.31744 0.192919 7.9946 0.56909 6.49694 1.33039C4.72282 2.23215 3.13084 3.65814 1.97004 5.38517C1.47855 6.11641 0.877943 7.35087 0.589562 8.22252C0.356792 8.92609 0.171891 9.72678 0.0588846 10.5205C-0.0196282 11.0721 -0.0196282 12.9236 0.0588846 13.4751C0.255519 14.8565 0.620864 16.0666 1.19167 17.227C1.83746 18.5399 2.47002 19.4219 3.51434 20.4656C4.54726 21.4977 5.44361 22.1423 6.70812 22.7622C7.59044 23.1948 8.16012 23.4053 9.05459 23.6295C11.4017 24.2178 13.7557 24.105 16.0489 23.2943C16.7488 23.0469 17.9621 22.4387 18.5813 22.0249C20.0002 21.0766 21.2705 19.7756 22.19 18.3291C22.528 17.7973 23.0712 16.6754 23.2928 16.0514C24.3953 12.9468 24.2034 9.61474 22.7545 6.70334C22.1698 5.5284 21.5188 4.60755 20.6048 3.66241C19.598 2.62117 18.5861 1.88501 17.2672 1.2342C15.8764 0.547845 14.5815 0.181616 13.0436 0.0396083C12.5655 -0.00452302 11.4785 -0.0140434 11.096 0.0225842ZM13.6537 1.62998C16.6304 2.12987 19.1482 3.77248 20.8029 6.29406C21.5988 7.5069 22.1419 8.93706 22.39 10.4736C22.5062 11.1931 22.5062 12.8026 22.39 13.522C21.8843 16.6534 20.1692 19.2536 17.5019 20.9325C16.3597 21.6515 14.9835 22.1554 13.5129 22.3931C12.7904 22.5099 11.1817 22.5096 10.4625 22.3925C8.1283 22.0127 6.20828 21.0409 4.56856 19.4095C2.94903 17.7981 1.96248 15.851 1.5855 13.522C1.46902 12.8022 1.46902 11.1935 1.5855 10.4736C2.07675 7.43866 3.68033 4.92576 6.19847 3.24497C7.63366 2.28698 9.36465 1.68358 11.1429 1.52145C11.6506 1.47517 13.1064 1.5381 13.6537 1.62998ZM11.6826 6.05844C11.5088 6.13888 11.353 6.30433 11.2869 6.47861C11.2539 6.56565 11.2368 7.40035 11.2368 8.92782V11.245L8.84679 11.2579C6.51656 11.2706 6.45358 11.2733 6.32724 11.3676C6.081 11.5514 6.00418 11.7013 6.00418 11.9978C6.00418 12.2944 6.081 12.4443 6.32724 12.6281C6.45358 12.7223 6.51656 12.7251 8.84557 12.7377L11.2343 12.7507L11.2473 15.1379C11.2599 17.4653 11.2627 17.5283 11.357 17.6545C11.541 17.9006 11.6909 17.9774 11.9877 17.9774C12.2845 17.9774 12.4344 17.9006 12.6183 17.6545C12.7126 17.5283 12.7154 17.4653 12.728 15.1379L12.741 12.7507L15.1298 12.7377C17.4588 12.7251 17.5218 12.7223 17.6481 12.6281C17.8943 12.4443 17.9712 12.2944 17.9712 11.9978C17.9712 11.7013 17.8943 11.5514 17.6481 11.3676C17.5218 11.2733 17.4588 11.2706 15.1298 11.258L12.741 11.245L12.728 8.85781C12.7154 6.53034 12.7126 6.4674 12.6183 6.34115C12.5651 6.26996 12.4664 6.17048 12.3989 6.12016C12.2434 6.00414 11.8696 5.97192 11.6826 6.05844Z" fill="white"/>
</svg>
