<svg width="29" height="25" viewBox="0 0 29 25" fill="none" xmlns="http://www.w3.org/2000/svg">
<path d="M4.16788 24.6052H2.18781L3.58796 23.2051C4.3429 22.4502 4.81434 21.4682 4.94108 20.4031C2.97108 19.1102 1.53052 17.4094 0.759393 15.4588C-0.0111891 13.5096 -0.108024 11.364 0.479385 9.25376C1.18419 6.72166 2.83728 4.41374 5.13404 2.75508C7.62989 0.952715 10.7369 0 14.1193 0C18.3803 0 21.9717 1.22419 24.5054 3.54015C26.7879 5.62662 28.0449 8.44097 28.0449 11.4648C28.0449 12.9339 27.7458 14.3634 27.1559 15.7135C26.5454 17.1106 25.6514 18.3546 24.4989 19.4108C21.9619 21.7359 18.3726 22.9649 14.1193 22.9649C12.5403 22.9649 10.8927 22.7541 9.4217 22.3673C8.02932 23.7957 6.14253 24.6052 4.16788 24.6052ZM14.1193 1.64035C7.33709 1.64035 3.17546 5.68507 2.05964 9.69365C1.00523 13.4818 2.55957 17.0612 6.21755 19.2686L6.62627 19.5153L6.61369 19.9925C6.58876 20.937 6.3636 21.8467 5.96056 22.6691C6.94198 22.337 7.83253 21.735 8.5299 20.9111L8.87667 20.5014L9.39092 20.6552C10.834 21.0869 12.5133 21.3245 14.1193 21.3245C22.5601 21.3245 26.4046 16.2136 26.4046 11.4648C26.4046 8.90721 25.337 6.5228 23.3986 4.75089C21.1725 2.71598 17.9637 1.64035 14.1193 1.64035Z" fill="white"/>
</svg>
