<svg width="24" height="24" viewBox="0 0 24 24" fill="none" xmlns="http://www.w3.org/2000/svg">
<path d="M11.5718 9.17783L3.28963 17.46C3.51667 17.8221 3.76601 18.1698 4.03621 18.501L11.5718 10.9658V9.17783Z" fill="black"/>
<path d="M5.54093 19.9961L11.5718 13.9652L11.5718 12.1772L4.60793 19.1411C4.90123 19.4448 5.21281 19.7304 5.54093 19.9961Z" fill="black"/>
<path d="M11.5718 22.2754V21.1778L10.5659 22.1841C10.8962 22.2304 11.2315 22.2608 11.5718 22.2754Z" fill="black"/>
<path d="M9.54892 21.9883L11.5718 19.9654V18.1774L8.19592 21.5533C8.63624 21.7296 9.08834 21.875 9.54892 21.9883Z" fill="black"/>
<path d="M7.36148 21.1758L11.5718 16.9655V15.1775L6.23562 20.5136C6.59645 20.7581 6.9725 20.9792 7.36148 21.1758Z" fill="black"/>
<path d="M2.51557 8.02148L8.021 2.51606C5.53888 3.56416 3.56367 5.53937 2.51557 8.02148Z" fill="black"/>
<path d="M11.5718 1.72549C10.9736 1.75032 10.3788 1.82733 9.79406 1.95563L1.95548 9.79421C1.80978 10.4594 1.73068 11.1375 1.71933 11.8184L11.5718 1.96591V1.72549Z" fill="black"/>
<path d="M12 24C18.6274 24 24 18.6274 24 12C24 5.37258 18.6274 0 12 0C5.37258 0 0 5.37258 0 12C0.00755692 18.6243 5.37572 23.9924 12 24ZM12 0.857143C17.0921 0.855703 21.5374 4.30644 22.7988 9.23989C24.0601 14.1733 21.8165 19.3342 17.3486 21.777C17.2138 21.8573 17.046 21.8577 16.9109 21.7778C16.7759 21.698 16.6953 21.5508 16.7007 21.394C16.7062 21.2372 16.7969 21.096 16.9371 21.0257C20.9904 18.8086 23.068 14.161 22.0171 9.66211C20.9662 5.16324 17.0446 1.91704 12.4286 1.725L12.4286 22.2707C13.2618 22.2388 14.088 22.1057 14.889 21.8743C15.1146 21.8127 15.348 21.9433 15.4134 22.1679C15.4788 22.3925 15.352 22.628 15.1286 22.6971C10.9439 23.9177 6.43187 22.586 3.58046 19.289C0.729057 15.992 0.0619545 11.3351 1.87309 7.37019C3.68423 3.40528 7.64102 0.8605 12 0.857143Z" fill="black"/>
<path d="M11.5718 6.17722L2.30864 15.4404C2.4612 15.8676 2.64188 16.2842 2.84949 16.6875L11.5718 7.96521V6.17722Z" fill="black"/>
<path d="M11.5718 3.1776L1.76306 12.9859C1.81208 13.5001 1.90005 14.0098 2.02621 14.5107L11.5718 4.9656V3.1776Z" fill="black"/>
</svg>
