<svg width="89" height="31" viewBox="0 0 89 31" fill="none" xmlns="http://www.w3.org/2000/svg">
<rect x="0.5" y="0.5" width="88" height="30" rx="8.92263" stroke="white"/>
<path d="M36.472 12.184C36.472 12.6107 36.3547 12.8987 36.12 13.048C35.8853 13.1973 35.512 13.2773 35 13.288C35.192 13.4907 35.096 13.8 34.712 14.216C34.584 14.3547 34.4773 14.4667 34.392 14.552C34.3173 14.6267 34.2533 14.6907 34.2 14.744C34.1573 14.7867 34.1147 14.824 34.072 14.856C34.04 14.888 34.0027 14.92 33.96 14.952C33.864 15.0267 33.8267 15.08 33.848 15.112C33.8693 15.144 33.9333 15.1547 34.04 15.144C34.1147 15.1333 34.216 15.128 34.344 15.128C34.472 15.128 34.568 15.1227 34.632 15.112C34.7813 14.9947 34.9627 14.84 35.176 14.648C35.4 14.4453 35.5867 14.28 35.736 14.152C35.928 13.9707 36.088 13.8533 36.216 13.8C36.344 13.736 36.504 13.768 36.696 13.896C36.9307 14.088 37.0213 14.2747 36.968 14.456C36.9253 14.6373 36.76 14.856 36.472 15.112C36.248 15.304 36.0507 15.4747 35.88 15.624C35.7093 15.7627 35.5493 15.8907 35.4 16.008C35.2507 16.1147 35.1067 16.216 34.968 16.312C34.8293 16.408 34.68 16.5093 34.52 16.616C34.4347 16.68 34.3973 16.728 34.408 16.76C34.4187 16.792 34.504 16.7973 34.664 16.776C34.7493 16.7653 34.8613 16.76 35 16.76C35.1493 16.7493 35.2507 16.7387 35.304 16.728C35.2507 16.5893 35.2453 16.4613 35.288 16.344C35.3413 16.2267 35.432 16.1307 35.56 16.056C35.6773 15.96 35.8 15.9333 35.928 15.976C36.0667 16.008 36.1947 16.1147 36.312 16.296C36.4187 16.456 36.52 16.6267 36.616 16.808C36.712 16.9893 36.7973 17.1547 36.872 17.304C36.936 17.1227 37.0747 16.9573 37.288 16.808C37.3307 16.776 37.3947 16.7333 37.48 16.68C37.5653 16.616 37.6507 16.552 37.736 16.488C37.832 16.424 37.9173 16.3653 37.992 16.312C38.0773 16.248 38.1413 16.2 38.184 16.168C38.024 16.1893 37.8587 16.1893 37.688 16.168C37.528 16.1467 37.384 16.1147 37.256 16.072C37.128 16.0187 37.0213 15.9493 36.936 15.864C36.8507 15.7787 36.808 15.672 36.808 15.544C36.808 15.2667 36.952 15.016 37.24 14.792C37.6453 14.5253 38.008 14.2693 38.328 14.024C38.6587 13.7787 38.9467 13.5333 39.192 13.288H38.648C38.3707 13.288 38.1467 13.272 37.976 13.24C37.816 13.208 37.688 13.1493 37.592 13.064C37.5067 12.9787 37.448 12.8667 37.416 12.728C37.384 12.5893 37.368 12.408 37.368 12.184V10.232C37.368 10.008 37.384 9.82133 37.416 9.672C37.448 9.52267 37.5067 9.40533 37.592 9.32C37.688 9.23467 37.816 9.176 37.976 9.144C38.1467 9.10133 38.3707 9.08 38.648 9.08H42.584C43.128 9.08 43.5013 9.176 43.704 9.368C43.9173 9.54933 44.024 9.864 44.024 10.312V21.752C44.024 22.392 43.912 22.872 43.688 23.192C43.464 23.512 43.032 23.7093 42.392 23.784C42.2427 23.8053 42.0347 23.816 41.768 23.816C41.512 23.816 41.176 23.752 40.76 23.624C40.5253 23.5493 40.3547 23.432 40.248 23.272C40.152 23.112 40.152 22.8667 40.248 22.536C40.3867 22.152 40.744 22.0453 41.32 22.216C41.6933 22.312 41.9547 22.3067 42.104 22.2C42.2533 22.0933 42.328 21.9173 42.328 21.672V17.992C42.2747 18.0773 42.1627 18.152 41.992 18.216H42.008C41.7733 18.3013 41.5973 18.312 41.48 18.248C41.3627 18.1733 41.2453 18.0187 41.128 17.784L41.112 17.768C40.632 17.8533 40.1787 17.9173 39.752 17.96C39.3253 18.0027 38.8667 18.0507 38.376 18.104C38.6 18.1253 38.7547 18.2053 38.84 18.344C38.9253 18.4827 38.968 18.68 38.968 18.936V20.168H40.312C40.3867 20.168 40.424 20.1307 40.424 20.056V19.256C40.424 18.7867 40.632 18.552 41.048 18.552C41.24 18.552 41.4 18.6053 41.528 18.712C41.6667 18.808 41.736 18.9893 41.736 19.256V20.2C41.736 20.6907 41.6507 21.0267 41.48 21.208C41.32 21.3893 40.984 21.48 40.472 21.48H38.968V22.792C38.968 23.0693 38.9147 23.2667 38.808 23.384C38.7013 23.512 38.52 23.576 38.264 23.576C37.9973 23.576 37.816 23.512 37.72 23.384C37.624 23.2667 37.576 23.0693 37.576 22.792V18.936C37.576 18.7333 37.6027 18.5627 37.656 18.424C37.72 18.2853 37.8213 18.1947 37.96 18.152H37.88C37.72 18.152 37.5653 18.1413 37.416 18.12C37.2773 18.0987 37.1653 18.0453 37.08 17.96C37.0373 18.0667 36.92 18.152 36.728 18.216C36.3973 18.3227 36.152 18.1947 35.992 17.832C35.736 17.8853 35.4853 17.9227 35.24 17.944C34.9947 17.9653 34.744 17.9867 34.488 18.008C34.2427 18.0293 33.9867 18.0507 33.72 18.072C33.464 18.0827 33.1867 18.104 32.888 18.136C32.568 18.168 32.3387 18.1307 32.2 18.024C32.0613 17.9067 31.992 17.7413 31.992 17.528C31.992 17.3787 32.0027 17.2613 32.024 17.176C32.056 17.0907 32.1467 16.9947 32.296 16.888C32.424 16.8027 32.5733 16.7013 32.744 16.584C32.9253 16.456 33.0747 16.3493 33.192 16.264L32.936 16.232C32.584 16.2533 32.3387 16.2107 32.2 16.104C32.0613 15.9973 31.992 15.832 31.992 15.608C31.992 15.4693 32.0133 15.3467 32.056 15.24C32.0987 15.1227 32.2107 14.9947 32.392 14.856C32.7333 14.5893 33.0107 14.3493 33.224 14.136C33.448 13.912 33.6613 13.6773 33.864 13.432L34.072 13.288H31.72V23.192C31.72 23.448 31.6347 23.6347 31.464 23.752C31.304 23.8693 31.1173 23.928 30.904 23.928C30.6587 23.928 30.4507 23.8747 30.28 23.768C30.12 23.6613 30.04 23.4693 30.04 23.192V10.312C30.04 9.864 30.1413 9.54933 30.344 9.368C30.5467 9.176 30.92 9.08 31.464 9.08H35.112C35.6453 9.08 36.0027 9.16 36.184 9.32C36.376 9.48 36.472 9.784 36.472 10.232V12.184ZM36.648 19.592C36.648 20.1467 36.6053 20.6267 36.52 21.032C36.4453 21.448 36.3067 21.8053 36.104 22.104C35.912 22.4133 35.6453 22.6747 35.304 22.888C34.9733 23.112 34.5573 23.304 34.056 23.464C33.704 23.5813 33.416 23.6133 33.192 23.56C32.968 23.5067 32.8453 23.352 32.824 23.096C32.7707 22.872 32.7973 22.6907 32.904 22.552C33.0107 22.4133 33.2347 22.296 33.576 22.2C34.184 22.0293 34.6107 21.752 34.856 21.368H33.944C33.6027 21.368 33.3307 21.3467 33.128 21.304C32.936 21.272 32.7867 21.208 32.68 21.112C32.5733 21.016 32.504 20.8773 32.472 20.696C32.44 20.5147 32.424 20.28 32.424 19.992V19.24C32.424 18.9093 32.488 18.7013 32.616 18.616C32.744 18.5307 32.9253 18.488 33.16 18.488C33.4267 18.488 33.5973 18.5467 33.672 18.664C33.7467 18.7707 33.784 18.9627 33.784 19.24V19.96C33.784 20.0453 33.832 20.088 33.928 20.088H35.256C35.256 20.024 35.256 19.9547 35.256 19.88C35.2667 19.7947 35.272 19.7093 35.272 19.624V19.048C35.272 18.7813 35.3253 18.5947 35.432 18.488C35.5493 18.3707 35.72 18.312 35.944 18.312C36.1787 18.312 36.3547 18.3813 36.472 18.52C36.5893 18.6587 36.648 18.8347 36.648 19.048V19.592ZM41.64 16.248C41.7787 16.4613 41.9013 16.664 42.008 16.856C42.1253 17.048 42.232 17.24 42.328 17.432V13.288H40.328C40.4347 13.416 40.4453 13.5653 40.36 13.736C40.2853 13.896 40.1413 14.072 39.928 14.264C39.8213 14.36 39.688 14.4667 39.528 14.584C39.3787 14.7013 39.2773 14.7867 39.224 14.84C39.128 14.904 39.08 14.952 39.08 14.984C39.0907 15.0053 39.1547 15.0053 39.272 14.984C39.3147 14.9733 39.384 14.9733 39.48 14.984C39.576 14.9947 39.6453 14.9947 39.688 14.984C39.752 14.9413 39.8267 14.8827 39.912 14.808C39.9973 14.7333 40.0827 14.6587 40.168 14.584C40.264 14.5093 40.3493 14.4347 40.424 14.36C40.5093 14.2853 40.5787 14.2213 40.632 14.168C40.8987 13.912 41.1067 13.768 41.256 13.736C41.416 13.704 41.592 13.768 41.784 13.928C41.9653 14.0987 42.0507 14.248 42.04 14.376C42.0293 14.4933 41.9173 14.6533 41.704 14.856C41.4587 15.0693 41.2347 15.2507 41.032 15.4C40.8293 15.5493 40.6267 15.688 40.424 15.816C40.232 15.944 40.0293 16.072 39.816 16.2C39.6027 16.328 39.368 16.4773 39.112 16.648C39.0053 16.7227 38.9627 16.776 38.984 16.808C39.0053 16.8293 39.0587 16.8347 39.144 16.824C39.1867 16.8133 39.2773 16.7973 39.416 16.776C39.5547 16.7547 39.6987 16.7387 39.848 16.728C39.9973 16.7067 40.136 16.6853 40.264 16.664C40.4027 16.6427 40.4933 16.6267 40.536 16.616C40.4827 16.4133 40.5467 16.2267 40.728 16.056C40.9093 15.9387 41.0693 15.8907 41.208 15.912C41.3467 15.9333 41.4907 16.0453 41.64 16.248ZM42.328 11.944C42.328 11.8907 42.3067 11.8373 42.264 11.784C42.232 11.7307 42.1733 11.704 42.088 11.704H39.256C39.1813 11.704 39.1227 11.7307 39.08 11.784C39.048 11.8373 39.032 11.8907 39.032 11.944C39.032 12.0187 39.048 12.0933 39.08 12.168C39.1227 12.232 39.1813 12.264 39.256 12.264H42.088C42.1733 12.264 42.232 12.2267 42.264 12.152C42.3067 12.0667 42.328 11.9973 42.328 11.944ZM42.328 10.472C42.328 10.4187 42.3067 10.3653 42.264 10.312C42.232 10.2587 42.1733 10.232 42.088 10.232H39.24C39.1653 10.232 39.1067 10.264 39.064 10.328C39.032 10.3813 39.016 10.4347 39.016 10.488C39.016 10.552 39.032 10.6213 39.064 10.696C39.1067 10.76 39.1653 10.792 39.24 10.792H42.088C42.1733 10.792 42.232 10.76 42.264 10.696C42.3067 10.6213 42.328 10.5467 42.328 10.472ZM34.792 10.504C34.792 10.44 34.7707 10.3813 34.728 10.328C34.696 10.264 34.6373 10.232 34.552 10.232H31.976C31.9013 10.232 31.8427 10.264 31.8 10.328C31.768 10.3813 31.752 10.44 31.752 10.504C31.752 10.568 31.768 10.6373 31.8 10.712C31.8427 10.776 31.9013 10.808 31.976 10.808H34.552C34.6373 10.808 34.696 10.776 34.728 10.712C34.7707 10.6373 34.792 10.568 34.792 10.504ZM34.792 11.944C34.792 11.8907 34.7707 11.8427 34.728 11.8C34.696 11.7467 34.6373 11.72 34.552 11.72H31.976C31.9013 11.72 31.8427 11.7467 31.8 11.8C31.768 11.8533 31.752 11.9067 31.752 11.96C31.752 12.0347 31.768 12.104 31.8 12.168C31.8427 12.232 31.9013 12.264 31.976 12.264H34.552C34.6373 12.264 34.696 12.2267 34.728 12.152C34.7707 12.0667 34.792 11.9973 34.792 11.944ZM49.656 18.856C49.2827 19.6987 48.904 20.4773 48.52 21.192C48.136 21.9067 47.72 22.6 47.272 23.272C47.0587 23.5707 46.808 23.7413 46.52 23.784C46.2427 23.8267 45.9973 23.7573 45.784 23.576V23.592C45.5493 23.4 45.4213 23.1813 45.4 22.936C45.3893 22.7013 45.5227 22.3973 45.8 22.024C46.1947 21.5013 46.568 20.9093 46.92 20.248C47.272 19.5867 47.6027 18.872 47.912 18.104V18.12C48.0507 17.7573 48.216 17.5227 48.408 17.416C48.6 17.3093 48.856 17.3147 49.176 17.432L49.16 17.416C49.4693 17.5227 49.672 17.688 49.768 17.912C49.864 18.136 49.8213 18.4507 49.64 18.856H49.656ZM49.432 11.88C49.2187 12.072 48.9947 12.1627 48.76 12.152C48.5253 12.1307 48.2533 11.976 47.944 11.688V11.704C47.7627 11.544 47.6027 11.4107 47.464 11.304C47.336 11.1867 47.2133 11.0853 47.096 11C46.9893 10.904 46.8773 10.8133 46.76 10.728C46.6427 10.632 46.5093 10.5253 46.36 10.408C46.104 10.2053 45.9493 9.99733 45.896 9.784C45.8427 9.56 45.9227 9.30933 46.136 9.032C46.52 8.57333 47 8.55733 47.576 8.984C47.768 9.13333 47.9333 9.26133 48.072 9.368C48.2213 9.47467 48.36 9.576 48.488 9.672C48.616 9.768 48.7387 9.86933 48.856 9.976C48.984 10.072 49.128 10.2 49.288 10.36C49.5227 10.5947 49.6773 10.8347 49.752 11.08C49.8267 11.3253 49.7253 11.5867 49.448 11.864L49.432 11.88ZM49.192 15.896C49 16.12 48.7867 16.2373 48.552 16.248C48.3173 16.248 48.0347 16.1147 47.704 15.848V15.864C47.5013 15.7253 47.3307 15.6133 47.192 15.528C47.0533 15.432 46.92 15.3467 46.792 15.272C46.6747 15.1867 46.552 15.1067 46.424 15.032C46.296 14.9467 46.152 14.856 45.992 14.76C45.7147 14.568 45.5387 14.3707 45.464 14.168C45.4 13.9653 45.4587 13.7093 45.64 13.4C45.9707 12.9093 46.4453 12.8453 47.064 13.208C47.2773 13.336 47.4587 13.448 47.608 13.544C47.7573 13.6293 47.896 13.7147 48.024 13.8C48.1627 13.8853 48.296 13.976 48.424 14.072C48.5627 14.1573 48.7227 14.2693 48.904 14.408C49.1707 14.6213 49.3467 14.8453 49.432 15.08C49.528 15.3147 49.4533 15.5813 49.208 15.88L49.192 15.896ZM54.104 10.808C54.04 10.712 53.992 10.6373 53.96 10.584C53.928 10.5307 53.896 10.4827 53.864 10.44C53.8427 10.3973 53.816 10.3547 53.784 10.312C53.752 10.2587 53.704 10.184 53.64 10.088L53.656 10.104C53.4213 9.79467 53.3147 9.528 53.336 9.304C53.368 9.08 53.5227 8.86133 53.8 8.648C54.3653 8.27467 54.8507 8.408 55.256 9.048C55.2667 9.08 55.2933 9.13333 55.336 9.208C55.3787 9.272 55.4267 9.34667 55.48 9.432C55.5333 9.51733 55.5867 9.60267 55.64 9.688C55.704 9.77333 55.752 9.84267 55.784 9.896C56.0187 10.3013 56.0613 10.6373 55.912 10.904H59.544C59.9067 10.904 60.152 11 60.28 11.192C60.408 11.3733 60.472 11.6027 60.472 11.88C60.472 12.1573 60.408 12.3813 60.28 12.552C60.152 12.7227 59.9067 12.808 59.544 12.808H56.184V15.816H59.048C59.4107 15.816 59.656 15.9067 59.784 16.088C59.912 16.2587 59.976 16.488 59.976 16.776C59.976 17.064 59.912 17.2987 59.784 17.48C59.656 17.6507 59.4107 17.736 59.048 17.736H56.184V21.608H59.816C60.1787 21.608 60.424 21.688 60.552 21.848C60.68 22.0187 60.744 22.2587 60.744 22.568C60.744 22.8773 60.68 23.112 60.552 23.272C60.424 23.4427 60.1787 23.528 59.816 23.528H50.328C49.9653 23.528 49.72 23.4427 49.592 23.272C49.464 23.112 49.4 22.8773 49.4 22.568C49.4 22.2587 49.464 22.0187 49.592 21.848C49.72 21.688 49.9653 21.608 50.328 21.608H54.28V17.736H51.368C50.9947 17.736 50.7493 17.6507 50.632 17.48C50.5147 17.2987 50.456 17.064 50.456 16.776C50.456 16.488 50.5147 16.2587 50.632 16.088C50.7493 15.9067 50.9947 15.816 51.368 15.816H54.28V12.808H51.048C50.664 12.808 50.4133 12.7227 50.296 12.552C50.1787 12.3813 50.12 12.1573 50.12 11.88C50.12 11.6027 50.1787 11.3733 50.296 11.192C50.4133 11 50.664 10.904 51.048 10.904H54.168C54.1467 10.8827 54.1307 10.856 54.12 10.824L54.104 10.808Z" fill="white"/>
</svg>
