<svg width="28" height="28" viewBox="0 0 28 28" fill="none" xmlns="http://www.w3.org/2000/svg">
<path fill-rule="evenodd" clip-rule="evenodd" d="M2.59109 1.0567C2.02316 1.18978 1.47055 1.64526 1.21865 2.18786L1.05635 2.53733L1.039 6.04104C1.02356 9.16819 1.03173 9.5823 1.11553 9.89444C1.28848 10.5388 1.79318 11.0698 2.43387 11.2815C2.66813 11.3589 3.15238 11.3679 6.35885 11.3542L10.0166 11.3386L10.2824 11.2072C10.6818 11.0097 11.0169 10.6867 11.2323 10.2915L11.4255 9.93716L11.4411 6.29852C11.4549 3.1088 11.4459 2.62708 11.368 2.39405C11.1615 1.77538 10.6687 1.29669 10.0371 1.10115C9.71856 1.00249 9.47466 0.996039 6.24998 1.00131C4.35429 1.00445 2.70786 1.02934 2.59109 1.0567ZM13.725 1.13097L13.5669 1.2663V6.20921V11.1521L13.725 11.2875C13.812 11.3618 13.931 11.4227 13.9896 11.4227C14.0481 11.4227 14.1671 11.3618 14.2541 11.2875L14.4122 11.1521V6.20921V1.2663L14.2541 1.13097C14.0545 0.960217 13.9246 0.960217 13.725 1.13097ZM17.9233 1.10283C17.306 1.30111 16.8145 1.78479 16.6111 2.39405C16.5333 2.62708 16.5242 3.1088 16.538 6.29852L16.5537 9.93716L16.7452 10.2885C16.9655 10.6928 17.2407 10.9603 17.6646 11.1825L17.9625 11.3386L21.6203 11.3542C24.8267 11.3679 25.311 11.3589 25.5452 11.2815C26.1859 11.0698 26.6906 10.5388 26.8636 9.89444C26.9474 9.5823 26.9556 9.16808 26.9401 6.03975L26.9228 2.53481L26.7396 2.16482C26.5225 1.72616 26.1687 1.38167 25.721 1.17285L25.4012 1.02373L21.8227 1.01174C18.483 1.00052 18.2229 1.00658 17.9233 1.10283ZM9.86344 1.92365C10.1276 2.03342 10.3625 2.2535 10.5008 2.52108C10.6032 2.71913 10.6083 2.8946 10.6083 6.19817V9.66723L10.4772 9.91434C10.4051 10.0502 10.2381 10.2371 10.1061 10.3296L9.86609 10.4977L6.39109 10.5142C4.47979 10.5232 2.83775 10.5165 2.74207 10.4993C2.50549 10.4568 2.10634 10.1053 1.97977 9.82818C1.88267 9.61543 1.87591 9.38396 1.87506 6.23724C1.87444 4.01853 1.89462 2.80019 1.9344 2.6578C2.00868 2.39158 2.41561 1.97399 2.67236 1.90039C2.78151 1.86911 4.27709 1.84461 6.2568 1.84164C9.20838 1.83726 9.68142 1.84803 9.86344 1.92365ZM25.5317 2.01929C25.6609 2.10433 25.8365 2.27901 25.922 2.40756L26.0774 2.64115L26.0947 6.06492C26.1066 8.43886 26.0929 9.55343 26.0498 9.69986C25.9716 9.96614 25.7008 10.2759 25.4229 10.417C25.2175 10.5212 25.062 10.5258 21.7211 10.5258H18.2338L17.9854 10.3953C17.8488 10.3236 17.661 10.1575 17.568 10.0262L17.399 9.78742L17.3836 6.26068C17.3689 2.8701 17.3725 2.72575 17.4771 2.52349C17.5369 2.40778 17.658 2.2451 17.746 2.16202C18.0992 1.82886 17.979 1.83805 21.7987 1.85195L25.2968 1.86462L25.5317 2.01929ZM16.6075 13.6345C16.5314 13.7102 16.4691 13.8375 16.4691 13.9174C16.4691 13.9972 16.5314 14.1245 16.6075 14.2002L16.7458 14.3378H21.71H26.6743L26.8126 14.2002C26.8887 14.1245 26.9509 13.9972 26.9509 13.9174C26.9509 13.8375 26.8887 13.7102 26.8126 13.6345L26.6743 13.4969H21.71H16.7458L16.6075 13.6345ZM1.27134 13.609C1.01837 13.7113 0.958918 14.0109 1.145 14.2462L1.26176 14.3939H6.24755H11.2333L11.3779 14.25C11.4951 14.1335 11.5158 14.0723 11.4868 13.9284C11.4121 13.5565 11.7802 13.5821 6.33755 13.5701C3.55587 13.5639 1.34066 13.5809 1.27134 13.609ZM13.7119 13.7007C13.5213 13.9417 13.5657 14.1787 13.8269 14.313C14.0228 14.4139 14.2424 14.3699 14.3572 14.2068C14.6558 13.7827 14.0332 13.2943 13.7119 13.7007ZM2.40885 16.6934C1.78467 16.8945 1.26526 17.4265 1.06886 18.0658C1.01775 18.2323 1 19.1988 1 21.8217V25.3535L1.1308 25.6756C1.30341 26.1009 1.73683 26.5673 2.14455 26.7665L2.4652 26.9231H6.21273H9.96026L10.2794 26.7672C10.7042 26.5597 11.0386 26.2179 11.251 25.7739L11.4255 25.4095V21.7937V18.1779L11.2956 17.8582C11.1137 17.4103 10.7386 17.0158 10.2819 16.7921L9.90644 16.6082L6.32673 16.5963C2.9171 16.585 2.73091 16.5896 2.40885 16.6934ZM13.725 16.7154L13.5669 16.8508V21.7937V26.7366L13.725 26.8719C13.9246 27.0427 14.0545 27.0427 14.2541 26.8719L14.4122 26.7366V21.7937V16.8508L14.2541 16.7154C14.1671 16.6411 14.0481 16.5802 13.9896 16.5802C13.931 16.5802 13.812 16.6411 13.725 16.7154ZM18.043 16.6568C17.447 16.8167 16.9158 17.2869 16.6823 17.8613L16.5537 18.1779V21.7937V25.4095L16.7288 25.7739C16.939 26.2111 17.2872 26.5657 17.7085 26.7715L18.0189 26.9231H21.7664H25.5139L25.8346 26.7665C26.2436 26.5667 26.6762 26.1006 26.8472 25.6756C26.9763 25.3545 26.9769 25.3426 26.9958 22.1028C27.008 20.006 26.9934 18.6944 26.9546 18.4077C26.8394 17.5557 26.3323 16.9305 25.5654 16.6949C25.2059 16.5844 25.0645 16.5803 21.7464 16.5839C19.2034 16.5867 18.2331 16.6059 18.043 16.6568ZM9.93602 17.5752C10.2616 17.7393 10.4565 17.9725 10.5511 18.3114C10.586 18.4365 10.6078 19.7617 10.608 21.7695C10.6084 25.3806 10.6042 25.428 10.2576 25.7551C9.86237 26.1284 10.0673 26.1103 6.24192 26.1103C3.23702 26.1103 2.74353 26.0986 2.5628 26.0235C2.29642 25.9128 2.11626 25.7447 1.97949 25.4794C1.87534 25.2774 1.87162 25.1287 1.88633 21.7194L1.90166 18.1696L2.05286 17.9424C2.15136 17.7943 2.30741 17.6639 2.50065 17.5681L2.79729 17.4211H6.21369H9.63008L9.93602 17.5752ZM25.4785 17.5681C25.6717 17.6639 25.8277 17.7943 25.9263 17.9424L26.0774 18.1696L26.0928 21.7194C26.1075 25.1287 26.1038 25.2774 25.9996 25.4794C25.8629 25.7447 25.6827 25.9128 25.4163 26.0235C25.2356 26.0986 24.7421 26.1103 21.7378 26.1103C18.4143 26.1103 18.2589 26.1057 18.0535 26.0014C17.7312 25.8379 17.5032 25.5466 17.4283 25.2028C17.3822 24.9914 17.3685 23.9449 17.3812 21.5975C17.399 18.2952 17.3992 18.2896 17.5252 18.055C17.6613 17.8017 17.9176 17.5827 18.1879 17.4887C18.2981 17.4504 19.5454 17.4284 21.7694 17.4255L25.1818 17.4211L25.4785 17.5681Z" fill="white" stroke="white" stroke-width="0.7"/>
</svg>
