<svg width="20" height="26" viewBox="0 0 20 26" fill="none" xmlns="http://www.w3.org/2000/svg">
<path fill-rule="evenodd" clip-rule="evenodd" d="M7.59298 0.0322608C6.6836 0.158015 5.62764 0.743004 5.06378 1.43343C4.69246 1.88815 4.4056 2.43642 4.20829 3.06869C4.16385 3.2111 4.13647 3.92484 4.11672 5.45578L4.08853 7.63972L2.4554 7.65313L0.822327 7.66648L0.789975 8.18641C0.740912 8.97476 0 25.436 0 25.7373V26H9.95468H19.9094V25.7373C19.9094 25.436 19.1684 8.97481 19.1194 8.18646L19.0871 7.66658L17.5809 7.65318L16.0748 7.63972L16.0466 5.45578C16.0268 3.92484 15.9995 3.2111 15.955 3.06869C15.5621 1.80968 14.8499 0.940879 13.7893 0.426943C13.1855 0.134398 12.8434 0.0488689 12.1284 0.0119452C11.427 -0.0243183 10.9177 0.0443994 10.3466 0.252432L9.95122 0.396419L9.61012 0.267719C8.9971 0.0364763 8.21906 -0.0543347 7.59298 0.0322608ZM12.5682 1.54659C13.4489 1.77601 14.1808 2.49711 14.4447 3.39537C14.5128 3.62727 14.5257 3.98924 14.5257 5.66915V7.66704L13.3956 7.65338L12.2656 7.63972L12.2372 5.48118C12.2107 3.46734 12.2015 3.29958 12.1009 2.979C11.9579 2.52357 11.7846 2.15179 11.5598 1.81841C11.3766 1.54664 11.3762 1.54481 11.4904 1.512C11.7047 1.4504 12.2683 1.46848 12.5682 1.54659ZM8.48179 1.57397C8.48179 1.60383 8.41165 1.73024 8.32587 1.85488C8.13013 2.13945 7.94764 2.53591 7.80848 2.979C7.70781 3.29958 7.69867 3.46734 7.67216 5.48118L7.64377 7.63972L6.64068 7.65348L5.6376 7.66724V5.66925C5.6376 3.51858 5.6472 3.42376 5.91988 2.88534C6.16682 2.39761 6.75313 1.8789 7.26503 1.69525C7.71807 1.53273 8.48179 1.45659 8.48179 1.57397ZM10.1519 2.4771C10.3625 2.74303 10.5454 3.11877 10.6388 3.47729C10.702 3.72001 10.7165 4.13851 10.7165 5.72039V7.66511H9.95468H9.19284V5.72039C9.19284 3.62057 9.20955 3.45504 9.47538 2.92582C9.61454 2.64882 9.88779 2.28146 9.95468 2.28146C9.97794 2.28146 10.0667 2.36953 10.1519 2.4771ZM4.10138 16.8199L4.08853 24.4509L2.8254 24.4645L1.56227 24.4781L1.59402 24.0074C1.61154 23.7485 1.76335 20.4284 1.93146 16.6294C2.09957 12.8304 2.2496 9.60206 2.26494 9.45543L2.29283 9.18879H3.20353H4.11423L4.10138 16.8199ZM7.66916 9.95062V10.7125H8.431H9.19284V9.95062V9.18879H11.8593H14.5257V9.95062V10.7125H15.2875H16.0494V9.95062V9.18879H16.833H17.6165L17.6444 9.45543C17.6597 9.60206 17.8098 12.8304 17.9779 16.6294C18.146 20.4284 18.2978 23.7482 18.3152 24.0065L18.347 24.4763H11.9923H5.6376V16.8326V9.18879H6.65338H7.66916V9.95062Z" fill="#49AAE8"/>
</svg>
