<svg width="20" height="20" viewBox="0 0 20 20" fill="none" xmlns="http://www.w3.org/2000/svg">
<path fill-rule="evenodd" clip-rule="evenodd" d="M9.04957 0.0239431C5.92921 0.344179 3.1778 2.05291 1.51173 4.70517C-0.39151 7.73505 -0.506358 11.6618 1.21663 14.7969C1.99161 16.2072 3.14807 17.4673 4.47683 18.3492C5.75342 19.1965 7.16092 19.721 8.77575 19.951C9.23236 20.016 10.7787 20.0165 11.2401 19.9517C13.7069 19.6055 15.7457 18.5439 17.409 16.7396C18.7728 15.2604 19.6478 13.3655 19.9509 11.2353C20.0164 10.7749 20.0164 9.22996 19.9509 8.76953C19.7195 7.14311 19.2047 5.76044 18.3496 4.46819C17.9858 3.91859 17.6226 3.47519 17.1165 2.96305C15.5543 1.38199 13.6206 0.406293 11.3966 0.07682C10.9182 0.00593917 9.52977 -0.025333 9.04957 0.0239431ZM11.129 1.06078C12.1656 1.19675 13.073 1.46986 13.9783 1.91851C14.9695 2.40967 15.7199 2.95742 16.4842 3.74767C18.1262 5.44549 19.0048 7.62581 19.0048 10.0024C19.0048 12.3553 18.1419 14.52 16.5312 16.2081C15.7649 17.0111 15.0146 17.5652 14.0096 18.0704C12.1794 18.9903 10.0328 19.2466 7.99994 18.7878C6.66461 18.4865 5.306 17.8143 4.25254 16.9338C2.48468 15.4562 1.3729 13.4258 1.07135 11.1241C0.995578 10.5457 0.993505 9.49388 1.06704 8.90503C1.49796 5.45332 3.87193 2.54775 7.1524 1.45698C7.74561 1.25976 8.27611 1.13612 8.85399 1.06046C9.41125 0.987469 10.5715 0.987625 11.129 1.06078ZM5.55623 6.1116C4.75022 6.51348 4.8601 7.69782 5.72678 7.94992C6.11756 8.06358 6.46996 7.95626 6.74957 7.63845C7.31563 6.99504 6.86164 6.01422 5.99633 6.01109C5.81874 6.01042 5.70871 6.03559 5.55623 6.1116ZM13.5871 6.10349C12.9866 6.38757 12.8291 7.14142 13.2663 7.63845C13.5459 7.95626 13.8983 8.06358 14.2891 7.94992C14.9808 7.74874 15.2347 6.90702 14.7729 6.34639C14.5053 6.0215 13.9855 5.91504 13.5871 6.10349ZM5.14879 11.1401L5.02885 11.2601L5.05248 11.6C5.13811 12.8307 5.90809 14.1788 6.99163 14.9949C7.88177 15.6654 8.88356 15.9988 10.0079 15.9988C11.0702 15.9988 11.986 15.7157 12.8635 15.116C13.2237 14.8697 13.8369 14.2638 14.0934 13.9006C14.5917 13.1948 14.9758 12.1364 14.9758 11.4688C14.9758 11.2779 14.9607 11.2337 14.8615 11.1344C14.6417 10.9146 14.2399 11.017 14.123 11.3226C14.1002 11.3822 14.0616 11.5543 14.0373 11.705C13.799 13.1805 12.6896 14.4499 11.2401 14.9056C10.7508 15.0595 10.3822 15.1042 9.80167 15.08C9.20717 15.0552 8.78905 14.9523 8.25917 14.7004C7.05762 14.1292 6.18726 12.9929 5.9799 11.7245C5.9535 11.5631 5.9138 11.3822 5.89166 11.3226C5.77689 11.0135 5.37418 10.9145 5.14879 11.1401Z" fill="black"/>
</svg>
