<svg width="18" height="18" viewBox="0 0 18 18" fill="none" xmlns="http://www.w3.org/2000/svg">
<path d="M9.08171 0.845102C9.02275 0.725635 8.90108 0.65 8.76785 0.65C8.63463 0.65 8.51295 0.725635 8.45399 0.845102L6.04759 5.721L0.666717 6.50289C0.534877 6.52205 0.425346 6.61439 0.384177 6.7411C0.343008 6.8678 0.377342 7.00689 0.472743 7.09988L4.36638 10.8952L3.44722 16.2544C3.4247 16.3857 3.47867 16.5184 3.58646 16.5967C3.69424 16.675 3.83713 16.6853 3.95505 16.6233L8.76785 14.0931L13.5807 16.6233C13.6986 16.6853 13.8415 16.675 13.9492 16.5967C14.057 16.5184 14.111 16.3857 14.0885 16.2544L13.1693 10.8952L17.063 7.09988C17.1584 7.00689 17.1927 6.8678 17.1515 6.7411C17.1104 6.61439 17.0008 6.52205 16.869 6.50289L11.4881 5.721L9.08171 0.845102Z" stroke="#FFD703" stroke-width="0.7" stroke-linejoin="round"/>
</svg>
