<svg width="18" height="18" viewBox="0 0 18 18" fill="none" xmlns="http://www.w3.org/2000/svg">
<path d="M9.31413 0.845102C9.25517 0.725635 9.1335 0.65 9.00027 0.65C8.86705 0.65 8.74538 0.725635 8.68641 0.845102L6.28001 5.721L0.899139 6.50289C0.767299 6.52205 0.657768 6.61439 0.616599 6.7411C0.57543 6.8678 0.609764 7.00689 0.705165 7.09988L4.5988 10.8952L3.67964 16.2544C3.65712 16.3857 3.7111 16.5184 3.81888 16.5967C3.92666 16.675 4.06955 16.6853 4.18747 16.6233L9.00027 14.0931L13.8131 16.6233C13.931 16.6853 14.0739 16.675 14.1817 16.5967C14.2894 16.5184 14.3434 16.3857 14.3209 16.2544L13.4017 10.8952L17.2954 7.09988C17.3908 7.00689 17.4251 6.8678 17.3839 6.7411C17.3428 6.61439 17.2332 6.52205 17.1014 6.50289L11.7205 5.721L9.31413 0.845102Z" fill="#FFD703" stroke="#FFD703" stroke-width="0.7" stroke-linejoin="round"/>
</svg>
