<svg width="12" height="24" viewBox="0 0 12 24" fill="none" xmlns="http://www.w3.org/2000/svg">
<path d="M8.83636 14.1254V3.3329C8.83636 1.49513 7.34085 0 5.50269 0C3.66481 0 2.16959 1.49513 2.16959 3.3329V14.1253C0.80416 15.1655 0 16.772 0 18.4972C0 21.5315 2.46841 24 5.50269 24C8.53716 24 11.0058 21.5315 11.0058 18.4972C11.0058 16.7722 10.2016 15.1657 8.83636 14.1254ZM5.50269 22.5611C3.26192 22.5611 1.43891 20.7381 1.43891 18.4972C1.43891 17.126 2.12844 15.8557 3.28341 15.099C3.48629 14.966 3.6086 14.7397 3.6086 14.4972V3.3329C3.6086 2.28854 4.45833 1.43891 5.50279 1.43891C6.54763 1.43891 7.39755 2.28854 7.39755 3.3329V14.4972C7.39755 14.7398 7.51976 14.966 7.72274 15.099C8.87751 15.8558 9.56704 17.1261 9.56704 18.4972C9.56685 20.7381 7.74365 22.5611 5.50269 22.5611Z" fill="black"/>
<path d="M6.22226 16.2159V6.70774C6.22226 6.31041 5.90023 5.98828 5.5028 5.98828C5.10538 5.98828 4.78335 6.31041 4.78335 6.70774V16.2159C3.81409 16.5212 3.11133 17.4267 3.11133 18.4973C3.11133 19.818 4.18188 20.8889 5.5028 20.8889C6.82401 20.8889 7.89447 19.818 7.89447 18.4973C7.89437 17.4266 7.19161 16.521 6.22226 16.2159Z" fill="black"/>
</svg>
