<svg width="16" height="20" viewBox="0 0 16 20" fill="none" xmlns="http://www.w3.org/2000/svg">
<path fill-rule="evenodd" clip-rule="evenodd" d="M1.58978 0.0753833C0.849701 0.278236 0.269216 0.878404 0.0739837 1.64251C-0.0246612 2.02848 -0.0246612 17.9763 0.0739837 18.3623C0.271755 19.1363 0.853423 19.7311 1.60861 19.9317C1.83348 19.9914 2.60412 20 7.71461 20C12.8251 20 13.5957 19.9914 13.8206 19.9317C14.5758 19.7311 15.1575 19.1363 15.3552 18.3623C15.4506 17.9891 15.4541 5.65931 15.359 5.43735C15.3251 5.35835 14.3187 4.13213 13.1225 2.71247C11.5189 0.809269 10.9086 0.11457 10.7993 0.0680189C10.5757 -0.027226 1.93874 -0.0203079 1.58978 0.0753833ZM9.82599 3.70607C9.83781 5.92223 9.8404 5.98213 9.9284 6.10228C9.97806 6.17003 10.0731 6.26688 10.1395 6.31749C10.2566 6.40662 10.3199 6.40993 12.1404 6.42207L14.0204 6.43461L14.009 12.2768C13.9976 18.0987 13.9973 18.1193 13.9073 18.2422C13.8576 18.31 13.7626 18.4068 13.6961 18.4574C13.5754 18.5493 13.5655 18.5495 7.71461 18.5495C1.86373 18.5495 1.8538 18.5493 1.73308 18.4574C1.66658 18.4068 1.57156 18.31 1.52191 18.2422L1.43163 18.1189L1.41911 10.1219C1.41224 5.72353 1.41793 2.06017 1.43181 1.98108C1.4632 1.80215 1.64727 1.57408 1.8235 1.49584C1.93116 1.44804 2.71835 1.43622 5.88545 1.43479L9.81391 1.43305L9.82599 3.70607ZM12.225 3.84318C12.6658 4.37095 13.0661 4.84794 13.1146 4.90319L13.2029 5.00361H12.2101H11.2173V3.83305V2.66244L11.3204 2.77304C11.3771 2.83383 11.7842 3.31541 12.225 3.84318ZM3.22458 2.92345C2.93464 3.0535 2.76796 3.39534 2.83 3.73254C2.86835 3.94106 3.08688 4.1877 3.28557 4.2467C3.39253 4.27852 4.19693 4.28981 5.70835 4.28075C7.91461 4.26754 7.97398 4.26491 8.09185 4.17515C8.32158 4.00024 8.39326 3.85764 8.39326 3.57539C8.39326 3.29313 8.32158 3.15053 8.09185 2.97562C7.97376 2.88569 7.91785 2.88337 5.66452 2.87359C3.81391 2.86551 3.33172 2.87538 3.22458 2.92345ZM5.32839 7.20648C5.00413 7.35948 4.91244 7.57723 4.91244 8.19418V8.65635L4.77015 8.68532C3.91352 8.85983 3.30006 9.29321 3.00097 9.9351C2.64339 10.7027 2.82588 11.5155 3.49888 12.1524C3.95892 12.5878 4.55806 12.796 5.52542 12.8565C6.38104 12.9101 6.70972 13.0392 6.95264 13.4171C7.10855 13.6597 6.84467 14.0218 6.3961 14.181C6.06116 14.2999 5.16481 14.2999 4.82987 14.181C4.5162 14.0697 4.26628 13.8374 4.23134 13.6247C4.18016 13.3129 4.11816 13.175 3.96934 13.0418C3.59486 12.7067 2.98819 12.8777 2.84699 13.3582C2.77562 13.6009 2.85106 14.0355 3.02825 14.4024C3.28942 14.9431 3.99036 15.4692 4.625 15.6008L4.89055 15.6559L4.91244 16.1734C4.93604 16.7316 4.97291 16.8291 5.23579 17.0292C5.40532 17.1582 5.82065 17.1582 5.99018 17.0292C6.25284 16.8293 6.28993 16.7314 6.31353 16.1756L6.33542 15.6602L6.65605 15.5774C7.92963 15.2483 8.66064 14.1618 8.33218 13.0861C8.10652 12.347 7.46044 11.7717 6.59812 11.542C6.45363 11.5035 6.03988 11.4544 5.67866 11.4329C4.78249 11.3794 4.45394 11.2466 4.25814 10.8589C4.13235 10.6099 4.39746 10.2619 4.82987 10.1085C5.1917 9.98 6.11089 9.99268 6.45547 10.1309C6.76848 10.2564 6.9582 10.4436 6.99419 10.6625C7.0459 10.9769 7.1075 11.1142 7.25663 11.2477C7.71947 11.6619 8.41515 11.3194 8.41515 10.6773C8.41515 10.4304 8.27469 9.99835 8.10866 9.73457C7.81566 9.26919 7.23946 8.88027 6.61261 8.72482L6.32062 8.65242L6.30613 8.12545C6.29049 7.55773 6.25639 7.46289 5.99666 7.26521C5.85156 7.15479 5.50287 7.12413 5.32839 7.20648Z" fill="black"/>
</svg>
