<svg width="19" height="24" viewBox="0 0 19 24" fill="none" xmlns="http://www.w3.org/2000/svg">
<path fill-rule="evenodd" clip-rule="evenodd" d="M2.00344 0.0904599C1.11534 0.333883 0.418762 1.05408 0.184484 1.97101C0.0661097 2.43418 0.0661097 21.5716 0.184484 22.0348C0.421809 22.9635 1.11981 23.6774 2.02603 23.918C2.29588 23.9897 3.22064 24 9.35323 24C15.4858 24 16.4106 23.9897 16.6804 23.918C17.5867 23.6774 18.2847 22.9635 18.522 22.0348C18.6364 21.5869 18.6407 6.79117 18.5264 6.52482C18.4858 6.43002 17.2781 4.95855 15.8427 3.25496C13.9184 0.971123 13.1861 0.137484 13.0548 0.0816227C12.7866 -0.0326711 2.42219 -0.0243695 2.00344 0.0904599ZM11.8869 4.44728C11.9011 7.10668 11.9042 7.17855 12.0098 7.32273C12.0694 7.40404 12.1834 7.52026 12.2631 7.58099C12.4036 7.68795 12.4796 7.69191 14.6642 7.70648L16.9202 7.72153L16.9065 14.7321C16.8929 21.7184 16.8924 21.7432 16.7845 21.8906C16.7249 21.972 16.6109 22.0882 16.5311 22.1489C16.3862 22.2592 16.3743 22.2593 9.35323 22.2593C2.33218 22.2593 2.32026 22.2592 2.1754 22.1489C2.09559 22.0882 1.98158 21.972 1.922 21.8906L1.81366 21.7427L1.79863 12.1463C1.79039 6.86824 1.79722 2.47221 1.81387 2.3773C1.85154 2.16259 2.07242 1.8889 2.2839 1.79501C2.4131 1.73765 3.35772 1.72346 7.15825 1.72175L11.8724 1.71966L11.8869 4.44728ZM14.7657 4.61182C15.2946 5.24515 15.7751 5.81753 15.8333 5.88383L15.9391 6.00434H14.7478H13.5565V4.59966V3.19493L13.6802 3.32764C13.7483 3.40059 14.2367 3.97849 14.7657 4.61182ZM3.9652 3.50814C3.61727 3.66421 3.41725 4.07441 3.4917 4.47904C3.53773 4.72927 3.79996 5.02523 4.03839 5.09604C4.16674 5.13423 5.13202 5.14778 6.94572 5.1369C9.59324 5.12105 9.66448 5.11789 9.80592 5.01018C10.0816 4.80029 10.1676 4.62917 10.1676 4.29047C10.1676 3.95176 10.0816 3.78064 9.80592 3.57075C9.66422 3.46283 9.59713 3.46004 6.89313 3.44831C4.67239 3.43862 4.09376 3.45045 3.9652 3.50814ZM6.48977 8.64777C6.10066 8.83137 5.99064 9.09268 5.99064 9.83302V10.3876L5.81988 10.4224C4.79192 10.6318 4.05578 11.1518 3.69687 11.9221C3.26777 12.8433 3.48676 13.8186 4.29436 14.5829C4.84641 15.1054 5.56537 15.3552 6.7262 15.4279C7.75295 15.4921 8.14737 15.647 8.43887 16.1005C8.62597 16.3916 8.3093 16.8262 7.77103 17.0173C7.36909 17.1599 6.29348 17.1599 5.89154 17.0173C5.51514 16.8837 5.21524 16.6049 5.17332 16.3496C5.1119 15.9754 5.0375 15.81 4.85891 15.6502C4.40953 15.248 3.68153 15.4532 3.51209 16.0299C3.42645 16.3211 3.51697 16.8425 3.72961 17.2829C4.04301 17.9317 4.88413 18.5631 5.64571 18.721L5.96437 18.7871L5.99064 19.4081C6.01896 20.078 6.06319 20.1949 6.37865 20.435C6.58208 20.5899 7.08048 20.5899 7.28392 20.435C7.59911 20.1951 7.64361 20.0777 7.67193 19.4107L7.6982 18.7923L8.08296 18.6928C9.61126 18.2979 10.4885 16.9942 10.0943 15.7033C9.82352 14.8164 9.04823 14.126 8.01345 13.8504C7.84006 13.8042 7.34356 13.7453 6.9101 13.7194C5.8347 13.6552 5.44043 13.4959 5.20547 13.0307C5.05452 12.7319 5.37265 12.3143 5.89154 12.1301C6.32574 11.976 7.42878 11.9912 7.84227 12.1571C8.21788 12.3077 8.44554 12.5324 8.48873 12.795C8.55078 13.1722 8.6247 13.337 8.80366 13.4972C9.35906 13.9943 10.1939 13.5833 10.1939 12.8127C10.1939 12.5165 10.0253 11.998 9.8261 11.6815C9.47449 11.123 8.78306 10.6563 8.03084 10.4698L7.68045 10.3829L7.66305 9.75054C7.6443 9.06928 7.60337 8.95547 7.2917 8.71825C7.11758 8.58575 6.69915 8.54896 6.48977 8.64777Z" fill="white"/>
</svg>
