<svg width="24" height="17" viewBox="0 0 24 17" fill="none" xmlns="http://www.w3.org/2000/svg">
<path d="M18.0391 4.86231C18.0063 4.86231 1.69222 4.86231 1.69222 4.86231L5.12937 1.0098C5.35226 0.759956 5.33042 0.376753 5.08057 0.153863C4.83083 -0.0689806 4.44753 -0.0472306 4.22464 0.20266L0.353613 4.5414C-0.117902 5.07006 -0.117855 5.86712 0.35366 6.39563L4.22469 10.7344C4.3445 10.8687 4.51048 10.9371 4.67722 10.9371C4.82084 10.9371 4.96498 10.8863 5.08062 10.7832C5.33046 10.5603 5.35226 10.1771 5.12942 9.92728L1.69227 6.07473C1.69227 6.07473 18.0063 6.07473 18.0391 6.07473C20.6574 6.07473 22.7875 8.20491 22.7875 10.8232C22.7875 13.4414 20.6574 15.5716 18.0391 15.5716H15.1525C14.8177 15.5716 14.5463 15.843 14.5463 16.1778C14.5463 16.5126 14.8177 16.7841 15.1525 16.7841H18.0391C21.326 16.7841 24 14.11 24 10.8232C24 7.53634 21.3259 4.86231 18.0391 4.86231Z" fill="black"/>
</svg>
