<svg width="20" height="20" viewBox="0 0 20 20" fill="none" xmlns="http://www.w3.org/2000/svg">
<path d="M19 15.1429V17.7143C19 18.4234 18.4234 19 17.7143 19H2.28571C1.57664 19 1 18.4234 1 17.7143V15.1429C1 14.788 1.28736 14.5 1.64286 14.5C1.99836 14.5 2.28571 14.788 2.28571 15.1429V17.7143H17.7143V15.1429C17.7143 14.788 18.0016 14.5 18.3571 14.5C18.7126 14.5 19 14.788 19 15.1429Z" fill="white" stroke="white" stroke-width="0.5"/>
<path d="M5.04557 6.59615C4.79422 6.3448 4.79422 5.93851 5.04557 5.68715L9.54493 1.1878C9.79629 0.935797 10.2071 0.939011 10.4552 1.1878L14.9546 5.68715C15.2059 5.93851 15.2059 6.3448 14.9546 6.59615C14.8292 6.72151 14.6646 6.78451 14.5001 6.78451C14.3355 6.78451 14.1709 6.72151 14.0456 6.59615L10.6429 3.19351V14.4988C10.6429 14.8537 10.3556 15.1417 10.0001 15.1417C9.64457 15.1417 9.35722 14.8537 9.35722 14.4988V3.19351L5.95457 6.59615C5.70322 6.84751 5.29693 6.84751 5.04557 6.59615Z" fill="white" stroke="white" stroke-width="0.5"/>
</svg>
