<svg width="50" height="50" viewBox="0 0 50 50" fill="none" xmlns="http://www.w3.org/2000/svg">
<circle cx="25" cy="25" r="25" fill="black" fill-opacity="0.53"/>
<path fill-rule="evenodd" clip-rule="evenodd" d="M25 47.5C37.4264 47.5 47.5 37.4267 47.5 25C47.5 12.5736 37.4267 2.49995 25 2.49995C12.5736 2.49995 2.49995 12.5736 2.49995 25C2.49995 37.4264 12.5736 47.5 25 47.5ZM25 50C38.807 50 50 38.807 50 25C50 11.1928 38.807 0 25 0C11.1928 0 0 11.1928 0 25C0 38.807 11.1928 50 25 50Z" fill="white"/>
<path fill-rule="evenodd" clip-rule="evenodd" d="M31.4962 25.0002L19.9997 17.3359V32.6646L31.4962 25.0002ZM33.8188 23.5441C34.858 24.2369 34.858 25.7636 33.8188 26.4564L20.2203 35.5223C19.0574 36.2977 17.4995 35.4637 17.4995 34.066V15.9345C17.4995 14.5368 19.0574 13.7032 20.2203 14.4785L33.8188 23.5441Z" fill="white"/>
</svg>
