<svg width="60" height="42" viewBox="0 0 60 42" fill="none" xmlns="http://www.w3.org/2000/svg">
<path d="M58.7496 6.55743C58.0624 3.98027 56.0293 1.94718 53.4426 1.2504C48.7655 4.55142e-07 30 0 30 0C30 0 11.244 4.55142e-07 6.55743 1.2504C3.98027 1.93764 1.94718 3.97073 1.2504 6.55743C0 11.2345 0 20.999 0 20.999C0 20.999 0 30.7636 1.2504 35.4407C1.93764 38.0178 3.97073 40.0509 6.55743 40.7477C11.244 41.9981 30 41.9981 30 41.9981C30 41.9981 48.7655 41.9981 53.4426 40.7477C56.0197 40.0604 58.0528 38.0274 58.7496 35.4407C60 30.7636 60 20.999 60 20.999C60 20.999 60 11.2345 58.7496 6.55743Z" fill="#FF0000"/>
<path d="M24.0057 30L39.5928 20.999L24.0057 11.998V30Z" fill="white"/>
</svg>
