<svg width="87" height="18" viewBox="0 0 87 18" fill="none" xmlns="http://www.w3.org/2000/svg">
<rect x="0.25" y="1.25" width="40.5" height="15.5" rx="2.33929" stroke="#49AAE8" stroke-width="0.5"/>
<path d="M14.1688 5.33141V6.02741H15.0808C15.3208 6.02741 15.5088 6.04741 15.6448 6.08741C15.7888 6.12741 15.8968 6.19141 15.9688 6.27941C16.0408 6.36741 16.0848 6.48341 16.1008 6.62741C16.1248 6.77141 16.1368 6.94741 16.1368 7.15541V7.82741C16.1368 8.03541 16.1248 8.20741 16.1008 8.34341C16.0768 8.47941 16.0248 8.59141 15.9448 8.67941C15.8728 8.75941 15.7648 8.81941 15.6208 8.85941C15.4848 8.89141 15.3048 8.90741 15.0808 8.90741H10.4968C10.2648 8.90741 10.0808 8.89141 9.94483 8.85941C9.80883 8.82741 9.70083 8.77141 9.62083 8.69141C9.54883 8.61141 9.50083 8.50341 9.47683 8.36741C9.45283 8.22341 9.44083 8.03941 9.44083 7.81541V7.11941C9.44083 6.87941 9.45283 6.68741 9.47683 6.54341C9.50883 6.39941 9.56483 6.29141 9.64483 6.21941C9.72483 6.13941 9.83283 6.08741 9.96883 6.06341C10.1048 6.03941 10.2808 6.02741 10.4968 6.02741H11.3968V5.33141H9.45283C9.15683 5.33141 9.00883 5.18341 9.00883 4.88741C9.00883 4.74341 9.04483 4.63141 9.11683 4.55141C9.19683 4.46341 9.30883 4.41941 9.45283 4.41941H16.1368C16.2808 4.41941 16.3888 4.46341 16.4608 4.55141C16.5408 4.63141 16.5808 4.74341 16.5808 4.88741C16.5808 5.18341 16.4328 5.33141 16.1368 5.33141H14.1688ZM7.97683 6.14741H8.81683C8.96883 6.14741 9.08083 6.18741 9.15283 6.26741C9.22483 6.34741 9.26083 6.44741 9.26083 6.56741C9.26083 6.83941 9.11283 6.97541 8.81683 6.97541H8.00083C8.16083 7.19941 8.29683 7.39541 8.40883 7.56341C8.52083 7.72341 8.62083 7.87541 8.70883 8.01941C8.80483 8.15541 8.88883 8.28741 8.96083 8.41541C9.03283 8.53541 9.10883 8.66741 9.18883 8.81141C9.32483 9.06741 9.38483 9.25541 9.36883 9.37541C9.35283 9.49541 9.30483 9.57941 9.22483 9.62741C8.94483 9.81141 8.71683 9.73941 8.54083 9.41141C8.45283 9.24341 8.36483 9.07941 8.27683 8.91941C8.18883 8.75141 8.08883 8.57141 7.97683 8.37941V14.7994C7.97683 14.9354 7.93283 15.0394 7.84483 15.1114C7.76483 15.1834 7.66883 15.2194 7.55683 15.2194C7.44483 15.2194 7.34883 15.1834 7.26883 15.1114C7.18883 15.0474 7.14883 14.9434 7.14883 14.7994V8.90741C7.02083 9.37141 6.88083 9.80741 6.72883 10.2154C6.57683 10.6234 6.40483 11.0434 6.21283 11.4754C6.10083 11.6994 5.98883 11.8354 5.87683 11.8834C5.76483 11.9314 5.63283 11.9114 5.48083 11.8234C5.37683 11.7674 5.31683 11.6754 5.30083 11.5474C5.28483 11.4114 5.33283 11.2354 5.44483 11.0194C5.70083 10.5154 5.95283 9.90741 6.20083 9.19541C6.44883 8.47541 6.66083 7.73541 6.83683 6.97541H5.90083C5.74083 6.97541 5.62883 6.93941 5.56483 6.86741C5.50083 6.79541 5.46883 6.69141 5.46883 6.55541C5.46883 6.42741 5.50083 6.32741 5.56483 6.25541C5.62883 6.18341 5.74083 6.14741 5.90083 6.14741H7.14883V4.23941C7.14883 4.09541 7.18883 3.99541 7.26883 3.93941C7.34883 3.88341 7.44483 3.85541 7.55683 3.85541C7.66883 3.85541 7.76483 3.88741 7.84483 3.95141C7.93283 4.00741 7.97683 4.10341 7.97683 4.23941V6.14741ZM9.34483 12.1354C9.04883 12.1354 8.90083 11.9874 8.90083 11.6914C8.90083 11.5474 8.93683 11.4354 9.00883 11.3554C9.08883 11.2674 9.20083 11.2234 9.34483 11.2234H16.2448C16.3888 11.2234 16.4968 11.2674 16.5688 11.3554C16.6488 11.4354 16.6888 11.5474 16.6888 11.6914C16.6888 11.9874 16.5408 12.1354 16.2448 12.1354H13.1968V14.7634C13.1968 15.0834 13.0528 15.2434 12.7648 15.2434C12.4448 15.2434 12.2848 15.0834 12.2848 14.7634V12.1354H9.34483ZM10.0168 10.4914C9.71283 10.4914 9.56083 10.3434 9.56083 10.0474C9.56083 9.90341 9.59683 9.79141 9.66883 9.71141C9.74883 9.62341 9.86483 9.57941 10.0168 9.57941H15.5728C15.7248 9.57941 15.8368 9.62341 15.9088 9.71141C15.9888 9.79141 16.0288 9.90341 16.0288 10.0474C16.0288 10.3434 15.8768 10.4914 15.5728 10.4914H10.0168ZM10.9168 13.2514C10.6128 13.7714 10.2328 14.2674 9.77683 14.7394C9.63283 14.8834 9.49283 14.9554 9.35683 14.9554C9.22883 14.9634 9.11283 14.9114 9.00883 14.7994C8.91283 14.7034 8.87683 14.5874 8.90083 14.4514C8.92483 14.3234 9.00883 14.1954 9.15283 14.0674C9.38483 13.8514 9.58883 13.6354 9.76483 13.4194C9.94083 13.2034 10.0768 12.9914 10.1728 12.7834C10.2368 12.6474 10.3248 12.5634 10.4368 12.5314C10.5488 12.4914 10.6608 12.4994 10.7728 12.5554C11.0528 12.6914 11.1008 12.9234 10.9168 13.2514ZM16.3048 14.8234C16.0408 15.0394 15.7888 14.9594 15.5488 14.5834C15.4048 14.3514 15.2648 14.1554 15.1288 13.9954C15.0008 13.8434 14.8368 13.6594 14.6368 13.4434C14.4848 13.2754 14.4048 13.1354 14.3968 13.0234C14.3968 12.9114 14.4528 12.8034 14.5648 12.6994C14.6448 12.6194 14.7448 12.5834 14.8648 12.5914C14.9928 12.5914 15.1208 12.6634 15.2488 12.8074C15.4408 13.0234 15.6168 13.2234 15.7768 13.4074C15.9368 13.5914 16.1008 13.7954 16.2688 14.0194C16.4208 14.2194 16.4928 14.3754 16.4848 14.4874C16.4848 14.6074 16.4248 14.7194 16.3048 14.8234ZM12.2128 8.01941H13.3528V6.91541H12.2128V8.01941ZM14.1688 6.91541V8.01941H15.0808C15.2408 8.01941 15.3208 7.95141 15.3208 7.81541V7.10741C15.3208 6.97941 15.2408 6.91541 15.0808 6.91541H14.1688ZM10.4968 6.91541C10.3368 6.91541 10.2568 6.97941 10.2568 7.10741V7.81541C10.2568 7.87941 10.2808 7.93141 10.3288 7.97141C10.3768 8.00341 10.4328 8.01941 10.4968 8.01941H11.3968V6.91541H10.4968ZM12.2128 6.02741H13.3528V5.33141H12.2128V6.02741ZM19.9768 4.43141C19.9448 4.47941 19.9168 4.52741 19.8928 4.57541C19.8688 4.62341 19.8408 4.67141 19.8088 4.71941H22.7608C22.9208 4.71941 23.0328 4.75141 23.0968 4.81541C23.1688 4.87141 23.2048 4.97141 23.2048 5.11541C23.2048 5.24341 23.1688 5.34741 23.0968 5.42741C23.0328 5.49941 22.9208 5.53541 22.7608 5.53541H19.2808C19.1448 5.71941 18.9968 5.90341 18.8368 6.08741C18.6768 6.27141 18.4968 6.46341 18.2968 6.66341C18.0968 6.86341 17.9368 6.97141 17.8168 6.98741C17.7048 6.99541 17.5928 6.94341 17.4808 6.83141C17.3688 6.71941 17.3288 6.60741 17.3608 6.49541C17.4008 6.37541 17.4928 6.24341 17.6368 6.09941C17.8048 5.93141 17.9568 5.77141 18.0928 5.61941C18.2288 5.45941 18.3568 5.29941 18.4768 5.13941C18.5968 4.97141 18.7128 4.80341 18.8248 4.63541C18.9368 4.45941 19.0488 4.27141 19.1608 4.07141C19.2728 3.88741 19.3808 3.76741 19.4848 3.71141C19.5968 3.65541 19.7248 3.67141 19.8688 3.75941C19.9968 3.83141 20.0728 3.91541 20.0968 4.01141C20.1208 4.10741 20.0808 4.24741 19.9768 4.43141ZM22.7128 13.5634C23.1048 13.5234 23.4928 13.4834 23.8768 13.4434C24.2688 13.4034 24.6688 13.3594 25.0768 13.3114C25.3008 13.1114 25.5128 12.8994 25.7128 12.6754C25.6328 12.4434 25.5688 12.1914 25.5208 11.9194C25.4088 11.4154 25.3128 10.9274 25.2328 10.4554C25.1608 9.98341 25.1008 9.50341 25.0528 9.01541H22.7128V9.48341H24.5968C24.8688 9.48341 25.0048 9.61141 25.0048 9.86741C25.0048 10.0194 24.9688 10.1234 24.8968 10.1794C24.8328 10.2274 24.7328 10.2514 24.5968 10.2514H22.7128V10.8154H24.4768C24.6128 10.8154 24.7128 10.8474 24.7768 10.9114C24.8408 10.9674 24.8728 11.0674 24.8728 11.2114C24.8728 11.3634 24.8408 11.4674 24.7768 11.5234C24.7128 11.5714 24.6128 11.5954 24.4768 11.5954H22.7128V12.2314H24.6328C24.7688 12.2314 24.8688 12.2634 24.9328 12.3274C25.0048 12.3834 25.0408 12.4834 25.0408 12.6274C25.0408 12.7634 25.0048 12.8594 24.9328 12.9154C24.8688 12.9714 24.7688 12.9994 24.6328 12.9994H22.7128V13.5634ZM20.7208 13.7554C20.9048 13.7394 21.0888 13.7234 21.2728 13.7074C21.4568 13.6914 21.6448 13.6754 21.8368 13.6594V9.01541H20.7208V13.7554ZM24.2608 5.53541C24.1728 5.64741 24.0888 5.75541 24.0088 5.85941C23.9288 5.95541 23.8448 6.04741 23.7568 6.13541C23.6288 6.26341 23.5208 6.35541 23.4328 6.41141C23.4568 6.53141 23.4288 6.69141 23.3488 6.89141C23.5648 6.99541 23.7528 7.09541 23.9128 7.19141C24.0728 7.27941 24.2168 7.36741 24.3448 7.45541C24.4968 7.56741 24.5888 7.67141 24.6208 7.76741C24.6528 7.85541 24.6368 7.95541 24.5728 8.06741C24.5568 8.09141 24.5408 8.11541 24.5248 8.13941C24.5168 8.15541 24.5048 8.17141 24.4888 8.18741H24.9808C24.9408 7.70741 24.9168 7.20341 24.9088 6.67541C24.9008 6.42741 24.9208 6.25941 24.9688 6.17141C25.0248 6.07541 25.1368 6.02341 25.3048 6.01541C25.4888 6.00741 25.6128 6.04741 25.6768 6.13541C25.7408 6.22341 25.7768 6.39141 25.7848 6.63941C25.7928 6.91941 25.8008 7.18741 25.8088 7.44341C25.8168 7.69941 25.8288 7.94741 25.8448 8.18741H27.2368C27.2288 8.17941 27.2208 8.17141 27.2128 8.16341C27.2048 8.14741 27.1928 8.12741 27.1768 8.10341C27.0648 7.96741 26.9648 7.86341 26.8768 7.79141C26.7968 7.71141 26.6888 7.60741 26.5528 7.47941C26.4328 7.36741 26.3688 7.25541 26.3608 7.14341C26.3528 7.02341 26.3928 6.91941 26.4808 6.83141C26.5688 6.73541 26.6608 6.68741 26.7568 6.68741C26.8608 6.67941 26.9768 6.73941 27.1048 6.86741C27.2008 6.96341 27.2808 7.04341 27.3448 7.10741C27.4088 7.16341 27.4648 7.21941 27.5128 7.27541C27.5688 7.32341 27.6208 7.37541 27.6688 7.43141C27.7168 7.48741 27.7728 7.55541 27.8368 7.63541C27.9248 7.74741 27.9728 7.84741 27.9808 7.93541C27.9888 8.01541 27.9528 8.09941 27.8728 8.18741H28.2808C28.4408 8.18741 28.5528 8.21941 28.6168 8.28341C28.6808 8.34741 28.7128 8.45141 28.7128 8.59541C28.7128 8.73141 28.6808 8.83541 28.6168 8.90741C28.5528 8.97941 28.4408 9.01541 28.2808 9.01541H25.9168C25.9568 9.47941 26.0088 9.91541 26.0728 10.3234C26.1448 10.7314 26.2248 11.1274 26.3128 11.5114C26.3208 11.5514 26.3288 11.5914 26.3368 11.6314C26.3448 11.6714 26.3528 11.7114 26.3608 11.7514C26.7048 11.1914 26.9848 10.5314 27.2008 9.77141C27.2648 9.53941 27.3408 9.38341 27.4288 9.30341C27.5248 9.22341 27.6448 9.20341 27.7888 9.24341C27.9488 9.29141 28.0448 9.37141 28.0768 9.48341C28.1088 9.58741 28.0888 9.75541 28.0168 9.98741C27.8328 10.5394 27.6288 11.0434 27.4048 11.4994C27.1888 11.9554 26.9368 12.3794 26.6488 12.7714C26.7448 13.0434 26.8448 13.2754 26.9488 13.4674C27.0608 13.6674 27.1848 13.8554 27.3208 14.0314C27.4248 14.1674 27.5008 14.2274 27.5488 14.2114C27.6048 14.2034 27.6528 14.1354 27.6928 14.0074C27.7568 13.8154 27.8048 13.6114 27.8368 13.3954C27.8768 13.1874 27.9168 12.9154 27.9568 12.5794C27.9728 12.3954 28.0128 12.2594 28.0768 12.1714C28.1408 12.0834 28.2528 12.0474 28.4128 12.0634C28.5888 12.0794 28.7048 12.1274 28.7608 12.2074C28.8168 12.2794 28.8328 12.4434 28.8088 12.6994C28.7848 12.9554 28.7568 13.1794 28.7248 13.3714C28.7008 13.5634 28.6648 13.7394 28.6168 13.8994C28.5768 14.0594 28.5288 14.2074 28.4728 14.3434C28.4248 14.4874 28.3648 14.6314 28.2928 14.7754C28.1408 15.0794 27.9208 15.2354 27.6328 15.2434C27.3528 15.2594 27.0808 15.1234 26.8168 14.8354C26.5048 14.4834 26.2368 14.0434 26.0128 13.5154C25.5328 14.0274 24.9648 14.4994 24.3088 14.9314C24.1088 15.0674 23.9528 15.1354 23.8408 15.1354C23.7368 15.1354 23.6408 15.0794 23.5528 14.9674C23.4648 14.8394 23.4208 14.7194 23.4208 14.6074C23.4288 14.4954 23.5128 14.3834 23.6728 14.2714C22.6808 14.4074 21.7088 14.5234 20.7568 14.6194C19.8048 14.7154 18.8328 14.7994 17.8408 14.8714C17.6408 14.8874 17.5008 14.8714 17.4208 14.8234C17.3488 14.7754 17.3048 14.6674 17.2888 14.4994C17.2728 14.3394 17.2968 14.2194 17.3608 14.1394C17.4248 14.0674 17.5528 14.0234 17.7448 14.0074C18.0888 13.9834 18.4328 13.9554 18.7768 13.9234C19.1288 13.8994 19.4848 13.8714 19.8448 13.8394V13.1914H18.0328C17.8968 13.1914 17.7928 13.1634 17.7208 13.1074C17.6568 13.0594 17.6248 12.9594 17.6248 12.8074C17.6248 12.5514 17.7608 12.4234 18.0328 12.4234H19.8448V11.7514H18.0688C17.9328 11.7514 17.8328 11.7234 17.7688 11.6674C17.7048 11.6114 17.6728 11.5154 17.6728 11.3794C17.6728 11.2354 17.7048 11.1354 17.7688 11.0794C17.8328 11.0154 17.9328 10.9834 18.0688 10.9834H19.8448V10.3834H18.0328C17.8968 10.3834 17.7928 10.3594 17.7208 10.3114C17.6568 10.2554 17.6248 10.1514 17.6248 9.99941C17.6248 9.85541 17.6568 9.75541 17.7208 9.69941C17.7928 9.63541 17.8968 9.60341 18.0328 9.60341H19.8448V9.01541H17.9008C17.7408 9.01541 17.6288 8.97941 17.5648 8.90741C17.5008 8.83541 17.4688 8.73141 17.4688 8.59541C17.4688 8.45141 17.5008 8.34741 17.5648 8.28341C17.6288 8.21941 17.7408 8.18741 17.9008 8.18741H18.1888L18.1648 8.13941C18.0368 7.89141 18.1248 7.68741 18.4288 7.52741C18.9488 7.24741 19.3528 6.86341 19.6408 6.37541C19.8008 6.07941 20.0088 6.01141 20.2648 6.17141C20.3848 6.25941 20.4488 6.35541 20.4568 6.45941C20.4728 6.56341 20.4288 6.69541 20.3248 6.85541C20.4608 6.95141 20.5888 7.05141 20.7088 7.15541C20.8368 7.25941 20.9528 7.35541 21.0568 7.44341C21.1688 7.54741 21.2328 7.64741 21.2488 7.74341C21.2648 7.83941 21.2288 7.94341 21.1408 8.05541C21.0688 8.12741 21.0208 8.17141 20.9968 8.18741H21.4168C21.3528 8.07541 21.3488 7.97141 21.4048 7.87541C21.4608 7.77941 21.5448 7.69541 21.6568 7.62341C21.9128 7.46341 22.1168 7.29541 22.2688 7.11941C22.4208 6.93541 22.5288 6.74741 22.5928 6.55541C22.6488 6.36341 22.7288 6.23541 22.8328 6.17141C22.7608 6.01141 22.8408 5.82741 23.0728 5.61941C23.2808 5.41941 23.4648 5.20741 23.6248 4.98341C23.7928 4.75941 23.9608 4.47541 24.1288 4.13141C24.2168 3.94741 24.3088 3.82741 24.4048 3.77141C24.5088 3.71541 24.6288 3.71941 24.7648 3.78341C24.9168 3.85541 25.0008 3.94741 25.0168 4.05941C25.0328 4.16341 24.9968 4.30741 24.9088 4.49141C24.8928 4.53141 24.8728 4.57141 24.8488 4.61141C24.8248 4.64341 24.8048 4.67941 24.7888 4.71941H28.3048C28.4648 4.71941 28.5768 4.75541 28.6408 4.82741C28.7128 4.89141 28.7488 4.99541 28.7488 5.13941C28.7488 5.26741 28.7128 5.36741 28.6408 5.43941C28.5768 5.50341 28.4648 5.53541 28.3048 5.53541H24.2608ZM20.5168 8.07941C20.4048 7.98341 20.2928 7.89141 20.1808 7.80341C20.0768 7.71541 19.9528 7.61941 19.8088 7.51541C19.6888 7.63541 19.5568 7.75141 19.4128 7.86341C19.2688 7.97541 19.1088 8.08341 18.9328 8.18741H20.6488C20.6248 8.17941 20.5808 8.14341 20.5168 8.07941ZM23.9128 8.18741C23.7688 8.08341 23.6208 7.98741 23.4688 7.89941C23.3248 7.81141 23.1488 7.71141 22.9408 7.59941C22.7728 7.81541 22.5528 8.01141 22.2808 8.18741H23.9128ZM21.2008 5.72741C21.3208 5.78341 21.4488 5.83941 21.5848 5.89541C21.7288 5.94341 21.8688 6.00741 22.0048 6.08741C22.1088 6.13541 22.1808 6.20741 22.2208 6.30341C22.2688 6.39141 22.2568 6.49541 22.1848 6.61541C22.0968 6.74341 22.0048 6.81941 21.9088 6.84341C21.8128 6.85941 21.6728 6.82341 21.4888 6.73541C21.3768 6.68741 21.2608 6.63541 21.1408 6.57941C21.0208 6.52341 20.9048 6.47141 20.7928 6.42341C20.6888 6.38341 20.6208 6.31541 20.5888 6.21941C20.5568 6.12341 20.5608 6.02741 20.6008 5.93141C20.6648 5.80341 20.7528 5.72741 20.8648 5.70341C20.9768 5.67141 21.0888 5.67941 21.2008 5.72741ZM26.6968 5.65541C26.8168 5.71141 26.9448 5.76741 27.0808 5.82341C27.2248 5.87141 27.3648 5.93541 27.5008 6.01541C27.6048 6.06341 27.6768 6.13541 27.7168 6.23141C27.7648 6.31941 27.7528 6.42341 27.6808 6.54341C27.5928 6.67141 27.5008 6.74741 27.4048 6.77141C27.3088 6.78741 27.1688 6.75141 26.9848 6.66341C26.8728 6.61541 26.7568 6.56341 26.6368 6.50741C26.5168 6.45141 26.4008 6.39941 26.2888 6.35141C26.1848 6.31141 26.1168 6.24341 26.0848 6.14741C26.0528 6.05141 26.0568 5.95541 26.0968 5.85941C26.1608 5.73141 26.2488 5.65541 26.3608 5.63141C26.4728 5.59941 26.5848 5.60741 26.6968 5.65541ZM34.5448 12.8434C34.5448 13.1074 34.3928 13.2394 34.0888 13.2394C33.7768 13.2394 33.6208 13.1074 33.6208 12.8434V5.84741H33.0808C32.9448 5.84741 32.8488 5.81941 32.7928 5.76341C32.7368 5.70741 32.7088 5.58741 32.7088 5.40341C32.7088 5.21941 32.7408 5.09541 32.8048 5.03141C32.8688 4.95941 32.9688 4.92341 33.1048 4.92341H33.9328C34.3408 4.92341 34.5448 5.08341 34.5448 5.40341V12.8434Z" fill="#49AAE8"/>
<rect x="46.25" y="1.25" width="40.5" height="15.5" rx="2.33929" stroke="#49AAE8" stroke-width="0.5"/>
<path d="M58.3622 5.33141V6.02741H59.2742C59.5142 6.02741 59.7022 6.04741 59.8382 6.08741C59.9822 6.12741 60.0902 6.19141 60.1622 6.27941C60.2342 6.36741 60.2782 6.48341 60.2942 6.62741C60.3182 6.77141 60.3302 6.94741 60.3302 7.15541V7.82741C60.3302 8.03541 60.3182 8.20741 60.2942 8.34341C60.2702 8.47941 60.2182 8.59141 60.1382 8.67941C60.0662 8.75941 59.9582 8.81941 59.8142 8.85941C59.6782 8.89141 59.4982 8.90741 59.2742 8.90741H54.6902C54.4582 8.90741 54.2742 8.89141 54.1382 8.85941C54.0022 8.82741 53.8942 8.77141 53.8142 8.69141C53.7422 8.61141 53.6942 8.50341 53.6702 8.36741C53.6462 8.22341 53.6342 8.03941 53.6342 7.81541V7.11941C53.6342 6.87941 53.6462 6.68741 53.6702 6.54341C53.7022 6.39941 53.7582 6.29141 53.8382 6.21941C53.9182 6.13941 54.0262 6.08741 54.1622 6.06341C54.2982 6.03941 54.4742 6.02741 54.6902 6.02741H55.5902V5.33141H53.6462C53.3502 5.33141 53.2022 5.18341 53.2022 4.88741C53.2022 4.74341 53.2382 4.63141 53.3102 4.55141C53.3902 4.46341 53.5022 4.41941 53.6462 4.41941H60.3302C60.4742 4.41941 60.5822 4.46341 60.6542 4.55141C60.7342 4.63141 60.7742 4.74341 60.7742 4.88741C60.7742 5.18341 60.6262 5.33141 60.3302 5.33141H58.3622ZM52.1702 6.14741H53.0102C53.1622 6.14741 53.2742 6.18741 53.3462 6.26741C53.4182 6.34741 53.4542 6.44741 53.4542 6.56741C53.4542 6.83941 53.3062 6.97541 53.0102 6.97541H52.1942C52.3542 7.19941 52.4902 7.39541 52.6022 7.56341C52.7142 7.72341 52.8142 7.87541 52.9022 8.01941C52.9982 8.15541 53.0822 8.28741 53.1542 8.41541C53.2262 8.53541 53.3022 8.66741 53.3822 8.81141C53.5182 9.06741 53.5782 9.25541 53.5622 9.37541C53.5462 9.49541 53.4982 9.57941 53.4182 9.62741C53.1382 9.81141 52.9102 9.73941 52.7342 9.41141C52.6462 9.24341 52.5582 9.07941 52.4702 8.91941C52.3822 8.75141 52.2822 8.57141 52.1702 8.37941V14.7994C52.1702 14.9354 52.1262 15.0394 52.0382 15.1114C51.9582 15.1834 51.8622 15.2194 51.7502 15.2194C51.6382 15.2194 51.5422 15.1834 51.4622 15.1114C51.3822 15.0474 51.3422 14.9434 51.3422 14.7994V8.90741C51.2142 9.37141 51.0742 9.80741 50.9222 10.2154C50.7702 10.6234 50.5982 11.0434 50.4062 11.4754C50.2942 11.6994 50.1822 11.8354 50.0702 11.8834C49.9582 11.9314 49.8262 11.9114 49.6742 11.8234C49.5702 11.7674 49.5102 11.6754 49.4942 11.5474C49.4782 11.4114 49.5262 11.2354 49.6382 11.0194C49.8942 10.5154 50.1462 9.90741 50.3942 9.19541C50.6422 8.47541 50.8542 7.73541 51.0302 6.97541H50.0942C49.9342 6.97541 49.8222 6.93941 49.7582 6.86741C49.6942 6.79541 49.6622 6.69141 49.6622 6.55541C49.6622 6.42741 49.6942 6.32741 49.7582 6.25541C49.8222 6.18341 49.9342 6.14741 50.0942 6.14741H51.3422V4.23941C51.3422 4.09541 51.3822 3.99541 51.4622 3.93941C51.5422 3.88341 51.6382 3.85541 51.7502 3.85541C51.8622 3.85541 51.9582 3.88741 52.0382 3.95141C52.1262 4.00741 52.1702 4.10341 52.1702 4.23941V6.14741ZM53.5382 12.1354C53.2422 12.1354 53.0942 11.9874 53.0942 11.6914C53.0942 11.5474 53.1302 11.4354 53.2022 11.3554C53.2822 11.2674 53.3942 11.2234 53.5382 11.2234H60.4382C60.5822 11.2234 60.6902 11.2674 60.7622 11.3554C60.8422 11.4354 60.8822 11.5474 60.8822 11.6914C60.8822 11.9874 60.7342 12.1354 60.4382 12.1354H57.3902V14.7634C57.3902 15.0834 57.2462 15.2434 56.9582 15.2434C56.6382 15.2434 56.4782 15.0834 56.4782 14.7634V12.1354H53.5382ZM54.2102 10.4914C53.9062 10.4914 53.7542 10.3434 53.7542 10.0474C53.7542 9.90341 53.7902 9.79141 53.8622 9.71141C53.9422 9.62341 54.0582 9.57941 54.2102 9.57941H59.7662C59.9182 9.57941 60.0302 9.62341 60.1022 9.71141C60.1822 9.79141 60.2222 9.90341 60.2222 10.0474C60.2222 10.3434 60.0702 10.4914 59.7662 10.4914H54.2102ZM55.1102 13.2514C54.8062 13.7714 54.4262 14.2674 53.9702 14.7394C53.8262 14.8834 53.6862 14.9554 53.5502 14.9554C53.4222 14.9634 53.3062 14.9114 53.2022 14.7994C53.1062 14.7034 53.0702 14.5874 53.0942 14.4514C53.1182 14.3234 53.2022 14.1954 53.3462 14.0674C53.5782 13.8514 53.7822 13.6354 53.9582 13.4194C54.1342 13.2034 54.2702 12.9914 54.3662 12.7834C54.4302 12.6474 54.5182 12.5634 54.6302 12.5314C54.7422 12.4914 54.8542 12.4994 54.9662 12.5554C55.2462 12.6914 55.2942 12.9234 55.1102 13.2514ZM60.4982 14.8234C60.2342 15.0394 59.9822 14.9594 59.7422 14.5834C59.5982 14.3514 59.4582 14.1554 59.3222 13.9954C59.1942 13.8434 59.0302 13.6594 58.8302 13.4434C58.6782 13.2754 58.5982 13.1354 58.5902 13.0234C58.5902 12.9114 58.6462 12.8034 58.7582 12.6994C58.8382 12.6194 58.9382 12.5834 59.0582 12.5914C59.1862 12.5914 59.3142 12.6634 59.4422 12.8074C59.6342 13.0234 59.8102 13.2234 59.9702 13.4074C60.1302 13.5914 60.2942 13.7954 60.4622 14.0194C60.6142 14.2194 60.6862 14.3754 60.6782 14.4874C60.6782 14.6074 60.6182 14.7194 60.4982 14.8234ZM56.4062 8.01941H57.5462V6.91541H56.4062V8.01941ZM58.3622 6.91541V8.01941H59.2742C59.4342 8.01941 59.5142 7.95141 59.5142 7.81541V7.10741C59.5142 6.97941 59.4342 6.91541 59.2742 6.91541H58.3622ZM54.6902 6.91541C54.5302 6.91541 54.4502 6.97941 54.4502 7.10741V7.81541C54.4502 7.87941 54.4742 7.93141 54.5222 7.97141C54.5702 8.00341 54.6262 8.01941 54.6902 8.01941H55.5902V6.91541H54.6902ZM56.4062 6.02741H57.5462V5.33141H56.4062V6.02741ZM64.1702 4.43141C64.1382 4.47941 64.1102 4.52741 64.0862 4.57541C64.0622 4.62341 64.0342 4.67141 64.0022 4.71941H66.9542C67.1142 4.71941 67.2262 4.75141 67.2902 4.81541C67.3622 4.87141 67.3982 4.97141 67.3982 5.11541C67.3982 5.24341 67.3622 5.34741 67.2902 5.42741C67.2262 5.49941 67.1142 5.53541 66.9542 5.53541H63.4742C63.3382 5.71941 63.1902 5.90341 63.0302 6.08741C62.8702 6.27141 62.6902 6.46341 62.4902 6.66341C62.2902 6.86341 62.1302 6.97141 62.0102 6.98741C61.8982 6.99541 61.7862 6.94341 61.6742 6.83141C61.5622 6.71941 61.5222 6.60741 61.5542 6.49541C61.5942 6.37541 61.6862 6.24341 61.8302 6.09941C61.9982 5.93141 62.1502 5.77141 62.2862 5.61941C62.4222 5.45941 62.5502 5.29941 62.6702 5.13941C62.7902 4.97141 62.9062 4.80341 63.0182 4.63541C63.1302 4.45941 63.2422 4.27141 63.3542 4.07141C63.4662 3.88741 63.5742 3.76741 63.6782 3.71141C63.7902 3.65541 63.9182 3.67141 64.0622 3.75941C64.1902 3.83141 64.2662 3.91541 64.2902 4.01141C64.3142 4.10741 64.2742 4.24741 64.1702 4.43141ZM66.9062 13.5634C67.2982 13.5234 67.6862 13.4834 68.0702 13.4434C68.4622 13.4034 68.8622 13.3594 69.2702 13.3114C69.4942 13.1114 69.7062 12.8994 69.9062 12.6754C69.8262 12.4434 69.7622 12.1914 69.7142 11.9194C69.6022 11.4154 69.5062 10.9274 69.4262 10.4554C69.3542 9.98341 69.2942 9.50341 69.2462 9.01541H66.9062V9.48341H68.7902C69.0622 9.48341 69.1982 9.61141 69.1982 9.86741C69.1982 10.0194 69.1622 10.1234 69.0902 10.1794C69.0262 10.2274 68.9262 10.2514 68.7902 10.2514H66.9062V10.8154H68.6702C68.8062 10.8154 68.9062 10.8474 68.9702 10.9114C69.0342 10.9674 69.0662 11.0674 69.0662 11.2114C69.0662 11.3634 69.0342 11.4674 68.9702 11.5234C68.9062 11.5714 68.8062 11.5954 68.6702 11.5954H66.9062V12.2314H68.8262C68.9622 12.2314 69.0622 12.2634 69.1262 12.3274C69.1982 12.3834 69.2342 12.4834 69.2342 12.6274C69.2342 12.7634 69.1982 12.8594 69.1262 12.9154C69.0622 12.9714 68.9622 12.9994 68.8262 12.9994H66.9062V13.5634ZM64.9142 13.7554C65.0982 13.7394 65.2822 13.7234 65.4662 13.7074C65.6502 13.6914 65.8382 13.6754 66.0302 13.6594V9.01541H64.9142V13.7554ZM68.4542 5.53541C68.3662 5.64741 68.2822 5.75541 68.2022 5.85941C68.1222 5.95541 68.0382 6.04741 67.9502 6.13541C67.8222 6.26341 67.7142 6.35541 67.6262 6.41141C67.6502 6.53141 67.6222 6.69141 67.5422 6.89141C67.7582 6.99541 67.9462 7.09541 68.1062 7.19141C68.2662 7.27941 68.4102 7.36741 68.5382 7.45541C68.6902 7.56741 68.7822 7.67141 68.8142 7.76741C68.8462 7.85541 68.8302 7.95541 68.7662 8.06741C68.7502 8.09141 68.7342 8.11541 68.7182 8.13941C68.7102 8.15541 68.6982 8.17141 68.6822 8.18741H69.1742C69.1342 7.70741 69.1102 7.20341 69.1022 6.67541C69.0942 6.42741 69.1142 6.25941 69.1622 6.17141C69.2182 6.07541 69.3302 6.02341 69.4982 6.01541C69.6822 6.00741 69.8062 6.04741 69.8702 6.13541C69.9342 6.22341 69.9702 6.39141 69.9782 6.63941C69.9862 6.91941 69.9942 7.18741 70.0022 7.44341C70.0102 7.69941 70.0222 7.94741 70.0382 8.18741H71.4302C71.4222 8.17941 71.4142 8.17141 71.4062 8.16341C71.3982 8.14741 71.3862 8.12741 71.3702 8.10341C71.2582 7.96741 71.1582 7.86341 71.0702 7.79141C70.9902 7.71141 70.8822 7.60741 70.7462 7.47941C70.6262 7.36741 70.5622 7.25541 70.5542 7.14341C70.5462 7.02341 70.5862 6.91941 70.6742 6.83141C70.7622 6.73541 70.8542 6.68741 70.9502 6.68741C71.0542 6.67941 71.1702 6.73941 71.2982 6.86741C71.3942 6.96341 71.4742 7.04341 71.5382 7.10741C71.6022 7.16341 71.6582 7.21941 71.7062 7.27541C71.7622 7.32341 71.8142 7.37541 71.8622 7.43141C71.9102 7.48741 71.9662 7.55541 72.0302 7.63541C72.1182 7.74741 72.1662 7.84741 72.1742 7.93541C72.1822 8.01541 72.1462 8.09941 72.0662 8.18741H72.4742C72.6342 8.18741 72.7462 8.21941 72.8102 8.28341C72.8742 8.34741 72.9062 8.45141 72.9062 8.59541C72.9062 8.73141 72.8742 8.83541 72.8102 8.90741C72.7462 8.97941 72.6342 9.01541 72.4742 9.01541H70.1102C70.1502 9.47941 70.2022 9.91541 70.2662 10.3234C70.3382 10.7314 70.4182 11.1274 70.5062 11.5114C70.5142 11.5514 70.5222 11.5914 70.5302 11.6314C70.5382 11.6714 70.5462 11.7114 70.5542 11.7514C70.8982 11.1914 71.1782 10.5314 71.3942 9.77141C71.4582 9.53941 71.5342 9.38341 71.6222 9.30341C71.7182 9.22341 71.8382 9.20341 71.9822 9.24341C72.1422 9.29141 72.2382 9.37141 72.2702 9.48341C72.3022 9.58741 72.2822 9.75541 72.2102 9.98741C72.0262 10.5394 71.8222 11.0434 71.5982 11.4994C71.3822 11.9554 71.1302 12.3794 70.8422 12.7714C70.9382 13.0434 71.0382 13.2754 71.1422 13.4674C71.2542 13.6674 71.3782 13.8554 71.5142 14.0314C71.6182 14.1674 71.6942 14.2274 71.7422 14.2114C71.7982 14.2034 71.8462 14.1354 71.8862 14.0074C71.9502 13.8154 71.9982 13.6114 72.0302 13.3954C72.0702 13.1874 72.1102 12.9154 72.1502 12.5794C72.1662 12.3954 72.2062 12.2594 72.2702 12.1714C72.3342 12.0834 72.4462 12.0474 72.6062 12.0634C72.7822 12.0794 72.8982 12.1274 72.9542 12.2074C73.0102 12.2794 73.0262 12.4434 73.0022 12.6994C72.9782 12.9554 72.9502 13.1794 72.9182 13.3714C72.8942 13.5634 72.8582 13.7394 72.8102 13.8994C72.7702 14.0594 72.7222 14.2074 72.6662 14.3434C72.6182 14.4874 72.5582 14.6314 72.4862 14.7754C72.3342 15.0794 72.1142 15.2354 71.8262 15.2434C71.5462 15.2594 71.2742 15.1234 71.0102 14.8354C70.6982 14.4834 70.4302 14.0434 70.2062 13.5154C69.7262 14.0274 69.1582 14.4994 68.5022 14.9314C68.3022 15.0674 68.1462 15.1354 68.0342 15.1354C67.9302 15.1354 67.8342 15.0794 67.7462 14.9674C67.6582 14.8394 67.6142 14.7194 67.6142 14.6074C67.6222 14.4954 67.7062 14.3834 67.8662 14.2714C66.8742 14.4074 65.9022 14.5234 64.9502 14.6194C63.9982 14.7154 63.0262 14.7994 62.0342 14.8714C61.8342 14.8874 61.6942 14.8714 61.6142 14.8234C61.5422 14.7754 61.4982 14.6674 61.4822 14.4994C61.4662 14.3394 61.4902 14.2194 61.5542 14.1394C61.6182 14.0674 61.7462 14.0234 61.9382 14.0074C62.2822 13.9834 62.6262 13.9554 62.9702 13.9234C63.3222 13.8994 63.6782 13.8714 64.0382 13.8394V13.1914H62.2262C62.0902 13.1914 61.9862 13.1634 61.9142 13.1074C61.8502 13.0594 61.8182 12.9594 61.8182 12.8074C61.8182 12.5514 61.9542 12.4234 62.2262 12.4234H64.0382V11.7514H62.2622C62.1262 11.7514 62.0262 11.7234 61.9622 11.6674C61.8982 11.6114 61.8662 11.5154 61.8662 11.3794C61.8662 11.2354 61.8982 11.1354 61.9622 11.0794C62.0262 11.0154 62.1262 10.9834 62.2622 10.9834H64.0382V10.3834H62.2262C62.0902 10.3834 61.9862 10.3594 61.9142 10.3114C61.8502 10.2554 61.8182 10.1514 61.8182 9.99941C61.8182 9.85541 61.8502 9.75541 61.9142 9.69941C61.9862 9.63541 62.0902 9.60341 62.2262 9.60341H64.0382V9.01541H62.0942C61.9342 9.01541 61.8222 8.97941 61.7582 8.90741C61.6942 8.83541 61.6622 8.73141 61.6622 8.59541C61.6622 8.45141 61.6942 8.34741 61.7582 8.28341C61.8222 8.21941 61.9342 8.18741 62.0942 8.18741H62.3822L62.3582 8.13941C62.2302 7.89141 62.3182 7.68741 62.6222 7.52741C63.1422 7.24741 63.5462 6.86341 63.8342 6.37541C63.9942 6.07941 64.2022 6.01141 64.4582 6.17141C64.5782 6.25941 64.6422 6.35541 64.6502 6.45941C64.6662 6.56341 64.6222 6.69541 64.5182 6.85541C64.6542 6.95141 64.7822 7.05141 64.9022 7.15541C65.0302 7.25941 65.1462 7.35541 65.2502 7.44341C65.3622 7.54741 65.4262 7.64741 65.4422 7.74341C65.4582 7.83941 65.4222 7.94341 65.3342 8.05541C65.2622 8.12741 65.2142 8.17141 65.1902 8.18741H65.6102C65.5462 8.07541 65.5422 7.97141 65.5982 7.87541C65.6542 7.77941 65.7382 7.69541 65.8502 7.62341C66.1062 7.46341 66.3102 7.29541 66.4622 7.11941C66.6142 6.93541 66.7222 6.74741 66.7862 6.55541C66.8422 6.36341 66.9222 6.23541 67.0262 6.17141C66.9542 6.01141 67.0342 5.82741 67.2662 5.61941C67.4742 5.41941 67.6582 5.20741 67.8182 4.98341C67.9862 4.75941 68.1542 4.47541 68.3222 4.13141C68.4102 3.94741 68.5022 3.82741 68.5982 3.77141C68.7022 3.71541 68.8222 3.71941 68.9582 3.78341C69.1102 3.85541 69.1942 3.94741 69.2102 4.05941C69.2262 4.16341 69.1902 4.30741 69.1022 4.49141C69.0862 4.53141 69.0662 4.57141 69.0422 4.61141C69.0182 4.64341 68.9982 4.67941 68.9822 4.71941H72.4982C72.6582 4.71941 72.7702 4.75541 72.8342 4.82741C72.9062 4.89141 72.9422 4.99541 72.9422 5.13941C72.9422 5.26741 72.9062 5.36741 72.8342 5.43941C72.7702 5.50341 72.6582 5.53541 72.4982 5.53541H68.4542ZM64.7102 8.07941C64.5982 7.98341 64.4862 7.89141 64.3742 7.80341C64.2702 7.71541 64.1462 7.61941 64.0022 7.51541C63.8822 7.63541 63.7502 7.75141 63.6062 7.86341C63.4622 7.97541 63.3022 8.08341 63.1262 8.18741H64.8422C64.8182 8.17941 64.7742 8.14341 64.7102 8.07941ZM68.1062 8.18741C67.9622 8.08341 67.8142 7.98741 67.6622 7.89941C67.5182 7.81141 67.3422 7.71141 67.1342 7.59941C66.9662 7.81541 66.7462 8.01141 66.4742 8.18741H68.1062ZM65.3942 5.72741C65.5142 5.78341 65.6422 5.83941 65.7782 5.89541C65.9222 5.94341 66.0622 6.00741 66.1982 6.08741C66.3022 6.13541 66.3742 6.20741 66.4142 6.30341C66.4622 6.39141 66.4502 6.49541 66.3782 6.61541C66.2902 6.74341 66.1982 6.81941 66.1022 6.84341C66.0062 6.85941 65.8662 6.82341 65.6822 6.73541C65.5702 6.68741 65.4542 6.63541 65.3342 6.57941C65.2142 6.52341 65.0982 6.47141 64.9862 6.42341C64.8822 6.38341 64.8142 6.31541 64.7822 6.21941C64.7502 6.12341 64.7542 6.02741 64.7942 5.93141C64.8582 5.80341 64.9462 5.72741 65.0582 5.70341C65.1702 5.67141 65.2822 5.67941 65.3942 5.72741ZM70.8902 5.65541C71.0102 5.71141 71.1382 5.76741 71.2742 5.82341C71.4182 5.87141 71.5582 5.93541 71.6942 6.01541C71.7982 6.06341 71.8702 6.13541 71.9102 6.23141C71.9582 6.31941 71.9462 6.42341 71.8742 6.54341C71.7862 6.67141 71.6942 6.74741 71.5982 6.77141C71.5022 6.78741 71.3622 6.75141 71.1782 6.66341C71.0662 6.61541 70.9502 6.56341 70.8302 6.50741C70.7102 6.45141 70.5942 6.39941 70.4822 6.35141C70.3782 6.31141 70.3102 6.24341 70.2782 6.14741C70.2462 6.05141 70.2502 5.95541 70.2902 5.85941C70.3542 5.73141 70.4422 5.65541 70.5542 5.63141C70.6662 5.59941 70.7782 5.60741 70.8902 5.65541ZM81.6422 12.6754C81.6422 12.9714 81.5062 13.1194 81.2342 13.1194H77.2142C77.1342 13.1194 77.0622 13.0954 76.9982 13.0474C76.9342 12.9994 76.8862 12.9394 76.8542 12.8674C76.8222 12.7874 76.8062 12.6994 76.8062 12.6034C76.8142 12.4994 76.8462 12.3954 76.9022 12.2914C76.9022 12.1954 76.9342 12.0954 76.9982 11.9914C77.1502 11.8314 77.3382 11.6434 77.5622 11.4274C77.7942 11.2034 78.0342 10.9634 78.2822 10.7074C78.5382 10.4514 78.7902 10.1794 79.0382 9.89141C79.2942 9.60341 79.5222 9.30741 79.7222 9.00341C79.9302 8.69141 80.0982 8.37541 80.2262 8.05541C80.3542 7.72741 80.4182 7.40341 80.4182 7.08341C80.4182 6.65141 80.3022 6.30341 80.0702 6.03941C79.8382 5.77541 79.5222 5.64341 79.1222 5.64341C78.6662 5.64341 78.3342 5.79941 78.1262 6.11141C77.9182 6.41541 77.8142 6.80741 77.8142 7.28741C77.8142 7.48741 77.7782 7.63141 77.7062 7.71941C77.6422 7.80741 77.5222 7.85141 77.3462 7.85141C77.1462 7.85141 77.0142 7.81541 76.9502 7.74341C76.8862 7.66341 76.8542 7.51141 76.8542 7.28741C76.8542 6.51141 77.0462 5.89941 77.4302 5.45141C77.8142 4.99541 78.4022 4.76741 79.1942 4.76741C79.5462 4.76741 79.8582 4.82341 80.1302 4.93541C80.4102 5.03941 80.6422 5.19141 80.8262 5.39141C81.0182 5.58341 81.1622 5.81941 81.2582 6.09941C81.3542 6.37141 81.4022 6.67541 81.4022 7.01141C81.4022 7.31541 81.3502 7.62341 81.2462 7.93541C81.1502 8.23941 81.0182 8.54341 80.8502 8.84741C80.6902 9.14341 80.5062 9.43541 80.2982 9.72341C80.0902 10.0114 79.8782 10.2794 79.6622 10.5274C79.1502 11.1194 78.5702 11.6914 77.9222 12.2434H81.2342C81.5062 12.2434 81.6422 12.3874 81.6422 12.6754Z" fill="#49AAE8"/>
</svg>
