<svg width="26" height="25" viewBox="0 0 26 25" fill="none" xmlns="http://www.w3.org/2000/svg">
<path fill-rule="evenodd" clip-rule="evenodd" d="M1.2861 1.07663C0.956326 1.23926 0.899308 1.6992 1.17968 1.93512L1.32617 2.0584H2.78845C3.68556 2.0584 4.2619 2.07656 4.27967 2.10531C4.29561 2.13112 4.90552 5.13793 5.635 8.78706C6.63675 13.7982 6.99615 15.5094 7.10363 15.7795C7.51465 16.8123 8.40281 17.6273 9.52953 18.0055L9.86663 18.1187L16.44 18.1323C20.0554 18.1398 23.064 18.1335 23.1259 18.1183C23.4748 18.0327 23.5893 17.5545 23.3304 17.2647L23.1899 17.1074L16.6246 17.0822C9.44376 17.0546 9.96106 17.0778 9.3369 16.7551C8.57126 16.3593 8.11854 15.6802 7.89369 14.5904C7.82666 14.2656 7.77181 13.9676 7.77181 13.9283C7.77181 13.8654 8.65549 13.8568 15.1208 13.8568C23.2806 13.8568 22.7293 13.8784 23.3866 13.5337C24.1223 13.148 24.6054 12.4935 24.7656 11.6657C24.7963 11.5068 25.0068 9.8923 25.2334 8.078C25.5287 5.71278 25.634 4.73202 25.6055 4.61235C25.5792 4.50197 25.5103 4.40816 25.4021 4.33545L25.2385 4.22546H15.5248H5.81111L5.53204 2.81687C5.37856 2.04217 5.22234 1.34698 5.18488 1.27205C5.05533 1.01292 4.94809 0.998857 3.11418 1.00006C1.69187 1.00098 1.41608 1.01253 1.2861 1.07663ZM24.4822 5.33561C24.4822 5.61136 23.6944 11.5789 23.635 11.7533C23.5275 12.0688 23.1127 12.5108 22.7852 12.6588L22.5319 12.7733L15.0314 12.7859C10.9062 12.7929 7.53102 12.7907 7.53102 12.7811C7.53102 12.7715 7.19513 11.0906 6.7846 9.04576C6.37406 7.00092 6.03817 5.31823 6.03817 5.30638C6.03817 5.29459 10.1881 5.28491 15.2602 5.28491C21.6872 5.28491 24.4822 5.30027 24.4822 5.33561ZM9.39426 19.3227C8.5794 19.5467 7.85892 20.2128 7.57148 21.0081C7.44357 21.362 7.39888 22.0964 7.48118 22.4927C7.73656 23.7229 8.9988 24.6736 10.2519 24.5797C12.5554 24.4071 13.6018 21.6687 11.9855 20.0431C11.6174 19.6728 11.2287 19.4411 10.7796 19.3241C10.437 19.2349 9.71628 19.2341 9.39426 19.3227ZM20.1053 19.3265C19.689 19.4385 19.281 19.6818 18.9334 20.0254C18.0428 20.9058 17.8815 22.2978 18.5514 23.3231C19.3259 24.5085 20.7615 24.9122 22.0157 24.2972C22.6777 23.9726 23.2765 23.2056 23.4244 22.4927C23.5067 22.0964 23.4621 21.362 23.3342 21.0081C23.0425 20.2013 22.3218 19.5417 21.4902 19.3203C21.1612 19.2328 20.4419 19.236 20.1053 19.3265ZM10.7575 20.4604C12.1769 21.1216 11.893 23.2379 10.3525 23.4795C9.63629 23.5918 8.94813 23.2265 8.64537 22.5732C8.25333 21.7273 8.68221 20.7114 9.56348 20.3986C9.92133 20.2715 10.4061 20.2966 10.7575 20.4604ZM21.5129 20.4725C22.2335 20.825 22.5945 21.7053 22.3175 22.4343C22.0605 23.1106 21.5208 23.4937 20.8223 23.4954C19.9221 23.4978 19.2271 22.8074 19.2271 21.911C19.2271 21.5429 19.2933 21.3221 19.4924 21.0256C19.688 20.7346 19.8972 20.5645 20.2349 20.422C20.6127 20.2626 21.1252 20.2828 21.5129 20.4725Z" fill="white" stroke="white" stroke-width="0.5"/>
</svg>
