<svg width="68" height="53" viewBox="0 0 68 53" fill="none" xmlns="http://www.w3.org/2000/svg">
<path fill-rule="evenodd" clip-rule="evenodd" d="M63.23 0.323798C62.6009 0.639797 59.6411 3.72389 41.9691 22.4779L21.439 44.265L13.3997 35.7468C8.97808 31.062 5.15112 27.1129 4.89532 26.971C4.24022 26.6077 2.61961 26.6084 1.92942 26.9724C1.21067 27.3513 0.650846 27.9929 0.271737 28.872C-0.123981 29.7896 -0.0859776 30.882 0.375783 31.864C0.789707 32.7444 19.072 52.1535 19.9013 52.593C20.2248 52.7644 20.8305 52.9376 21.2474 52.9777C21.8779 53.0383 22.1362 52.9874 22.7851 52.6744C23.4918 52.3334 25.6187 50.1179 45.452 29.0622C65.2852 8.00652 67.3721 5.74854 67.6933 4.99818C67.9884 4.30863 68.0361 4.03537 67.9789 3.36359C67.8187 1.48975 66.5285 0.147036 64.7619 0.0159815C64.1003 -0.0331112 63.8335 0.0204956 63.23 0.323798Z" fill="white"/>
</svg>
