<svg width="46" height="47" viewBox="0 0 46 47" fill="none" xmlns="http://www.w3.org/2000/svg">
<circle cx="22.7049" cy="23.5326" r="22.7049" fill="#49AAE8"/>
<path fill-rule="evenodd" clip-rule="evenodd" d="M33.5 22.5H24.5V13.5C24.5 12.6705 23.828 12 23 12C22.172 12 21.5 12.6705 21.5 13.5V22.5H12.5C11.672 22.5 11 23.1705 11 24C11 24.8295 11.672 25.5 12.5 25.5H21.5V34.5C21.5 35.3295 22.172 36 23 36C23.828 36 24.5 35.3295 24.5 34.5V25.5H33.5C34.328 25.5 35 24.8295 35 24C35 23.1705 34.328 22.5 33.5 22.5Z" fill="white"/>
</svg>
