<svg width="18" height="18" viewBox="0 0 18 18" fill="none" xmlns="http://www.w3.org/2000/svg">
<path fill-rule="evenodd" clip-rule="evenodd" d="M1.40738 0.0711255C1.08225 0.156246 0.82343 0.308344 0.566613 0.565182C0.305648 0.826168 0.157465 1.08174 0.0709453 1.41994C0.000914059 1.69386 0 1.79037 0 8.99926C0 16.2081 0.000914059 16.3047 0.0709453 16.5786C0.157465 16.9168 0.305648 17.1724 0.566613 17.4333C0.827578 17.6943 1.08313 17.8425 1.4213 17.929C1.6952 17.9991 1.7917 18 9 18C16.2083 18 16.3048 17.9991 16.5787 17.929C16.9169 17.8425 17.1724 17.6943 17.4334 17.4333C17.6944 17.1724 17.8425 16.9168 17.9291 16.5786C17.9991 16.3047 18 16.2081 18 8.99926C18 1.79037 17.9991 1.69386 17.9291 1.41994C17.8425 1.08174 17.6944 0.826168 17.4334 0.565182C17.1724 0.304195 16.9169 0.156 16.5787 0.069473C16.3047 -0.000599188 16.2116 -0.001443 8.98559 0.000455593C1.84201 0.00235419 1.66373 0.00400667 1.40738 0.0711255ZM16.5059 0.99669C16.7196 1.09805 16.917 1.298 17.0129 1.51036C17.0835 1.66675 17.0844 1.72069 17.0852 6.15123L17.0859 10.6339L15.2666 8.81928C14.266 7.82122 13.4081 6.97877 13.3603 6.94716C13.2204 6.85469 13.0052 6.87333 12.8461 6.99167C12.7707 7.04775 11.5464 8.2579 10.1255 9.68093L7.542 12.2683L6.02807 10.7568L4.51413 9.24537H4.33913C4.23601 9.24537 4.12836 9.269 4.07718 9.30286C4.02936 9.33447 3.29811 10.0503 2.45215 10.8936L0.914062 12.427L0.914414 7.04779L0.914766 1.66858L0.998086 1.49279C1.09944 1.27898 1.29938 1.0816 1.51172 0.985685C1.66915 0.914558 1.70634 0.914206 9 0.913785L16.3301 0.913363L16.5059 0.99669ZM5.07041 2.68897C4.26164 2.86462 3.5736 3.54214 3.35879 4.37443C3.28968 4.64216 3.28901 5.19546 3.35749 5.46717C3.45175 5.84113 3.68072 6.24405 3.95504 6.51861C4.38824 6.95216 4.858 7.16529 5.4476 7.19577C6.13343 7.23125 6.70514 7.0107 7.19044 6.5235C7.90379 5.8073 8.06604 4.81564 7.61948 3.90119C7.43034 3.51391 7.0315 3.10234 6.65508 2.90608C6.1707 2.65353 5.59603 2.57481 5.07041 2.68897ZM6.17098 3.67191C7.03835 4.09488 7.22742 5.23474 6.54114 5.90325C5.5947 6.82516 4.00739 6.00557 4.2171 4.70324C4.3617 3.80517 5.36178 3.27732 6.17098 3.67191ZM17.0856 14.1324L17.0852 16.3299L17.0019 16.5057C16.9006 16.7195 16.7006 16.9169 16.4883 17.0128C16.3309 17.084 16.2937 17.0843 9 17.0847L1.66992 17.0852L1.49414 17.0018C1.28036 16.9005 1.08299 16.7005 0.987082 16.4882C0.919406 16.3384 0.915574 16.2607 0.914836 15.0289L0.914062 13.7279L2.61893 12.0232L4.3238 10.3184L5.82694 11.8189C6.82917 12.8194 7.36239 13.3273 7.427 13.3431C7.70752 13.4116 7.58925 13.5166 10.459 10.6496L13.1309 7.98017L15.1084 9.95749L17.0859 11.9348L17.0856 14.1324Z" fill="#49AAE8"/>
</svg>
