<svg width="18" height="17" viewBox="0 0 18 17" fill="none" xmlns="http://www.w3.org/2000/svg">
<path d="M8.97821 16.9574C8.72258 16.9574 8.47612 16.8648 8.28405 16.6966C7.55865 16.0623 6.85929 15.4662 6.24225 14.9404L6.2391 14.9377C4.43006 13.396 2.86789 12.0647 1.78096 10.7532C0.565933 9.2871 0 7.89699 0 6.37838C0 4.90292 0.505929 3.54172 1.42449 2.54534C2.35401 1.53718 3.62945 0.981934 5.01627 0.981934C6.05279 0.981934 7.00204 1.30963 7.83758 1.95584C8.25925 2.28203 8.64148 2.68124 8.97821 3.1469C9.31509 2.68124 9.69717 2.28203 10.119 1.95584C10.9545 1.30963 11.9038 0.981934 12.9403 0.981934C14.327 0.981934 15.6025 1.53718 16.5321 2.54534C17.4506 3.54172 17.9564 4.90292 17.9564 6.37838C17.9564 7.89699 17.3906 9.2871 16.1756 10.7531C15.0887 12.0647 13.5266 13.3959 11.7179 14.9374C11.0997 15.464 10.3993 16.061 9.67224 16.6969C9.48031 16.8648 9.23371 16.9574 8.97821 16.9574ZM5.01627 2.0338C3.92674 2.0338 2.92584 2.46862 2.1977 3.25827C1.45874 4.05984 1.05172 5.16788 1.05172 6.37838C1.05172 7.6556 1.52642 8.79788 2.59074 10.0821C3.61945 11.3234 5.14957 12.6274 6.92121 14.1372L6.9245 14.1399C7.54386 14.6678 8.24597 15.2662 8.97671 15.9051C9.71183 15.265 10.415 14.6656 11.0356 14.1369C12.8071 12.6271 14.3371 11.3234 15.3658 10.0821C16.43 8.79788 16.9047 7.6556 16.9047 6.37838C16.9047 5.16788 16.4977 4.05984 15.7587 3.25827C15.0307 2.46862 14.0297 2.0338 12.9403 2.0338C12.1422 2.0338 11.4094 2.28751 10.7623 2.78783C10.1857 3.23389 9.78403 3.79777 9.54853 4.19232C9.42743 4.39521 9.21426 4.51632 8.97821 4.51632C8.74217 4.51632 8.529 4.39521 8.4079 4.19232C8.17254 3.79777 7.77086 3.23389 7.19411 2.78783C6.54707 2.28751 5.81428 2.0338 5.01627 2.0338Z" fill="black"/>
</svg>
