<svg width="21" height="22" viewBox="0 0 21 22" fill="none" xmlns="http://www.w3.org/2000/svg">
<path d="M17.3362 1.43689H3.60516C2.16951 1.43689 1.00146 2.66959 1.00146 4.18523V13.0552C1.00146 14.5674 2.16443 15.7982 3.59591 15.8035V19.8286L9.07597 15.8035H17.3362C18.7719 15.8035 19.9399 14.5706 19.9399 13.0552V4.18523C19.9399 2.66959 18.7719 1.43689 17.3362 1.43689V1.43689ZM18.8302 13.0552C18.8302 13.9247 18.16 14.6322 17.3362 14.6322H8.72781L4.70558 17.5866V14.6322H3.60516C2.78134 14.6322 2.11114 13.9247 2.11114 13.0552V4.18523C2.11114 3.31552 2.78134 2.60821 3.60516 2.60821H17.3362C18.16 2.60821 18.8302 3.31552 18.8302 4.18523V13.0552Z" fill="#49AAE8"/>
<path d="M6.0708 5.57568H14.8717V6.747H6.0708V5.57568Z" fill="#49AAE8" stroke="#49AAE8" stroke-width="0.224456" stroke-linejoin="round"/>
<path d="M6.0708 8.07446H14.8717V9.24579H6.0708V8.07446Z" fill="#49AAE8" stroke="#49AAE8" stroke-width="0.224456" stroke-linejoin="round"/>
<path d="M6.0708 10.5732H14.8717V11.7446H6.0708V10.5732Z" fill="#49AAE8" stroke="#49AAE8" stroke-width="0.224456" stroke-linejoin="round"/>
</svg>
