<svg width="103" height="105" viewBox="0 0 103 105" fill="none" xmlns="http://www.w3.org/2000/svg">
<g filter="url(#filter0_ddd_1121_12100)">
<circle cx="51.7049" cy="45.7049" r="22.7049" fill="#49AAE8"/>
</g>
<path fill-rule="evenodd" clip-rule="evenodd" d="M61.3334 53.3051C61.3334 53.7971 60.8881 54.1978 60.3414 54.1978H58.6668V51.7981H61.3334V53.3051ZM42.6667 53.3051V51.7981H45.3333V54.1978H43.6587C43.112 54.1978 42.6667 53.7971 42.6667 53.3051ZM43.6587 37.3997H45.3333V39.7995H42.6667V38.2924C42.6667 37.8005 43.112 37.3997 43.6587 37.3997ZM61.3334 38.2924V39.7995H58.6668V37.3997H60.3414C60.8881 37.3997 61.3334 37.8005 61.3334 38.2924ZM58.6668 49.3984H61.3334V46.9986H58.6668V49.3984ZM58.6668 44.5989H61.3334V42.1992H58.6668V44.5989ZM48 54.198H56V37.3997H48V54.198ZM42.6667 49.3984H45.3333V46.9986H42.6667V49.3984ZM42.6667 44.5989H45.3333V42.1992H42.6667V44.5989ZM60.3413 35H43.6587C41.6413 35 40 36.4782 40 38.2925V53.3053C40 55.1207 41.6413 56.5978 43.6587 56.5978H60.3413C62.3587 56.5978 64 55.1207 64 53.3053V38.2925C64 36.4782 62.3587 35 60.3413 35Z" fill="white"/>
<defs>
<filter id="filter0_ddd_1121_12100" x="0.618822" y="0.295058" width="102.172" height="104.443" filterUnits="userSpaceOnUse" color-interpolation-filters="sRGB">
<feFlood flood-opacity="0" result="BackgroundImageFix"/>
<feColorMatrix in="SourceAlpha" type="matrix" values="0 0 0 0 0 0 0 0 0 0 0 0 0 0 0 0 0 0 127 0" result="hardAlpha"/>
<feOffset dy="5.67624"/>
<feGaussianBlur stdDeviation="14.1906"/>
<feColorMatrix type="matrix" values="0 0 0 0 0.164706 0 0 0 0 0.545098 0 0 0 0 0.94902 0 0 0 0.07 0"/>
<feBlend mode="normal" in2="BackgroundImageFix" result="effect1_dropShadow_1121_12100"/>
<feColorMatrix in="SourceAlpha" type="matrix" values="0 0 0 0 0 0 0 0 0 0 0 0 0 0 0 0 0 0 127 0" result="hardAlpha"/>
<feOffset dy="7.94673"/>
<feGaussianBlur stdDeviation="14.1906"/>
<feColorMatrix type="matrix" values="0 0 0 0 0.164706 0 0 0 0 0.545098 0 0 0 0 0.94902 0 0 0 0.03 0"/>
<feBlend mode="normal" in2="effect1_dropShadow_1121_12100" result="effect2_dropShadow_1121_12100"/>
<feColorMatrix in="SourceAlpha" type="matrix" values="0 0 0 0 0 0 0 0 0 0 0 0 0 0 0 0 0 0 127 0" result="hardAlpha"/>
<feOffset dy="11.3525"/>
<feGaussianBlur stdDeviation="8.51435"/>
<feColorMatrix type="matrix" values="0 0 0 0 0 0 0 0 0 0 0 0 0 0 0 0 0 0 0.03 0"/>
<feBlend mode="normal" in2="effect2_dropShadow_1121_12100" result="effect3_dropShadow_1121_12100"/>
<feBlend mode="normal" in="SourceGraphic" in2="effect3_dropShadow_1121_12100" result="shape"/>
</filter>
</defs>
</svg>
