<svg width="103" height="105" viewBox="0 0 103 105" fill="none" xmlns="http://www.w3.org/2000/svg">
<g filter="url(#filter0_ddd_1121_12094)">
<circle cx="51.7049" cy="45.4686" r="22.7049" fill="#49AAE8"/>
</g>
<path fill-rule="evenodd" clip-rule="evenodd" d="M46.6665 42.3997C47.7705 42.3997 48.6665 41.5934 48.6665 40.5999C48.6665 39.6064 47.7705 38.8001 46.6665 38.8001C45.5625 38.8001 44.6665 39.6064 44.6665 40.5999C44.6665 41.5934 45.5625 42.3997 46.6665 42.3997ZM59.9999 53.1989H44.7479L54.0879 46.1856C54.4159 45.9349 55.0106 45.9361 55.3319 46.1844L61.3333 50.792V51.9991C61.3333 52.6614 60.7359 53.1989 59.9999 53.1989ZM44.0001 36.4004H60.0001C60.7361 36.4004 61.3334 36.9379 61.3334 37.6003V47.636L57.0627 44.358C55.7427 43.3477 53.6774 43.3477 52.3694 44.3508L42.6667 51.6364V37.6003C42.6667 36.9379 43.2641 36.4004 44.0001 36.4004Z" fill="white"/>
<defs>
<filter id="filter0_ddd_1121_12094" x="0.618822" y="0.0587301" width="102.172" height="104.443" filterUnits="userSpaceOnUse" color-interpolation-filters="sRGB">
<feFlood flood-opacity="0" result="BackgroundImageFix"/>
<feColorMatrix in="SourceAlpha" type="matrix" values="0 0 0 0 0 0 0 0 0 0 0 0 0 0 0 0 0 0 127 0" result="hardAlpha"/>
<feOffset dy="5.67624"/>
<feGaussianBlur stdDeviation="14.1906"/>
<feColorMatrix type="matrix" values="0 0 0 0 0.164706 0 0 0 0 0.545098 0 0 0 0 0.94902 0 0 0 0.07 0"/>
<feBlend mode="normal" in2="BackgroundImageFix" result="effect1_dropShadow_1121_12094"/>
<feColorMatrix in="SourceAlpha" type="matrix" values="0 0 0 0 0 0 0 0 0 0 0 0 0 0 0 0 0 0 127 0" result="hardAlpha"/>
<feOffset dy="7.94673"/>
<feGaussianBlur stdDeviation="14.1906"/>
<feColorMatrix type="matrix" values="0 0 0 0 0.164706 0 0 0 0 0.545098 0 0 0 0 0.94902 0 0 0 0.03 0"/>
<feBlend mode="normal" in2="effect1_dropShadow_1121_12094" result="effect2_dropShadow_1121_12094"/>
<feColorMatrix in="SourceAlpha" type="matrix" values="0 0 0 0 0 0 0 0 0 0 0 0 0 0 0 0 0 0 127 0" result="hardAlpha"/>
<feOffset dy="11.3525"/>
<feGaussianBlur stdDeviation="8.51435"/>
<feColorMatrix type="matrix" values="0 0 0 0 0 0 0 0 0 0 0 0 0 0 0 0 0 0 0.03 0"/>
<feBlend mode="normal" in2="effect2_dropShadow_1121_12094" result="effect3_dropShadow_1121_12094"/>
<feBlend mode="normal" in="SourceGraphic" in2="effect3_dropShadow_1121_12094" result="shape"/>
</filter>
</defs>
</svg>
