<svg width="20" height="20" viewBox="0 0 20 20" fill="none" xmlns="http://www.w3.org/2000/svg">
<g clip-path="url(#clip0_1121_12146)">
<path d="M6.96172 14.7048L5.2951 13.0382C5.20987 12.9508 5.09003 12.9062 4.96843 12.9165C4.84765 12.9252 4.7366 12.986 4.66426 13.0832L0.0836119 19.3329C-0.0544689 19.517 -0.0171656 19.7782 0.166929 19.9162C0.315088 20.0273 0.518752 20.0273 0.666911 19.9162L6.91668 15.3331C7.1023 15.1971 7.14257 14.9364 7.0066 14.7508C6.99398 14.7336 6.98011 14.7174 6.96503 14.7023L6.96172 14.7048Z" fill="#CFD8DC"/>
<path d="M12.3782 11.7889L8.21173 7.62238C7.51078 7.07665 6.63745 6.80022 5.75014 6.84323C4.58862 6.8026 3.46015 7.23395 2.62194 8.039C1.94528 8.71565 2.01528 9.76144 2.83025 11.1481C3.59991 12.3549 4.5089 13.4669 5.53847 14.4613C7.19591 16.1179 9.28833 17.8395 10.8133 17.8395C11.2431 17.8503 11.6582 17.6833 11.9607 17.3778C13.6957 15.6437 13.2632 12.6747 12.3782 11.7889Z" fill="#3C9AD9"/>
<path d="M15.7115 8.4555L11.5449 4.28898C11.3822 4.12633 11.1185 4.12633 10.9558 4.28898L7.62257 7.62217C7.07759 8.16715 7.12258 9.37211 8.87252 11.1279C10.015 12.2703 10.9258 12.6861 11.5724 12.6861C11.8717 12.6967 12.1624 12.5855 12.3782 12.3778L15.7114 9.04462C15.8741 8.88193 15.8741 8.61819 15.7115 8.4555Z" fill="#49AAE8"/>
<path d="M19.9679 7.34129C19.9035 7.18548 19.7515 7.08384 19.5829 7.0838C18.6797 7.0838 16.6964 6.10716 15.2948 4.70557C13.8932 3.30398 12.9166 1.32151 12.9166 0.417407C12.9169 0.187298 12.7307 0.000430318 12.5006 6.46526e-07C12.3897 -0.000194659 12.2833 0.0438662 12.2049 0.122418C10.5033 1.82485 9.97166 4.72807 12.6216 7.37797C13.6297 8.49828 15.0487 9.1624 16.5547 9.21872C17.8074 9.20435 19.0029 8.69194 19.8771 7.79459C19.9961 7.67573 20.032 7.49691 19.9679 7.34129Z" fill="#3C9AD9"/>
<path d="M17.3781 2.62256C15.6131 0.858445 14.0174 0.000976562 12.4999 0.000976562C12.2698 0.000976562 12.0833 0.187532 12.0833 0.417641C12.0833 1.66177 13.2599 3.85001 14.7048 5.29578C16.1498 6.74155 18.3397 7.91736 19.583 7.91736C19.8131 7.91736 19.9997 7.73081 19.9997 7.5007C19.9997 5.98243 19.1422 4.38663 17.3781 2.62256Z" fill="#49AAE8"/>
</g>
<defs>
<clipPath id="clip0_1121_12146">
<rect width="20" height="20" fill="white"/>
</clipPath>
</defs>
</svg>
